{"glyphs":{"0":{"ha":974,"x_min":78,"x_max":897,"o":"m 488 -19 q 270 45 363 -19 q 128 226 178 110 q 78 494 78 343 q 129 754 78 642 q 274 929 181 867 q 488 992 367 992 q 703 929 610 992 q 847 754 796 867 q 897 494 897 642 q 847 226 897 343 q 705 45 797 110 q 488 -19 613 -19 m 488 117 q 673 213 606 117 q 740 494 740 308 q 672 765 740 672 q 488 857 604 857 q 303 764 374 857 q 233 494 233 671 q 301 213 233 310 q 488 117 368 117 z "},"1":{"ha":478,"x_min":54,"x_max":357,"o":"m 208 756 q 74 686 138 703 l 54 821 q 165 881 107 836 q 247 972 222 925 l 357 972 l 357 0 l 208 0 l 208 756 z "},"2":{"ha":731,"x_min":71,"x_max":658,"o":"m 333 400 q 440 582 408 515 q 472 706 472 649 q 434 811 472 772 q 331 850 396 850 q 96 738 206 850 l 76 893 q 354 993 200 993 q 552 918 482 993 q 622 728 622 843 q 587 556 622 640 q 465 342 551 472 l 332 140 l 658 140 l 658 1 l 71 1 l 333 400 z "},"3":{"ha":750,"x_min":51,"x_max":668,"o":"m 492 511 q 622 422 576 483 q 668 271 668 361 q 624 115 668 181 q 503 15 581 50 q 328 -19 426 -19 q 51 50 182 -19 l 89 183 q 206 132 149 150 q 329 114 264 114 q 463 155 414 114 q 511 268 511 196 q 459 390 511 347 q 303 433 407 433 l 226 433 l 226 572 l 303 572 q 433 611 386 572 q 481 719 481 650 q 442 823 481 788 q 331 858 403 858 q 224 839 275 858 q 118 785 174 819 l 93 929 q 349 992 207 992 q 559 922 483 992 q 635 739 635 853 q 597 601 635 660 q 492 511 560 542 z "},"4":{"ha":828,"x_min":19,"x_max":776,"o":"m 776 365 l 776 239 l 651 239 l 651 0 l 501 0 l 501 239 l 19 239 l 544 972 l 651 972 l 651 365 l 776 365 m 501 365 l 501 700 l 264 365 l 501 365 z "},"5":{"ha":749,"x_min":69,"x_max":683,"o":"m 361 613 q 533 574 460 613 q 644 465 606 535 q 683 301 683 394 q 639 132 683 204 q 516 20 594 60 q 339 -19 438 -19 q 193 1 263 -19 q 69 57 124 21 l 106 196 q 217 143 164 161 q 333 125 271 125 q 474 173 421 125 q 526 301 526 221 q 469 440 526 392 q 310 489 411 489 q 119 464 224 489 l 181 972 l 639 972 l 631 828 l 300 828 l 274 607 q 361 613 311 613 z "},"6":{"ha":785,"x_min":78,"x_max":726,"o":"m 439 583 q 587 545 521 583 q 690 440 653 507 q 726 290 726 374 q 687 130 726 200 q 574 20 647 60 q 407 -19 501 -19 q 232 26 307 -19 q 117 153 157 71 q 78 342 78 235 q 142 617 78 488 q 306 841 207 746 q 514 992 406 936 l 618 901 q 403 747 506 844 q 254 531 300 650 q 439 583 331 583 m 408 108 q 531 159 483 108 q 579 285 579 210 q 531 407 579 358 q 408 456 483 456 q 284 407 332 456 q 236 283 236 358 q 284 158 236 207 q 408 108 332 108 z "},"7":{"ha":703,"x_min":57,"x_max":690,"o":"m 690 972 l 276 0 l 117 0 l 469 829 l 57 829 l 57 972 l 690 972 z "},"8":{"ha":840,"x_min":81,"x_max":760,"o":"m 613 531 q 721 428 682 493 q 760 278 760 363 q 718 123 760 190 q 599 18 676 56 q 421 -19 522 -19 q 241 18 318 -19 q 122 123 164 56 q 81 278 81 190 q 119 428 81 363 q 229 532 158 494 q 153 617 181 567 q 125 729 125 668 q 156 857 125 797 q 254 954 188 917 q 421 992 321 992 q 585 954 519 992 q 680 857 650 917 q 710 729 710 797 q 685 616 710 667 q 613 531 660 565 m 421 864 q 308 827 349 864 q 268 729 268 790 q 309 631 268 671 q 421 592 350 592 q 529 631 490 592 q 568 729 568 669 q 530 827 568 790 q 421 864 492 864 m 421 114 q 560 160 510 114 q 611 283 611 206 q 560 410 611 361 q 421 458 510 458 q 280 410 331 458 q 229 283 229 361 q 280 160 229 206 q 421 114 331 114 z "},"9":{"ha":785,"x_min":63,"x_max":711,"o":"m 382 992 q 557 947 482 992 q 672 819 632 901 q 711 631 711 738 q 649 364 711 489 q 490 147 586 239 q 289 0 394 54 l 185 90 q 388 236 290 144 q 532 440 486 328 q 350 389 460 389 q 202 427 268 389 q 99 532 136 465 q 63 682 63 599 q 102 842 63 772 q 215 952 142 913 q 382 992 288 992 m 381 518 q 504 567 456 518 q 553 689 553 615 q 504 813 553 764 q 381 861 456 861 q 258 811 306 861 q 211 688 211 761 q 258 567 211 615 q 381 518 306 518 z "},"\r":{"ha":313,"x_min":0,"x_max":0,"o":""}," ":{"ha":313,"x_min":0,"x_max":0,"o":""},"A":{"ha":861,"x_min":7,"x_max":854,"o":"m 613 249 l 247 249 l 160 0 l 7 0 l 354 972 l 506 972 l 854 0 l 700 0 l 613 249 m 565 383 l 431 765 l 296 383 l 565 383 z "},"Á":{"ha":861,"x_min":7,"x_max":854,"o":"m 613 249 l 247 249 l 160 0 l 7 0 l 354 972 l 506 972 l 854 0 l 700 0 l 613 249 m 565 383 l 431 765 l 296 383 l 565 383 m 299 1146 l 564 1278 l 564 1139 l 299 1058 l 299 1146 z "},"Ă":{"ha":861,"x_min":7,"x_max":854,"o":"m 613 249 l 247 249 l 160 0 l 7 0 l 354 972 l 506 972 l 854 0 l 700 0 l 613 249 m 565 383 l 431 765 l 296 383 l 565 383 m 431 1063 q 278 1113 333 1063 q 224 1236 224 1163 l 338 1236 q 363 1174 338 1196 q 431 1151 389 1151 q 498 1174 472 1151 q 524 1236 524 1196 l 638 1236 q 583 1113 638 1163 q 431 1063 528 1063 z "},"Ắ":{"ha":861,"x_min":7,"x_max":854,"o":"m 613 249 l 247 249 l 160 0 l 7 0 l 354 972 l 506 972 l 854 0 l 700 0 l 613 249 m 565 383 l 431 765 l 296 383 l 565 383 m 431 1063 q 278 1113 333 1063 q 224 1236 224 1163 l 338 1236 q 363 1174 338 1196 q 431 1151 389 1151 q 498 1174 472 1151 q 524 1236 524 1196 l 638 1236 q 583 1113 638 1163 q 431 1063 528 1063 m 299 1386 l 564 1518 l 564 1379 l 299 1299 l 299 1386 z "},"Ặ":{"ha":861,"x_min":7,"x_max":854,"o":"m 613 249 l 247 249 l 160 0 l 7 0 l 354 972 l 506 972 l 854 0 l 700 0 l 613 249 m 565 383 l 431 765 l 296 383 l 565 383 m 431 1093 q 278 1146 333 1093 q 224 1276 224 1199 l 338 1276 q 363 1212 338 1235 q 431 1189 389 1189 q 498 1212 472 1189 q 524 1276 524 1235 l 638 1276 q 583 1146 638 1199 q 431 1093 528 1093 m 361 -112 l 500 -112 l 500 -242 l 361 -242 l 361 -112 z "},"Ằ":{"ha":861,"x_min":7,"x_max":854,"o":"m 613 249 l 247 249 l 160 0 l 7 0 l 354 972 l 506 972 l 854 0 l 700 0 l 613 249 m 565 383 l 431 765 l 296 383 l 565 383 m 431 1061 q 278 1111 333 1061 q 224 1235 224 1161 l 338 1235 q 363 1172 338 1194 q 431 1150 389 1150 q 498 1172 472 1150 q 524 1235 524 1194 l 638 1235 q 583 1111 638 1161 q 431 1061 528 1061 m 297 1378 l 297 1517 l 563 1385 l 563 1297 l 297 1378 z "},"Ẳ":{"ha":861,"x_min":7,"x_max":854,"o":"m 613 249 l 247 249 l 160 0 l 7 0 l 354 972 l 506 972 l 854 0 l 700 0 l 613 249 m 565 383 l 431 765 l 296 383 l 565 383 m 431 1063 q 278 1113 333 1063 q 224 1236 224 1163 l 338 1236 q 363 1174 338 1196 q 431 1151 389 1151 q 498 1174 472 1151 q 524 1236 524 1196 l 638 1236 q 583 1113 638 1163 q 431 1063 528 1063 m 426 1315 q 476 1367 476 1331 q 422 1408 476 1408 q 336 1382 385 1408 l 313 1458 q 424 1485 363 1485 q 522 1456 483 1485 q 561 1375 561 1426 q 532 1299 561 1328 q 440 1257 503 1271 l 426 1315 z "},"Ẵ":{"ha":861,"x_min":7,"x_max":854,"o":"m 613 249 l 247 249 l 160 0 l 7 0 l 354 972 l 506 972 l 854 0 l 700 0 l 613 249 m 565 383 l 431 765 l 296 383 l 565 383 m 431 1063 q 278 1113 333 1063 q 224 1236 224 1163 l 338 1236 q 363 1174 338 1196 q 431 1151 389 1151 q 498 1174 472 1151 q 524 1236 524 1196 l 638 1236 q 583 1113 638 1163 q 431 1063 528 1063 m 549 1303 q 501 1310 526 1303 q 442 1333 476 1318 q 354 1360 381 1360 q 319 1347 332 1360 q 307 1310 307 1333 l 210 1310 q 236 1416 210 1379 q 313 1453 263 1453 q 358 1445 335 1453 q 419 1421 381 1438 q 456 1406 426 1418 q 507 1394 486 1394 q 542 1408 529 1394 q 554 1444 554 1421 l 651 1444 q 625 1339 651 1375 q 549 1303 599 1303 z "},"Â":{"ha":861,"x_min":7,"x_max":854,"o":"m 613 249 l 247 249 l 160 0 l 7 0 l 354 972 l 506 972 l 854 0 l 700 0 l 613 249 m 565 383 l 431 765 l 296 383 l 565 383 m 610 1133 l 610 1042 l 431 1136 l 251 1042 l 251 1133 l 431 1260 l 610 1133 z "},"Ấ":{"ha":861,"x_min":7,"x_max":854,"o":"m 613 249 l 247 249 l 160 0 l 7 0 l 354 972 l 506 972 l 854 0 l 700 0 l 613 249 m 565 383 l 431 765 l 296 383 l 565 383 m 626 1421 l 774 1421 l 635 1253 l 535 1253 l 626 1421 m 610 1139 l 610 1047 l 431 1142 l 251 1047 l 251 1139 l 431 1265 l 610 1139 z "},"Ậ":{"ha":861,"x_min":7,"x_max":854,"o":"m 613 249 l 247 249 l 160 0 l 7 0 l 354 972 l 506 972 l 854 0 l 700 0 l 613 249 m 565 383 l 431 765 l 296 383 l 565 383 m 251 1158 l 431 1313 l 610 1158 l 610 1064 l 431 1176 l 251 1064 l 251 1158 m 361 -112 l 500 -112 l 500 -242 l 361 -242 l 361 -112 z "},"Ầ":{"ha":861,"x_min":7,"x_max":854,"o":"m 613 249 l 247 249 l 160 0 l 7 0 l 354 972 l 506 972 l 854 0 l 700 0 l 613 249 m 565 383 l 431 765 l 296 383 l 565 383 m 560 1253 l 442 1421 l 581 1421 l 656 1253 l 560 1253 m 610 1139 l 610 1047 l 431 1142 l 251 1047 l 251 1139 l 431 1265 l 610 1139 z "},"Ẩ":{"ha":861,"x_min":7,"x_max":854,"o":"m 613 249 l 247 249 l 160 0 l 7 0 l 354 972 l 506 972 l 854 0 l 700 0 l 613 249 m 565 383 l 431 765 l 296 383 l 565 383 m 610 1133 l 610 1042 l 431 1136 l 251 1042 l 251 1133 l 431 1260 l 610 1133 m 550 1269 q 600 1321 600 1285 q 546 1363 600 1363 q 460 1336 508 1363 l 436 1413 q 547 1439 486 1439 q 646 1410 607 1439 q 685 1329 685 1381 q 656 1253 685 1282 q 564 1211 626 1225 l 550 1269 z "},"Ẫ":{"ha":861,"x_min":7,"x_max":854,"o":"m 613 249 l 247 249 l 160 0 l 7 0 l 354 972 l 506 972 l 854 0 l 700 0 l 613 249 m 565 383 l 431 765 l 296 383 l 565 383 m 610 1133 l 610 1042 l 431 1136 l 251 1042 l 251 1133 l 431 1260 l 610 1133 m 549 1315 q 501 1323 526 1315 q 442 1346 476 1331 q 354 1372 381 1372 q 319 1359 332 1372 q 307 1322 307 1346 l 210 1322 q 236 1428 210 1392 q 313 1465 263 1465 q 358 1458 335 1465 q 419 1433 381 1450 q 456 1419 426 1431 q 507 1407 486 1407 q 542 1420 529 1407 q 554 1457 554 1433 l 651 1457 q 625 1351 651 1388 q 549 1315 599 1315 z "},"Ȁ":{"ha":861,"x_min":7,"x_max":854,"o":"m 613 249 l 247 249 l 160 0 l 7 0 l 354 972 l 506 972 l 854 0 l 700 0 l 613 249 m 565 383 l 431 765 l 296 383 l 565 383 m 282 1094 l 147 1304 l 293 1304 l 381 1094 l 282 1094 m 481 1094 l 354 1304 l 500 1304 l 579 1094 l 481 1094 z "},"Ä":{"ha":861,"x_min":7,"x_max":854,"o":"m 613 249 l 247 249 l 160 0 l 7 0 l 354 972 l 506 972 l 854 0 l 700 0 l 613 249 m 565 383 l 431 765 l 296 383 l 565 383 m 232 1207 l 357 1207 l 357 1097 l 232 1097 l 232 1207 m 504 1207 l 629 1207 l 629 1097 l 504 1097 l 504 1207 z "},"Ạ":{"ha":861,"x_min":7,"x_max":854,"o":"m 613 249 l 247 249 l 160 0 l 7 0 l 354 972 l 506 972 l 854 0 l 700 0 l 613 249 m 565 383 l 431 765 l 296 383 l 565 383 m 361 -112 l 500 -112 l 500 -242 l 361 -242 l 361 -112 z "},"À":{"ha":861,"x_min":7,"x_max":854,"o":"m 613 249 l 247 249 l 160 0 l 7 0 l 354 972 l 506 972 l 854 0 l 700 0 l 613 249 m 565 383 l 431 765 l 296 383 l 565 383 m 297 1139 l 297 1278 l 563 1146 l 563 1058 l 297 1139 z "},"Ả":{"ha":861,"x_min":7,"x_max":854,"o":"m 613 249 l 247 249 l 160 0 l 7 0 l 354 972 l 506 972 l 854 0 l 700 0 l 613 249 m 565 383 l 431 765 l 296 383 l 565 383 m 413 1114 q 463 1165 463 1129 q 408 1207 463 1207 q 322 1181 371 1207 l 299 1257 q 410 1283 349 1283 q 508 1254 469 1283 q 547 1174 547 1225 q 518 1098 547 1126 q 426 1056 489 1069 l 413 1114 z "},"Ȃ":{"ha":861,"x_min":7,"x_max":854,"o":"m 613 249 l 247 249 l 160 0 l 7 0 l 354 972 l 506 972 l 854 0 l 700 0 l 613 249 m 565 383 l 431 765 l 296 383 l 565 383 m 431 1257 q 583 1207 528 1257 q 638 1083 638 1157 l 524 1083 q 498 1145 524 1124 q 431 1167 472 1167 q 363 1145 389 1167 q 338 1083 338 1124 l 224 1083 q 278 1207 224 1157 q 431 1257 333 1257 z "},"Ā":{"ha":861,"x_min":7,"x_max":854,"o":"m 613 249 l 247 249 l 160 0 l 7 0 l 354 972 l 506 972 l 854 0 l 700 0 l 613 249 m 565 383 l 431 765 l 296 383 l 565 383 m 206 1201 l 656 1201 l 656 1101 l 206 1101 l 206 1201 z "},"Ą":{"ha":861,"x_min":7,"x_max":886,"o":"m 613 249 l 247 249 l 160 0 l 7 0 l 354 972 l 506 972 l 854 0 l 700 0 l 613 249 m 565 383 l 431 765 l 296 383 l 565 383 m 819 0 q 739 -76 767 -40 q 711 -146 711 -111 q 729 -197 711 -179 q 778 -214 747 -214 q 864 -192 819 -214 l 886 -264 q 768 -290 833 -290 q 667 -258 707 -290 q 628 -169 628 -226 q 661 -73 628 -118 q 740 0 694 -28 l 819 0 z "},"Å":{"ha":861,"x_min":7,"x_max":854,"o":"m 613 249 l 247 249 l 160 0 l 7 0 l 354 972 l 506 972 l 854 0 l 700 0 l 613 249 m 565 383 l 431 765 l 296 383 l 565 383 m 431 1049 q 324 1088 364 1049 q 285 1185 285 1128 q 324 1281 285 1240 q 431 1321 364 1321 q 538 1281 499 1321 q 576 1185 576 1242 q 538 1088 576 1128 q 431 1049 499 1049 m 431 1115 q 481 1135 460 1115 q 501 1185 501 1154 q 481 1234 501 1214 q 431 1254 460 1254 q 381 1234 401 1254 q 360 1185 360 1214 q 381 1135 360 1154 q 431 1115 401 1115 z "},"Ǻ":{"ha":861,"x_min":7,"x_max":854,"o":"m 613 249 l 247 249 l 160 0 l 7 0 l 354 972 l 506 972 l 854 0 l 700 0 l 613 249 m 565 383 l 431 765 l 296 383 l 565 383 m 431 1049 q 324 1088 364 1049 q 285 1185 285 1128 q 324 1281 285 1240 q 431 1321 364 1321 q 538 1281 499 1321 q 576 1185 576 1242 q 538 1088 576 1128 q 431 1049 499 1049 m 431 1115 q 481 1135 460 1115 q 501 1185 501 1154 q 481 1234 501 1214 q 431 1254 460 1254 q 381 1234 401 1254 q 360 1185 360 1214 q 381 1135 360 1154 q 431 1115 401 1115 m 299 1450 l 564 1582 l 564 1443 l 299 1363 l 299 1450 z "},"Ã":{"ha":861,"x_min":7,"x_max":854,"o":"m 613 249 l 247 249 l 160 0 l 7 0 l 354 972 l 506 972 l 854 0 l 700 0 l 613 249 m 565 383 l 431 765 l 296 383 l 565 383 m 549 1089 q 501 1097 526 1089 q 442 1119 476 1104 q 354 1146 381 1146 q 319 1133 332 1146 q 307 1096 307 1119 l 210 1096 q 236 1202 210 1165 q 313 1239 263 1239 q 358 1231 335 1239 q 419 1207 381 1224 q 456 1192 426 1204 q 507 1181 486 1181 q 542 1194 529 1181 q 554 1231 554 1207 l 651 1231 q 625 1125 651 1161 q 549 1089 599 1089 z "},"Æ":{"ha":1203,"x_min":-12,"x_max":1153,"o":"m 463 972 l 1140 972 l 1140 829 l 715 829 l 715 579 l 1043 579 l 1043 438 l 715 438 l 715 142 l 1153 142 l 1153 0 l 547 0 l 547 243 l 263 243 l 140 0 l -12 0 l 463 972 m 547 390 l 547 826 l 331 390 l 547 390 z "},"Ǽ":{"ha":1203,"x_min":-12,"x_max":1153,"o":"m 463 972 l 1140 972 l 1140 829 l 715 829 l 715 579 l 1043 579 l 1043 438 l 715 438 l 715 142 l 1153 142 l 1153 0 l 547 0 l 547 243 l 263 243 l 140 0 l -12 0 l 463 972 m 547 390 l 547 826 l 331 390 l 547 390 m 669 1146 l 935 1278 l 935 1139 l 669 1058 l 669 1146 z "},"B":{"ha":846,"x_min":110,"x_max":806,"o":"m 618 531 q 758 442 710 506 q 806 278 806 378 q 722 74 806 149 q 493 0 639 0 l 110 0 l 110 972 l 442 972 q 649 913 578 972 q 721 736 721 853 q 694 613 721 665 q 618 531 668 560 m 261 578 l 421 578 q 531 607 493 578 q 568 707 568 636 q 531 808 568 778 q 421 838 493 838 l 261 838 l 261 578 m 475 136 q 600 173 556 136 q 644 288 644 210 q 475 442 644 442 l 261 442 l 261 136 l 475 136 z "},"C":{"ha":851,"x_min":51,"x_max":807,"o":"m 546 -19 q 290 43 403 -19 q 115 220 178 106 q 51 486 51 335 q 116 752 51 638 q 294 929 181 867 q 551 992 407 992 q 690 976 624 992 q 807 935 756 961 l 792 793 q 550 850 665 850 q 369 803 443 850 q 256 674 294 756 q 218 486 218 592 q 256 299 218 381 q 367 169 293 217 q 546 122 440 122 q 672 137 614 122 q 792 179 731 151 l 807 36 q 546 -19 683 -19 z "},"Ć":{"ha":851,"x_min":51,"x_max":807,"o":"m 546 -19 q 290 43 403 -19 q 115 220 178 106 q 51 486 51 335 q 116 752 51 638 q 294 929 181 867 q 551 992 407 992 q 690 976 624 992 q 807 935 756 961 l 792 793 q 550 850 665 850 q 369 803 443 850 q 256 674 294 756 q 218 486 218 592 q 256 299 218 381 q 367 169 293 217 q 546 122 440 122 q 672 137 614 122 q 792 179 731 151 l 807 36 q 546 -19 683 -19 m 389 1146 l 654 1278 l 654 1139 l 389 1058 l 389 1146 z "},"Č":{"ha":851,"x_min":51,"x_max":807,"o":"m 546 -19 q 290 43 403 -19 q 115 220 178 106 q 51 486 51 335 q 116 752 51 638 q 294 929 181 867 q 551 992 407 992 q 690 976 624 992 q 807 935 756 961 l 792 793 q 550 850 665 850 q 369 803 443 850 q 256 674 294 756 q 218 486 218 592 q 256 299 218 381 q 367 169 293 217 q 546 122 440 122 q 672 137 614 122 q 792 179 731 151 l 807 36 q 546 -19 683 -19 m 342 1206 l 342 1297 l 521 1203 l 700 1297 l 700 1206 l 521 1079 l 342 1206 z "},"Ç":{"ha":851,"x_min":51,"x_max":807,"o":"m 807 36 q 561 -19 692 -15 l 543 -75 l 551 -75 q 643 -106 610 -75 q 676 -192 676 -137 q 633 -287 676 -253 q 525 -322 590 -322 q 414 -296 461 -322 l 438 -221 q 526 -244 481 -244 q 574 -232 557 -244 q 592 -194 592 -219 q 522 -143 592 -143 q 457 -153 490 -143 l 490 -17 q 262 60 361 -6 q 107 235 163 125 q 51 486 51 344 q 116 752 51 638 q 294 929 181 867 q 551 992 407 992 q 690 976 624 992 q 807 935 756 961 l 792 793 q 550 850 665 850 q 369 803 443 850 q 256 674 294 756 q 218 486 218 592 q 256 299 218 381 q 367 169 293 217 q 546 122 440 122 q 672 137 614 122 q 792 179 731 151 l 807 36 z "},"Ḉ":{"ha":851,"x_min":51,"x_max":807,"o":"m 654 1139 l 389 1058 l 389 1146 l 654 1278 l 654 1139 m 807 36 q 561 -19 692 -15 l 543 -75 l 551 -75 q 643 -106 610 -75 q 676 -192 676 -137 q 633 -287 676 -253 q 525 -322 590 -322 q 414 -296 461 -322 l 438 -221 q 526 -244 481 -244 q 574 -232 557 -244 q 592 -194 592 -219 q 522 -143 592 -143 q 457 -153 490 -143 l 490 -17 q 262 60 361 -6 q 107 235 163 125 q 51 486 51 344 q 116 752 51 638 q 294 929 181 867 q 551 992 407 992 q 690 976 624 992 q 807 935 756 961 l 792 793 q 550 850 665 850 q 369 803 443 850 q 256 674 294 756 q 218 486 218 592 q 256 299 218 381 q 367 169 293 217 q 546 122 440 122 q 672 137 614 122 q 792 179 731 151 l 807 36 z "},"Ĉ":{"ha":851,"x_min":51,"x_max":807,"o":"m 546 -19 q 290 43 403 -19 q 115 220 178 106 q 51 486 51 335 q 116 752 51 638 q 294 929 181 867 q 551 992 407 992 q 690 976 624 992 q 807 935 756 961 l 792 793 q 550 850 665 850 q 369 803 443 850 q 256 674 294 756 q 218 486 218 592 q 256 299 218 381 q 367 169 293 217 q 546 122 440 122 q 672 137 614 122 q 792 179 731 151 l 807 36 q 546 -19 683 -19 m 700 1133 l 700 1042 l 521 1136 l 342 1042 l 342 1133 l 521 1260 l 700 1133 z "},"Ċ":{"ha":851,"x_min":51,"x_max":807,"o":"m 546 -19 q 290 43 403 -19 q 115 220 178 106 q 51 486 51 335 q 116 752 51 638 q 294 929 181 867 q 551 992 407 992 q 690 976 624 992 q 807 935 756 961 l 792 793 q 550 850 665 850 q 369 803 443 850 q 256 674 294 756 q 218 486 218 592 q 256 299 218 381 q 367 169 293 217 q 546 122 440 122 q 672 137 614 122 q 792 179 731 151 l 807 36 q 546 -19 683 -19 m 451 1229 l 590 1229 l 590 1100 l 451 1100 l 451 1229 z "},"D":{"ha":1006,"x_min":110,"x_max":953,"o":"m 110 972 l 471 972 q 721 914 611 972 q 892 746 831 856 q 953 486 953 636 q 892 226 953 336 q 721 58 831 117 q 471 0 611 0 l 110 0 l 110 972 m 471 136 q 705 230 624 136 q 786 486 786 324 q 705 742 786 649 q 471 836 624 836 l 261 836 l 261 136 l 471 136 z "},"Ǆ":{"ha":1742,"x_min":110,"x_max":1732,"o":"m 110 972 l 471 972 q 721 914 611 972 q 892 746 831 856 q 953 486 953 636 q 892 226 953 336 q 721 58 831 117 q 471 0 611 0 l 110 0 l 110 972 m 471 136 q 705 230 624 136 q 786 486 786 324 q 705 742 786 649 q 471 836 624 836 l 261 836 l 261 136 l 471 136 m 1231 136 l 1725 136 l 1725 0 l 992 0 l 1490 836 l 1054 836 l 1054 972 l 1732 972 l 1231 136 m 1214 1206 l 1214 1297 l 1393 1203 l 1572 1297 l 1572 1206 l 1393 1079 l 1214 1206 z "},"Ð":{"ha":1014,"x_min":28,"x_max":961,"o":"m 122 432 l 28 432 l 28 556 l 122 556 l 122 972 l 482 972 q 730 914 621 972 q 900 746 839 856 q 961 486 961 636 q 900 226 961 336 q 730 58 839 117 q 482 0 621 0 l 122 0 l 122 432 m 482 142 q 715 233 635 142 q 796 486 796 325 q 715 739 796 647 q 482 831 635 831 l 269 831 l 269 556 l 447 556 l 447 432 l 269 432 l 269 142 l 482 142 z "},"Ď":{"ha":1006,"x_min":110,"x_max":953,"o":"m 110 972 l 471 972 q 721 914 611 972 q 892 746 831 856 q 953 486 953 636 q 892 226 953 336 q 721 58 831 117 q 471 0 611 0 l 110 0 l 110 972 m 471 136 q 705 230 624 136 q 786 486 786 324 q 705 742 786 649 q 471 836 624 836 l 261 836 l 261 136 l 471 136 m 324 1206 l 324 1297 l 503 1203 l 682 1297 l 682 1206 l 503 1079 l 324 1206 z "},"Đ":{"ha":1014,"x_min":28,"x_max":961,"o":"m 122 432 l 28 432 l 28 556 l 122 556 l 122 972 l 482 972 q 730 914 621 972 q 900 746 839 856 q 961 486 961 636 q 900 226 961 336 q 730 58 839 117 q 482 0 621 0 l 122 0 l 122 432 m 482 142 q 715 233 635 142 q 796 486 796 325 q 715 739 796 647 q 482 831 635 831 l 269 831 l 269 556 l 447 556 l 447 432 l 269 432 l 269 142 l 482 142 z "},"Ḍ":{"ha":1006,"x_min":110,"x_max":953,"o":"m 110 972 l 471 972 q 721 914 611 972 q 892 746 831 856 q 953 486 953 636 q 892 226 953 336 q 721 58 831 117 q 471 0 611 0 l 110 0 l 110 972 m 471 136 q 705 230 624 136 q 786 486 786 324 q 705 742 786 649 q 471 836 624 836 l 261 836 l 261 136 l 471 136 m 433 -112 l 572 -112 l 572 -242 l 433 -242 l 433 -112 z "},"Ḏ":{"ha":1006,"x_min":110,"x_max":953,"o":"m 110 972 l 471 972 q 721 914 611 972 q 892 746 831 856 q 953 486 953 636 q 892 226 953 336 q 721 58 831 117 q 471 0 611 0 l 110 0 l 110 972 m 471 136 q 705 230 624 136 q 786 486 786 324 q 705 742 786 649 q 471 836 624 836 l 261 836 l 261 136 l 471 136 m 278 -126 l 728 -126 l 728 -231 l 278 -231 l 278 -126 z "},"ǅ":{"ha":1651,"x_min":110,"x_max":1622,"o":"m 110 972 l 471 972 q 721 914 611 972 q 892 746 831 856 q 953 486 953 636 q 892 226 953 336 q 721 58 831 117 q 471 0 611 0 l 110 0 l 110 972 m 471 136 q 705 230 624 136 q 786 486 786 324 q 705 742 786 649 q 471 836 624 836 l 261 836 l 261 136 l 471 136 m 1260 125 l 1619 125 l 1619 0 l 1025 0 l 1388 561 l 1051 561 l 1051 686 l 1622 686 l 1260 125 m 1154 938 l 1154 1033 l 1333 921 l 1513 1033 l 1513 938 l 1333 783 l 1154 938 z "},"E":{"ha":778,"x_min":110,"x_max":728,"o":"m 110 972 l 715 972 l 715 831 l 263 831 l 263 579 l 618 579 l 618 438 l 263 438 l 263 142 l 728 142 l 728 0 l 110 0 l 110 972 z "},"É":{"ha":778,"x_min":110,"x_max":728,"o":"m 110 972 l 715 972 l 715 831 l 263 831 l 263 579 l 618 579 l 618 438 l 263 438 l 263 142 l 728 142 l 728 0 l 110 0 l 110 972 m 294 1146 l 560 1278 l 560 1139 l 294 1058 l 294 1146 z "},"Ĕ":{"ha":778,"x_min":110,"x_max":728,"o":"m 110 972 l 715 972 l 715 831 l 263 831 l 263 579 l 618 579 l 618 438 l 263 438 l 263 142 l 728 142 l 728 0 l 110 0 l 110 972 m 426 1093 q 274 1146 329 1093 q 219 1276 219 1199 l 333 1276 q 359 1212 333 1235 q 426 1189 385 1189 q 494 1212 468 1189 q 519 1276 519 1235 l 633 1276 q 578 1146 633 1199 q 426 1093 524 1093 z "},"Ě":{"ha":778,"x_min":110,"x_max":728,"o":"m 110 972 l 715 972 l 715 831 l 263 831 l 263 579 l 618 579 l 618 438 l 263 438 l 263 142 l 728 142 l 728 0 l 110 0 l 110 972 m 247 1215 l 247 1311 l 426 1199 l 606 1311 l 606 1215 l 426 1061 l 247 1215 z "},"Ḝ":{"ha":778,"x_min":110,"x_max":728,"o":"m 110 972 l 715 972 l 715 831 l 263 831 l 263 579 l 618 579 l 618 438 l 263 438 l 263 142 l 728 142 l 728 0 l 110 0 l 110 972 m 454 -75 q 546 -106 513 -75 q 579 -192 579 -137 q 536 -287 579 -253 q 428 -322 493 -322 q 317 -296 364 -322 l 340 -221 q 429 -244 383 -244 q 477 -232 460 -244 q 494 -194 494 -219 q 425 -143 494 -143 q 360 -153 393 -143 l 397 0 l 469 0 l 446 -75 l 454 -75 m 426 1063 q 274 1113 329 1063 q 219 1236 219 1163 l 333 1236 q 359 1174 333 1196 q 426 1151 385 1151 q 494 1174 468 1151 q 519 1236 519 1196 l 633 1236 q 578 1113 633 1163 q 426 1063 524 1063 z "},"Ê":{"ha":778,"x_min":110,"x_max":728,"o":"m 110 972 l 715 972 l 715 831 l 263 831 l 263 579 l 618 579 l 618 438 l 263 438 l 263 142 l 728 142 l 728 0 l 110 0 l 110 972 m 606 1133 l 606 1042 l 426 1136 l 247 1042 l 247 1133 l 426 1260 l 606 1133 z "},"Ế":{"ha":778,"x_min":110,"x_max":769,"o":"m 110 972 l 715 972 l 715 831 l 263 831 l 263 579 l 618 579 l 618 438 l 263 438 l 263 142 l 728 142 l 728 0 l 110 0 l 110 972 m 622 1421 l 769 1421 l 631 1253 l 531 1253 l 622 1421 m 606 1139 l 606 1047 l 426 1142 l 247 1047 l 247 1139 l 426 1265 l 606 1139 z "},"Ệ":{"ha":778,"x_min":110,"x_max":728,"o":"m 110 972 l 715 972 l 715 831 l 263 831 l 263 579 l 618 579 l 618 438 l 263 438 l 263 142 l 728 142 l 728 0 l 110 0 l 110 972 m 247 1158 l 426 1313 l 606 1158 l 606 1064 l 426 1176 l 247 1064 l 247 1158 m 360 -112 l 499 -112 l 499 -242 l 360 -242 l 360 -112 z "},"Ề":{"ha":778,"x_min":110,"x_max":728,"o":"m 110 972 l 715 972 l 715 831 l 263 831 l 263 579 l 618 579 l 618 438 l 263 438 l 263 142 l 728 142 l 728 0 l 110 0 l 110 972 m 556 1253 l 438 1421 l 576 1421 l 651 1253 l 556 1253 m 606 1139 l 606 1047 l 426 1142 l 247 1047 l 247 1139 l 426 1265 l 606 1139 z "},"Ể":{"ha":778,"x_min":110,"x_max":728,"o":"m 110 972 l 715 972 l 715 831 l 263 831 l 263 579 l 618 579 l 618 438 l 263 438 l 263 142 l 728 142 l 728 0 l 110 0 l 110 972 m 606 1133 l 606 1042 l 426 1136 l 247 1042 l 247 1133 l 426 1260 l 606 1133 m 546 1269 q 596 1321 596 1285 q 542 1363 596 1363 q 456 1336 504 1363 l 432 1413 q 543 1439 482 1439 q 642 1410 603 1439 q 681 1329 681 1381 q 651 1253 681 1282 q 560 1211 622 1225 l 546 1269 z "},"Ễ":{"ha":778,"x_min":110,"x_max":728,"o":"m 110 972 l 715 972 l 715 831 l 263 831 l 263 579 l 618 579 l 618 438 l 263 438 l 263 142 l 728 142 l 728 0 l 110 0 l 110 972 m 606 1133 l 606 1042 l 426 1136 l 247 1042 l 247 1133 l 426 1260 l 606 1133 m 544 1315 q 497 1323 522 1315 q 438 1346 472 1331 q 350 1372 376 1372 q 315 1359 328 1372 q 303 1322 303 1346 l 206 1322 q 232 1428 206 1392 q 308 1465 258 1465 q 353 1458 331 1465 q 415 1433 376 1450 q 452 1419 422 1431 q 503 1407 482 1407 q 538 1420 525 1407 q 550 1457 550 1433 l 647 1457 q 621 1351 647 1388 q 544 1315 594 1315 z "},"Ȅ":{"ha":778,"x_min":110,"x_max":728,"o":"m 110 972 l 715 972 l 715 831 l 263 831 l 263 579 l 618 579 l 618 438 l 263 438 l 263 142 l 728 142 l 728 0 l 110 0 l 110 972 m 278 1094 l 143 1304 l 289 1304 l 376 1094 l 278 1094 m 476 1094 l 350 1304 l 496 1304 l 575 1094 l 476 1094 z "},"Ë":{"ha":778,"x_min":110,"x_max":728,"o":"m 110 972 l 715 972 l 715 831 l 263 831 l 263 579 l 618 579 l 618 438 l 263 438 l 263 142 l 728 142 l 728 0 l 110 0 l 110 972 m 228 1224 l 353 1224 l 353 1107 l 228 1107 l 228 1224 m 500 1224 l 625 1224 l 625 1107 l 500 1107 l 500 1224 z "},"Ė":{"ha":778,"x_min":110,"x_max":728,"o":"m 110 972 l 715 972 l 715 831 l 263 831 l 263 579 l 618 579 l 618 438 l 263 438 l 263 142 l 728 142 l 728 0 l 110 0 l 110 972 m 357 1229 l 496 1229 l 496 1100 l 357 1100 l 357 1229 z "},"Ẹ":{"ha":778,"x_min":110,"x_max":728,"o":"m 110 972 l 715 972 l 715 831 l 263 831 l 263 579 l 618 579 l 618 438 l 263 438 l 263 142 l 728 142 l 728 0 l 110 0 l 110 972 m 360 -112 l 499 -112 l 499 -242 l 360 -242 l 360 -112 z "},"È":{"ha":778,"x_min":110,"x_max":728,"o":"m 110 972 l 715 972 l 715 831 l 263 831 l 263 579 l 618 579 l 618 438 l 263 438 l 263 142 l 728 142 l 728 0 l 110 0 l 110 972 m 293 1139 l 293 1278 l 558 1146 l 558 1058 l 293 1139 z "},"Ẻ":{"ha":778,"x_min":110,"x_max":728,"o":"m 110 972 l 715 972 l 715 831 l 263 831 l 263 579 l 618 579 l 618 438 l 263 438 l 263 142 l 728 142 l 728 0 l 110 0 l 110 972 m 408 1114 q 458 1165 458 1129 q 404 1207 458 1207 q 318 1181 367 1207 l 294 1257 q 406 1283 344 1283 q 504 1254 465 1283 q 543 1174 543 1225 q 514 1098 543 1126 q 422 1056 485 1069 l 408 1114 z "},"Ȇ":{"ha":778,"x_min":110,"x_max":728,"o":"m 110 972 l 715 972 l 715 831 l 263 831 l 263 579 l 618 579 l 618 438 l 263 438 l 263 142 l 728 142 l 728 0 l 110 0 l 110 972 m 426 1257 q 578 1207 524 1257 q 633 1083 633 1157 l 519 1083 q 494 1145 519 1124 q 426 1167 468 1167 q 359 1145 385 1167 q 333 1083 333 1124 l 219 1083 q 274 1207 219 1157 q 426 1257 329 1257 z "},"Ē":{"ha":778,"x_min":110,"x_max":728,"o":"m 110 972 l 715 972 l 715 831 l 263 831 l 263 579 l 618 579 l 618 438 l 263 438 l 263 142 l 728 142 l 728 0 l 110 0 l 110 972 m 201 1201 l 651 1201 l 651 1101 l 201 1101 l 201 1201 z "},"Ḗ":{"ha":778,"x_min":110,"x_max":728,"o":"m 110 972 l 715 972 l 715 831 l 263 831 l 263 579 l 618 579 l 618 438 l 263 438 l 263 142 l 728 142 l 728 0 l 110 0 l 110 972 m 201 1201 l 651 1201 l 651 1101 l 201 1101 l 201 1201 m 294 1385 l 560 1517 l 560 1378 l 294 1297 l 294 1385 z "},"Ḕ":{"ha":778,"x_min":110,"x_max":728,"o":"m 110 972 l 715 972 l 715 831 l 263 831 l 263 579 l 618 579 l 618 438 l 263 438 l 263 142 l 728 142 l 728 0 l 110 0 l 110 972 m 201 1201 l 651 1201 l 651 1101 l 201 1101 l 201 1201 m 293 1378 l 293 1517 l 558 1385 l 558 1297 l 293 1378 z "},"Ę":{"ha":778,"x_min":110,"x_max":794,"o":"m 110 972 l 715 972 l 715 831 l 263 831 l 263 579 l 618 579 l 618 438 l 263 438 l 263 142 l 728 142 l 728 0 l 110 0 l 110 972 m 728 0 q 647 -76 675 -40 q 619 -146 619 -111 q 638 -197 619 -179 q 686 -214 656 -214 q 772 -192 728 -214 l 794 -264 q 676 -290 742 -290 q 576 -258 615 -290 q 536 -169 536 -226 q 569 -73 536 -118 q 649 0 603 -28 l 728 0 z "},"Ẽ":{"ha":778,"x_min":110,"x_max":728,"o":"m 110 972 l 715 972 l 715 831 l 263 831 l 263 579 l 618 579 l 618 438 l 263 438 l 263 142 l 728 142 l 728 0 l 110 0 l 110 972 m 540 1090 q 493 1099 517 1090 q 438 1125 469 1108 q 413 1137 432 1128 q 378 1150 394 1146 q 350 1154 363 1154 q 315 1140 328 1154 q 303 1101 303 1125 l 193 1101 q 226 1220 196 1179 q 313 1261 257 1261 q 360 1252 336 1261 q 415 1228 385 1243 q 465 1206 444 1214 q 503 1199 485 1199 q 538 1213 525 1199 q 550 1250 550 1226 l 660 1250 q 626 1131 657 1172 q 540 1090 596 1090 z "},"F":{"ha":728,"x_min":110,"x_max":704,"o":"m 110 972 l 704 972 l 704 831 l 261 831 l 261 579 l 603 579 l 603 438 l 261 438 l 261 0 l 110 0 l 110 972 z "},"G":{"ha":929,"x_min":51,"x_max":860,"o":"m 535 -19 q 283 43 393 -19 q 113 221 174 106 q 51 488 51 336 q 116 752 51 638 q 296 929 181 867 q 557 992 411 992 q 702 976 631 992 q 828 936 774 961 l 813 797 q 560 850 685 850 q 304 750 390 850 q 218 488 218 650 q 305 222 218 321 q 558 122 392 122 q 708 143 642 122 l 708 357 l 564 357 l 564 488 l 860 488 l 860 54 q 717 1 803 21 q 535 -19 632 -19 z "},"Ğ":{"ha":929,"x_min":51,"x_max":860,"o":"m 535 -19 q 283 43 393 -19 q 113 221 174 106 q 51 488 51 336 q 116 752 51 638 q 296 929 181 867 q 557 992 411 992 q 702 976 631 992 q 828 936 774 961 l 813 797 q 560 850 685 850 q 304 750 390 850 q 218 488 218 650 q 305 222 218 321 q 558 122 392 122 q 708 143 642 122 l 708 357 l 564 357 l 564 488 l 860 488 l 860 54 q 717 1 803 21 q 535 -19 632 -19 m 558 1063 q 406 1113 461 1063 q 351 1236 351 1163 l 465 1236 q 491 1174 465 1196 q 558 1151 517 1151 q 626 1174 600 1151 q 651 1236 651 1196 l 765 1236 q 710 1113 765 1163 q 558 1063 656 1063 z "},"Ǧ":{"ha":929,"x_min":51,"x_max":860,"o":"m 535 -19 q 283 43 393 -19 q 113 221 174 106 q 51 488 51 336 q 116 752 51 638 q 296 929 181 867 q 557 992 411 992 q 702 976 631 992 q 828 936 774 961 l 813 797 q 560 850 685 850 q 304 750 390 850 q 218 488 218 650 q 305 222 218 321 q 558 122 392 122 q 708 143 642 122 l 708 357 l 564 357 l 564 488 l 860 488 l 860 54 q 717 1 803 21 q 535 -19 632 -19 m 379 1206 l 379 1297 l 558 1203 l 738 1297 l 738 1206 l 558 1079 l 379 1206 z "},"Ĝ":{"ha":929,"x_min":51,"x_max":860,"o":"m 535 -19 q 283 43 393 -19 q 113 221 174 106 q 51 488 51 336 q 116 752 51 638 q 296 929 181 867 q 557 992 411 992 q 702 976 631 992 q 828 936 774 961 l 813 797 q 560 850 685 850 q 304 750 390 850 q 218 488 218 650 q 305 222 218 321 q 558 122 392 122 q 708 143 642 122 l 708 357 l 564 357 l 564 488 l 860 488 l 860 54 q 717 1 803 21 q 535 -19 632 -19 m 738 1133 l 738 1042 l 558 1136 l 379 1042 l 379 1133 l 558 1260 l 738 1133 z "},"Ģ":{"ha":929,"x_min":51,"x_max":860,"o":"m 535 -19 q 283 43 393 -19 q 113 221 174 106 q 51 488 51 336 q 116 752 51 638 q 296 929 181 867 q 557 992 411 992 q 702 976 631 992 q 828 936 774 961 l 813 797 q 560 850 685 850 q 304 750 390 850 q 218 488 218 650 q 305 222 218 321 q 558 122 392 122 q 708 143 642 122 l 708 357 l 564 357 l 564 488 l 860 488 l 860 54 q 717 1 803 21 q 535 -19 632 -19 m 474 -428 l 525 -278 l 469 -278 l 469 -126 l 628 -126 l 628 -262 l 550 -428 l 474 -428 z "},"Ġ":{"ha":929,"x_min":51,"x_max":860,"o":"m 535 -19 q 283 43 393 -19 q 113 221 174 106 q 51 488 51 336 q 116 752 51 638 q 296 929 181 867 q 557 992 411 992 q 702 976 631 992 q 828 936 774 961 l 813 797 q 560 850 685 850 q 304 750 390 850 q 218 488 218 650 q 305 222 218 321 q 558 122 392 122 q 708 143 642 122 l 708 357 l 564 357 l 564 488 l 860 488 l 860 54 q 717 1 803 21 q 535 -19 632 -19 m 489 1229 l 628 1229 l 628 1100 l 489 1100 l 489 1229 z "},"Ḡ":{"ha":929,"x_min":51,"x_max":860,"o":"m 535 -19 q 283 43 393 -19 q 113 221 174 106 q 51 488 51 336 q 116 752 51 638 q 296 929 181 867 q 557 992 411 992 q 702 976 631 992 q 828 936 774 961 l 813 797 q 560 850 685 850 q 304 750 390 850 q 218 488 218 650 q 305 222 218 321 q 558 122 392 122 q 708 143 642 122 l 708 357 l 564 357 l 564 488 l 860 488 l 860 54 q 717 1 803 21 q 535 -19 632 -19 m 333 1201 l 783 1201 l 783 1101 l 333 1101 l 333 1201 z "},"H":{"ha":994,"x_min":110,"x_max":885,"o":"m 110 972 l 261 972 l 261 578 l 733 578 l 733 972 l 885 972 l 885 0 l 733 0 l 733 435 l 261 435 l 261 0 l 110 0 l 110 972 z "},"Ħ":{"ha":1032,"x_min":15,"x_max":1018,"o":"m 1018 686 l 924 686 l 924 0 l 772 0 l 772 435 l 261 435 l 261 0 l 110 0 l 110 686 l 15 686 l 15 793 l 110 793 l 110 972 l 261 972 l 261 793 l 772 793 l 772 972 l 924 972 l 924 793 l 1018 793 l 1018 686 m 772 686 l 261 686 l 261 581 l 772 581 l 772 686 z "},"Ḫ":{"ha":994,"x_min":110,"x_max":885,"o":"m 110 972 l 261 972 l 261 578 l 733 578 l 733 972 l 885 972 l 885 0 l 733 0 l 733 435 l 261 435 l 261 0 l 110 0 l 110 972 m 497 -310 q 345 -257 400 -310 q 290 -126 290 -204 l 404 -126 q 430 -191 404 -168 q 497 -214 456 -214 q 565 -191 539 -214 q 590 -126 590 -168 l 704 -126 q 649 -257 704 -204 q 497 -310 594 -310 z "},"Ĥ":{"ha":994,"x_min":110,"x_max":885,"o":"m 110 972 l 261 972 l 261 578 l 733 578 l 733 972 l 885 972 l 885 0 l 733 0 l 733 435 l 261 435 l 261 0 l 110 0 l 110 972 m 676 1133 l 676 1042 l 497 1136 l 318 1042 l 318 1133 l 497 1260 l 676 1133 z "},"Ḥ":{"ha":994,"x_min":110,"x_max":885,"o":"m 110 972 l 261 972 l 261 578 l 733 578 l 733 972 l 885 972 l 885 0 l 733 0 l 733 435 l 261 435 l 261 0 l 110 0 l 110 972 m 428 -112 l 567 -112 l 567 -242 l 428 -242 l 428 -112 z "},"I":{"ha":369,"x_min":110,"x_max":261,"o":"m 110 972 l 261 972 l 261 0 l 110 0 l 110 972 z "},"Ĳ":{"ha":958,"x_min":99,"x_max":860,"o":"m 99 972 l 250 972 l 250 454 l 99 454 l 99 972 m 257 336 q 321 178 269 235 q 479 122 372 122 q 660 210 613 122 q 708 454 708 297 l 708 972 l 860 972 l 860 414 q 764 95 860 210 q 479 -19 668 -19 q 221 68 315 -19 q 106 314 126 156 l 257 336 z "},"Í":{"ha":369,"x_min":54,"x_max":319,"o":"m 110 972 l 261 972 l 261 0 l 110 0 l 110 972 m 54 1146 l 319 1278 l 319 1139 l 54 1058 l 54 1146 z "},"Ĭ":{"ha":369,"x_min":-21,"x_max":393,"o":"m 110 972 l 261 972 l 261 0 l 110 0 l 110 972 m 186 1093 q 34 1146 89 1093 q -21 1276 -21 1199 l 93 1276 q 119 1212 93 1235 q 186 1189 144 1189 q 253 1212 228 1189 q 279 1276 279 1235 l 393 1276 q 338 1146 393 1199 q 186 1093 283 1093 z "},"Î":{"ha":369,"x_min":7,"x_max":365,"o":"m 110 972 l 261 972 l 261 0 l 110 0 l 110 972 m 365 1133 l 365 1042 l 186 1136 l 7 1042 l 7 1133 l 186 1260 l 365 1133 z "},"Ȉ":{"ha":369,"x_min":-97,"x_max":335,"o":"m 110 972 l 261 972 l 261 0 l 110 0 l 110 972 m 38 1094 l -97 1304 l 49 1304 l 136 1094 l 38 1094 m 236 1094 l 110 1304 l 256 1304 l 335 1094 l 236 1094 z "},"Ï":{"ha":369,"x_min":-12,"x_max":385,"o":"m 110 972 l 261 972 l 261 0 l 110 0 l 110 972 m -12 1207 l 113 1207 l 113 1097 l -12 1097 l -12 1207 m 260 1207 l 385 1207 l 385 1097 l 260 1097 l 260 1207 z "},"Ḯ":{"ha":369,"x_min":-12,"x_max":385,"o":"m 110 972 l 261 972 l 261 0 l 110 0 l 110 972 m -12 1207 l 113 1207 l 113 1097 l -12 1097 l -12 1207 m 260 1207 l 385 1207 l 385 1097 l 260 1097 l 260 1207 m 54 1363 l 319 1494 l 319 1356 l 54 1275 l 54 1363 z "},"İ":{"ha":369,"x_min":110,"x_max":261,"o":"m 110 972 l 261 972 l 261 0 l 110 0 l 110 972 m 117 1229 l 256 1229 l 256 1100 l 117 1100 l 117 1229 z "},"Ị":{"ha":369,"x_min":110,"x_max":261,"o":"m 110 972 l 261 972 l 261 0 l 110 0 l 110 972 m 117 -112 l 256 -112 l 256 -242 l 117 -242 l 117 -112 z "},"Ì":{"ha":369,"x_min":53,"x_max":318,"o":"m 110 972 l 261 972 l 261 0 l 110 0 l 110 972 m 53 1139 l 53 1278 l 318 1146 l 318 1058 l 53 1139 z "},"Ỉ":{"ha":369,"x_min":54,"x_max":303,"o":"m 110 972 l 261 972 l 261 0 l 110 0 l 110 972 m 158 1069 q 206 1119 193 1101 q 218 1160 218 1136 q 203 1195 218 1183 q 164 1207 189 1207 q 78 1181 126 1207 l 54 1257 q 165 1283 104 1283 q 264 1252 225 1283 q 303 1164 303 1221 q 281 1090 303 1121 q 207 1021 258 1058 l 158 1069 z "},"Ȋ":{"ha":369,"x_min":-21,"x_max":393,"o":"m 110 972 l 261 972 l 261 0 l 110 0 l 110 972 m 186 1257 q 338 1207 283 1257 q 393 1083 393 1157 l 279 1083 q 253 1145 279 1124 q 186 1167 228 1167 q 119 1145 144 1167 q 93 1083 93 1124 l -21 1083 q 34 1207 -21 1157 q 186 1257 89 1257 z "},"Ī":{"ha":369,"x_min":-39,"x_max":411,"o":"m 110 972 l 261 972 l 261 0 l 110 0 l 110 972 m -39 1201 l 411 1201 l 411 1101 l -39 1101 l -39 1201 z "},"Į":{"ha":369,"x_min":69,"x_max":328,"o":"m 110 972 l 261 972 l 261 0 l 110 0 l 110 972 m 261 0 q 181 -76 208 -40 q 153 -146 153 -111 q 171 -197 153 -179 q 219 -214 189 -214 q 306 -192 261 -214 l 328 -264 q 210 -290 275 -290 q 109 -258 149 -290 q 69 -169 69 -226 q 103 -73 69 -118 q 182 0 136 -28 l 261 0 z "},"Ĩ":{"ha":369,"x_min":-35,"x_max":407,"o":"m 110 972 l 261 972 l 261 0 l 110 0 l 110 972 m 304 1089 q 257 1097 282 1089 q 197 1119 232 1104 q 110 1146 136 1146 q 75 1133 88 1146 q 63 1096 63 1119 l -35 1096 q -8 1202 -35 1165 q 68 1239 18 1239 q 113 1231 90 1239 q 175 1207 136 1224 q 212 1192 182 1204 q 263 1181 242 1181 q 297 1194 285 1181 q 310 1231 310 1207 l 407 1231 q 381 1125 407 1161 q 304 1089 354 1089 z "},"J":{"ha":369,"x_min":-18,"x_max":261,"o":"m -18 -108 q 80 -78 50 -108 q 110 21 110 -49 l 110 972 l 261 972 l 261 -14 q 206 -185 261 -131 q 40 -239 150 -239 l -1 -239 l -18 -108 z "},"Ĵ":{"ha":369,"x_min":-18,"x_max":365,"o":"m -18 -108 q 80 -78 50 -108 q 110 21 110 -49 l 110 972 l 261 972 l 261 -14 q 206 -185 261 -131 q 40 -239 150 -239 l -1 -239 l -18 -108 m 365 1133 l 365 1042 l 186 1136 l 7 1042 l 7 1133 l 186 1260 l 365 1133 z "},"K":{"ha":822,"x_min":110,"x_max":817,"o":"m 110 972 l 261 972 l 261 0 l 110 0 l 110 972 m 275 515 l 635 972 l 815 972 l 449 517 l 817 0 l 635 0 l 275 515 z "},"Ķ":{"ha":822,"x_min":110,"x_max":817,"o":"m 110 972 l 261 972 l 261 0 l 110 0 l 110 972 m 275 515 l 635 972 l 815 972 l 449 517 l 817 0 l 635 0 l 275 515 m 386 -428 l 438 -278 l 382 -278 l 382 -126 l 540 -126 l 540 -262 l 463 -428 l 386 -428 z "},"L":{"ha":696,"x_min":110,"x_max":688,"o":"m 110 972 l 261 972 l 261 136 l 688 136 l 688 0 l 110 0 l 110 972 z "},"Ǉ":{"ha":1065,"x_min":110,"x_max":957,"o":"m 110 972 l 261 972 l 261 136 l 688 136 l 688 0 l 110 0 l 110 972 m 678 -108 q 776 -78 746 -108 q 806 21 806 -49 l 806 972 l 957 972 l 957 -14 q 901 -185 957 -131 q 736 -239 846 -239 l 694 -239 l 678 -108 z "},"Ĺ":{"ha":696,"x_min":54,"x_max":688,"o":"m 110 972 l 261 972 l 261 136 l 688 136 l 688 0 l 110 0 l 110 972 m 54 1146 l 319 1278 l 319 1139 l 54 1058 l 54 1146 z "},"Ľ":{"ha":696,"x_min":110,"x_max":688,"o":"m 110 972 l 261 972 l 261 136 l 688 136 l 688 0 l 110 0 l 110 972 m 554 972 l 688 972 l 649 735 l 554 735 l 554 972 z "},"Ļ":{"ha":696,"x_min":110,"x_max":688,"o":"m 110 972 l 261 972 l 261 136 l 688 136 l 688 0 l 110 0 l 110 972 m 325 -428 l 376 -278 l 321 -278 l 321 -126 l 479 -126 l 479 -262 l 401 -428 l 325 -428 z "},"Ŀ":{"ha":696,"x_min":110,"x_max":688,"o":"m 110 972 l 261 972 l 261 136 l 688 136 l 688 0 l 110 0 l 110 972 m 456 617 l 611 617 l 611 458 l 456 458 l 456 617 z "},"Ḷ":{"ha":696,"x_min":110,"x_max":688,"o":"m 110 972 l 261 972 l 261 136 l 688 136 l 688 0 l 110 0 l 110 972 m 329 -112 l 468 -112 l 468 -242 l 329 -242 l 329 -112 z "},"ǈ":{"ha":1007,"x_min":110,"x_max":924,"o":"m 110 972 l 261 972 l 261 136 l 688 136 l 688 0 l 110 0 l 110 972 m 779 972 l 924 972 l 924 819 l 779 819 l 779 972 m 685 -221 q 743 -208 724 -218 q 771 -171 763 -197 q 779 -93 779 -144 l 779 686 l 924 686 l 924 -151 q 746 -332 924 -321 l 700 -336 l 685 -221 z "},"Ḻ":{"ha":696,"x_min":110,"x_max":688,"o":"m 110 972 l 261 972 l 261 136 l 688 136 l 688 0 l 110 0 l 110 972 m 174 -126 l 624 -126 l 624 -231 l 174 -231 l 174 -126 z "},"Ł":{"ha":696,"x_min":15,"x_max":688,"o":"m 688 142 l 688 0 l 110 0 l 110 522 l 15 497 l 15 610 l 110 635 l 110 972 l 261 972 l 261 675 l 550 751 l 550 639 l 261 563 l 261 142 l 688 142 z "},"M":{"ha":1140,"x_min":64,"x_max":1076,"o":"m 197 972 l 324 972 l 571 507 l 817 972 l 944 972 l 1076 0 l 918 0 l 829 700 l 572 219 l 311 699 l 222 0 l 64 0 l 197 972 z "},"Ṃ":{"ha":1140,"x_min":64,"x_max":1076,"o":"m 197 972 l 324 972 l 571 507 l 817 972 l 944 972 l 1076 0 l 918 0 l 829 700 l 572 219 l 311 699 l 222 0 l 64 0 l 197 972 m 501 -112 l 640 -112 l 640 -242 l 501 -242 l 501 -112 z "},"N":{"ha":979,"x_min":110,"x_max":871,"o":"m 110 972 l 265 972 l 718 288 l 718 972 l 871 972 l 871 0 l 743 0 l 261 725 l 261 0 l 110 0 l 110 972 z "},"Ǌ":{"ha":1349,"x_min":110,"x_max":1240,"o":"m 110 972 l 265 972 l 718 288 l 718 972 l 871 972 l 871 0 l 743 0 l 261 725 l 261 0 l 110 0 l 110 972 m 961 -108 q 1059 -78 1029 -108 q 1089 21 1089 -49 l 1089 972 l 1240 972 l 1240 -14 q 1185 -185 1240 -131 q 1019 -239 1129 -239 l 978 -239 l 961 -108 z "},"Ń":{"ha":979,"x_min":110,"x_max":871,"o":"m 110 972 l 265 972 l 718 288 l 718 972 l 871 972 l 871 0 l 743 0 l 261 725 l 261 0 l 110 0 l 110 972 m 361 1146 l 626 1278 l 626 1139 l 361 1058 l 361 1146 z "},"Ň":{"ha":979,"x_min":110,"x_max":871,"o":"m 110 972 l 265 972 l 718 288 l 718 972 l 871 972 l 871 0 l 743 0 l 261 725 l 261 0 l 110 0 l 110 972 m 314 1206 l 314 1297 l 493 1203 l 672 1297 l 672 1206 l 493 1079 l 314 1206 z "},"Ņ":{"ha":979,"x_min":110,"x_max":871,"o":"m 110 972 l 265 972 l 718 288 l 718 972 l 871 972 l 871 0 l 743 0 l 261 725 l 261 0 l 110 0 l 110 972 m 429 -428 l 481 -278 l 425 -278 l 425 -126 l 583 -126 l 583 -262 l 506 -428 l 429 -428 z "},"Ṅ":{"ha":979,"x_min":110,"x_max":871,"o":"m 110 972 l 265 972 l 718 288 l 718 972 l 871 972 l 871 0 l 743 0 l 261 725 l 261 0 l 110 0 l 110 972 m 424 1229 l 563 1229 l 563 1100 l 424 1100 l 424 1229 z "},"Ṇ":{"ha":979,"x_min":110,"x_max":871,"o":"m 110 972 l 265 972 l 718 288 l 718 972 l 871 972 l 871 0 l 743 0 l 261 725 l 261 0 l 110 0 l 110 972 m 433 -112 l 572 -112 l 572 -242 l 433 -242 l 433 -112 z "},"Ŋ":{"ha":992,"x_min":110,"x_max":899,"o":"m 899 69 q 807 -183 899 -97 q 563 -268 715 -268 q 447 -253 504 -268 l 465 -117 q 568 -128 518 -128 q 699 -81 651 -128 q 747 57 747 -33 l 747 594 q 686 784 747 718 q 507 850 625 850 q 363 824 425 850 q 261 750 300 797 l 261 0 l 110 0 l 110 972 l 239 972 l 247 879 q 379 963 303 933 q 542 992 456 992 q 808 890 717 992 q 899 614 899 789 l 899 69 z "},"ǋ":{"ha":1278,"x_min":110,"x_max":1194,"o":"m 110 972 l 265 972 l 718 288 l 718 972 l 871 972 l 871 0 l 743 0 l 261 725 l 261 0 l 110 0 l 110 972 m 1050 972 l 1194 972 l 1194 819 l 1050 819 l 1050 972 m 956 -221 q 1014 -208 994 -218 q 1042 -171 1033 -197 q 1050 -93 1050 -144 l 1050 686 l 1194 686 l 1194 -151 q 1017 -332 1194 -321 l 971 -336 l 956 -221 z "},"Ṉ":{"ha":979,"x_min":110,"x_max":871,"o":"m 110 972 l 265 972 l 718 288 l 718 972 l 871 972 l 871 0 l 743 0 l 261 725 l 261 0 l 110 0 l 110 972 m 278 -126 l 728 -126 l 728 -231 l 278 -231 l 278 -126 z "},"Ñ":{"ha":979,"x_min":110,"x_max":871,"o":"m 110 972 l 265 972 l 718 288 l 718 972 l 871 972 l 871 0 l 743 0 l 261 725 l 261 0 l 110 0 l 110 972 m 611 1089 q 564 1097 589 1089 q 504 1119 539 1104 q 417 1146 443 1146 q 382 1133 394 1146 q 369 1096 369 1119 l 272 1096 q 299 1202 272 1165 q 375 1239 325 1239 q 420 1231 397 1239 q 482 1207 443 1224 q 519 1192 489 1204 q 569 1181 549 1181 q 604 1194 592 1181 q 617 1231 617 1207 l 714 1231 q 688 1125 714 1161 q 611 1089 661 1089 z "},"O":{"ha":1064,"x_min":53,"x_max":1011,"o":"m 532 -19 q 285 43 393 -19 q 115 220 176 106 q 53 486 53 335 q 115 752 53 638 q 285 929 176 867 q 532 992 393 992 q 779 929 671 992 q 949 752 888 867 q 1011 486 1011 638 q 949 220 1011 335 q 779 43 888 106 q 532 -19 671 -19 m 532 128 q 706 174 635 128 q 814 302 778 221 q 850 486 850 383 q 814 670 850 589 q 706 798 778 751 q 532 844 635 844 q 358 798 429 844 q 249 670 286 751 q 213 486 213 589 q 249 302 213 383 q 358 174 286 221 q 532 128 429 128 z "},"Ó":{"ha":1064,"x_min":53,"x_max":1011,"o":"m 532 -19 q 285 43 393 -19 q 115 220 176 106 q 53 486 53 335 q 115 752 53 638 q 285 929 176 867 q 532 992 393 992 q 779 929 671 992 q 949 752 888 867 q 1011 486 1011 638 q 949 220 1011 335 q 779 43 888 106 q 532 -19 671 -19 m 532 128 q 706 174 635 128 q 814 302 778 221 q 850 486 850 383 q 814 670 850 589 q 706 798 778 751 q 532 844 635 844 q 358 798 429 844 q 249 670 286 751 q 213 486 213 589 q 249 302 213 383 q 358 174 286 221 q 532 128 429 128 m 400 1146 l 665 1278 l 665 1139 l 400 1058 l 400 1146 z "},"Ŏ":{"ha":1064,"x_min":53,"x_max":1011,"o":"m 532 -19 q 285 43 393 -19 q 115 220 176 106 q 53 486 53 335 q 115 752 53 638 q 285 929 176 867 q 532 992 393 992 q 779 929 671 992 q 949 752 888 867 q 1011 486 1011 638 q 949 220 1011 335 q 779 43 888 106 q 532 -19 671 -19 m 532 128 q 706 174 635 128 q 814 302 778 221 q 850 486 850 383 q 814 670 850 589 q 706 798 778 751 q 532 844 635 844 q 358 798 429 844 q 249 670 286 751 q 213 486 213 589 q 249 302 213 383 q 358 174 286 221 q 532 128 429 128 m 532 1063 q 380 1113 435 1063 q 325 1236 325 1163 l 439 1236 q 465 1174 439 1196 q 532 1151 490 1151 q 599 1174 574 1151 q 625 1236 625 1196 l 739 1236 q 684 1113 739 1163 q 532 1063 629 1063 z "},"Ô":{"ha":1064,"x_min":53,"x_max":1011,"o":"m 532 -19 q 285 43 393 -19 q 115 220 176 106 q 53 486 53 335 q 115 752 53 638 q 285 929 176 867 q 532 992 393 992 q 779 929 671 992 q 949 752 888 867 q 1011 486 1011 638 q 949 220 1011 335 q 779 43 888 106 q 532 -19 671 -19 m 532 128 q 706 174 635 128 q 814 302 778 221 q 850 486 850 383 q 814 670 850 589 q 706 798 778 751 q 532 844 635 844 q 358 798 429 844 q 249 670 286 751 q 213 486 213 589 q 249 302 213 383 q 358 174 286 221 q 532 128 429 128 m 711 1133 l 711 1042 l 532 1136 l 353 1042 l 353 1133 l 532 1260 l 711 1133 z "},"Ố":{"ha":1064,"x_min":53,"x_max":1011,"o":"m 532 -19 q 285 43 393 -19 q 115 220 176 106 q 53 486 53 335 q 115 752 53 638 q 285 929 176 867 q 532 992 393 992 q 779 929 671 992 q 949 752 888 867 q 1011 486 1011 638 q 949 220 1011 335 q 779 43 888 106 q 532 -19 671 -19 m 532 128 q 706 174 635 128 q 814 302 778 221 q 850 486 850 383 q 814 670 850 589 q 706 798 778 751 q 532 844 635 844 q 358 798 429 844 q 249 670 286 751 q 213 486 213 589 q 249 302 213 383 q 358 174 286 221 q 532 128 429 128 m 728 1421 l 875 1421 l 736 1253 l 636 1253 l 728 1421 m 711 1139 l 711 1047 l 532 1142 l 353 1047 l 353 1139 l 532 1265 l 711 1139 z "},"Ộ":{"ha":1064,"x_min":53,"x_max":1011,"o":"m 532 -19 q 285 43 393 -19 q 115 220 176 106 q 53 486 53 335 q 115 752 53 638 q 285 929 176 867 q 532 992 393 992 q 779 929 671 992 q 949 752 888 867 q 1011 486 1011 638 q 949 220 1011 335 q 779 43 888 106 q 532 -19 671 -19 m 532 128 q 706 174 635 128 q 814 302 778 221 q 850 486 850 383 q 814 670 850 589 q 706 798 778 751 q 532 844 635 844 q 358 798 429 844 q 249 670 286 751 q 213 486 213 589 q 249 302 213 383 q 358 174 286 221 q 532 128 429 128 m 353 1158 l 532 1313 l 711 1158 l 711 1064 l 532 1176 l 353 1064 l 353 1158 m 463 -112 l 601 -112 l 601 -242 l 463 -242 l 463 -112 z "},"Ồ":{"ha":1064,"x_min":53,"x_max":1011,"o":"m 532 -19 q 285 43 393 -19 q 115 220 176 106 q 53 486 53 335 q 115 752 53 638 q 285 929 176 867 q 532 992 393 992 q 779 929 671 992 q 949 752 888 867 q 1011 486 1011 638 q 949 220 1011 335 q 779 43 888 106 q 532 -19 671 -19 m 532 128 q 706 174 635 128 q 814 302 778 221 q 850 486 850 383 q 814 670 850 589 q 706 798 778 751 q 532 844 635 844 q 358 798 429 844 q 249 670 286 751 q 213 486 213 589 q 249 302 213 383 q 358 174 286 221 q 532 128 429 128 m 661 1253 l 543 1421 l 682 1421 l 757 1253 l 661 1253 m 711 1139 l 711 1047 l 532 1142 l 353 1047 l 353 1139 l 532 1265 l 711 1139 z "},"Ổ":{"ha":1064,"x_min":53,"x_max":1011,"o":"m 532 -19 q 285 43 393 -19 q 115 220 176 106 q 53 486 53 335 q 115 752 53 638 q 285 929 176 867 q 532 992 393 992 q 779 929 671 992 q 949 752 888 867 q 1011 486 1011 638 q 949 220 1011 335 q 779 43 888 106 q 532 -19 671 -19 m 532 128 q 706 174 635 128 q 814 302 778 221 q 850 486 850 383 q 814 670 850 589 q 706 798 778 751 q 532 844 635 844 q 358 798 429 844 q 249 670 286 751 q 213 486 213 589 q 249 302 213 383 q 358 174 286 221 q 532 128 429 128 m 711 1133 l 711 1042 l 532 1136 l 353 1042 l 353 1133 l 532 1260 l 711 1133 m 651 1269 q 701 1321 701 1285 q 647 1363 701 1363 q 561 1336 610 1363 l 538 1413 q 649 1439 588 1439 q 747 1410 708 1439 q 786 1329 786 1381 q 757 1253 786 1282 q 665 1211 728 1225 l 651 1269 z "},"Ỗ":{"ha":1064,"x_min":53,"x_max":1011,"o":"m 532 -19 q 285 43 393 -19 q 115 220 176 106 q 53 486 53 335 q 115 752 53 638 q 285 929 176 867 q 532 992 393 992 q 779 929 671 992 q 949 752 888 867 q 1011 486 1011 638 q 949 220 1011 335 q 779 43 888 106 q 532 -19 671 -19 m 532 128 q 706 174 635 128 q 814 302 778 221 q 850 486 850 383 q 814 670 850 589 q 706 798 778 751 q 532 844 635 844 q 358 798 429 844 q 249 670 286 751 q 213 486 213 589 q 249 302 213 383 q 358 174 286 221 q 532 128 429 128 m 711 1133 l 711 1042 l 532 1136 l 353 1042 l 353 1133 l 532 1260 l 711 1133 m 650 1315 q 603 1323 628 1315 q 543 1346 578 1331 q 456 1372 482 1372 q 421 1359 433 1372 q 408 1322 408 1346 l 311 1322 q 338 1428 311 1392 q 414 1465 364 1465 q 459 1458 436 1465 q 521 1433 482 1450 q 558 1419 528 1431 q 608 1407 588 1407 q 643 1420 631 1407 q 656 1457 656 1433 l 753 1457 q 726 1351 753 1388 q 650 1315 700 1315 z "},"Ȍ":{"ha":1064,"x_min":53,"x_max":1011,"o":"m 532 -19 q 285 43 393 -19 q 115 220 176 106 q 53 486 53 335 q 115 752 53 638 q 285 929 176 867 q 532 992 393 992 q 779 929 671 992 q 949 752 888 867 q 1011 486 1011 638 q 949 220 1011 335 q 779 43 888 106 q 532 -19 671 -19 m 532 128 q 706 174 635 128 q 814 302 778 221 q 850 486 850 383 q 814 670 850 589 q 706 798 778 751 q 532 844 635 844 q 358 798 429 844 q 249 670 286 751 q 213 486 213 589 q 249 302 213 383 q 358 174 286 221 q 532 128 429 128 m 383 1094 l 249 1304 l 394 1304 l 482 1094 l 383 1094 m 582 1094 l 456 1304 l 601 1304 l 681 1094 l 582 1094 z "},"Ö":{"ha":1064,"x_min":53,"x_max":1011,"o":"m 532 -19 q 285 43 393 -19 q 115 220 176 106 q 53 486 53 335 q 115 752 53 638 q 285 929 176 867 q 532 992 393 992 q 779 929 671 992 q 949 752 888 867 q 1011 486 1011 638 q 949 220 1011 335 q 779 43 888 106 q 532 -19 671 -19 m 532 128 q 706 174 635 128 q 814 302 778 221 q 850 486 850 383 q 814 670 850 589 q 706 798 778 751 q 532 844 635 844 q 358 798 429 844 q 249 670 286 751 q 213 486 213 589 q 249 302 213 383 q 358 174 286 221 q 532 128 429 128 m 333 1207 l 458 1207 l 458 1097 l 333 1097 l 333 1207 m 606 1207 l 731 1207 l 731 1097 l 606 1097 l 606 1207 z "},"Ȫ":{"ha":1064,"x_min":53,"x_max":1011,"o":"m 532 -19 q 285 43 393 -19 q 115 220 176 106 q 53 486 53 335 q 115 752 53 638 q 285 929 176 867 q 532 992 393 992 q 779 929 671 992 q 949 752 888 867 q 1011 486 1011 638 q 949 220 1011 335 q 779 43 888 106 q 532 -19 671 -19 m 532 128 q 706 174 635 128 q 814 302 778 221 q 850 486 850 383 q 814 670 850 589 q 706 798 778 751 q 532 844 635 844 q 358 798 429 844 q 249 670 286 751 q 213 486 213 589 q 249 302 213 383 q 358 174 286 221 q 532 128 429 128 m 333 1207 l 458 1207 l 458 1097 l 333 1097 l 333 1207 m 606 1207 l 731 1207 l 731 1097 l 606 1097 l 606 1207 m 307 1418 l 757 1418 l 757 1318 l 307 1318 l 307 1418 z "},"Ȱ":{"ha":1064,"x_min":53,"x_max":1011,"o":"m 532 -19 q 285 43 393 -19 q 115 220 176 106 q 53 486 53 335 q 115 752 53 638 q 285 929 176 867 q 532 992 393 992 q 779 929 671 992 q 949 752 888 867 q 1011 486 1011 638 q 949 220 1011 335 q 779 43 888 106 q 532 -19 671 -19 m 532 128 q 706 174 635 128 q 814 302 778 221 q 850 486 850 383 q 814 670 850 589 q 706 798 778 751 q 532 844 635 844 q 358 798 429 844 q 249 670 286 751 q 213 486 213 589 q 249 302 213 383 q 358 174 286 221 q 532 128 429 128 m 463 1229 l 601 1229 l 601 1100 l 463 1100 l 463 1229 m 307 1440 l 757 1440 l 757 1340 l 307 1340 l 307 1440 z "},"Ọ":{"ha":1064,"x_min":53,"x_max":1011,"o":"m 532 -19 q 285 43 393 -19 q 115 220 176 106 q 53 486 53 335 q 115 752 53 638 q 285 929 176 867 q 532 992 393 992 q 779 929 671 992 q 949 752 888 867 q 1011 486 1011 638 q 949 220 1011 335 q 779 43 888 106 q 532 -19 671 -19 m 532 128 q 706 174 635 128 q 814 302 778 221 q 850 486 850 383 q 814 670 850 589 q 706 798 778 751 q 532 844 635 844 q 358 798 429 844 q 249 670 286 751 q 213 486 213 589 q 249 302 213 383 q 358 174 286 221 q 532 128 429 128 m 463 -112 l 601 -112 l 601 -242 l 463 -242 l 463 -112 z "},"Ò":{"ha":1064,"x_min":53,"x_max":1011,"o":"m 532 -19 q 285 43 393 -19 q 115 220 176 106 q 53 486 53 335 q 115 752 53 638 q 285 929 176 867 q 532 992 393 992 q 779 929 671 992 q 949 752 888 867 q 1011 486 1011 638 q 949 220 1011 335 q 779 43 888 106 q 532 -19 671 -19 m 532 128 q 706 174 635 128 q 814 302 778 221 q 850 486 850 383 q 814 670 850 589 q 706 798 778 751 q 532 844 635 844 q 358 798 429 844 q 249 670 286 751 q 213 486 213 589 q 249 302 213 383 q 358 174 286 221 q 532 128 429 128 m 399 1139 l 399 1278 l 664 1146 l 664 1058 l 399 1139 z "},"Ỏ":{"ha":1064,"x_min":53,"x_max":1011,"o":"m 532 -19 q 285 43 393 -19 q 115 220 176 106 q 53 486 53 335 q 115 752 53 638 q 285 929 176 867 q 532 992 393 992 q 779 929 671 992 q 949 752 888 867 q 1011 486 1011 638 q 949 220 1011 335 q 779 43 888 106 q 532 -19 671 -19 m 532 128 q 706 174 635 128 q 814 302 778 221 q 850 486 850 383 q 814 670 850 589 q 706 798 778 751 q 532 844 635 844 q 358 798 429 844 q 249 670 286 751 q 213 486 213 589 q 249 302 213 383 q 358 174 286 221 q 532 128 429 128 m 514 1114 q 564 1165 564 1129 q 510 1207 564 1207 q 424 1181 472 1207 l 400 1257 q 511 1283 450 1283 q 610 1254 571 1283 q 649 1174 649 1225 q 619 1098 649 1126 q 528 1056 590 1069 l 514 1114 z "},"Ơ":{"ha":1064,"x_min":53,"x_max":1011,"o":"m 811 908 q 958 734 906 843 q 1011 486 1011 625 q 949 220 1011 335 q 779 43 888 106 q 532 -19 671 -19 q 285 43 393 -19 q 115 220 176 106 q 53 486 53 335 q 115 752 53 638 q 285 929 176 867 q 532 992 393 992 q 676 972 606 992 q 779 1075 779 976 l 910 1075 q 883 981 910 1024 q 811 908 857 938 m 532 128 q 706 174 635 128 q 814 302 778 221 q 850 486 850 383 q 814 670 850 589 q 706 798 778 751 q 532 844 635 844 q 358 798 429 844 q 249 670 286 751 q 213 486 213 589 q 249 302 213 383 q 358 174 286 221 q 532 128 429 128 z "},"Ớ":{"ha":1064,"x_min":53,"x_max":1011,"o":"m 811 908 q 958 734 906 843 q 1011 486 1011 625 q 949 220 1011 335 q 779 43 888 106 q 532 -19 671 -19 q 285 43 393 -19 q 115 220 176 106 q 53 486 53 335 q 115 752 53 638 q 285 929 176 867 q 532 992 393 992 q 676 972 606 992 q 779 1075 779 976 l 910 1075 q 883 981 910 1024 q 811 908 857 938 m 532 128 q 706 174 635 128 q 814 302 778 221 q 850 486 850 383 q 814 670 850 589 q 706 798 778 751 q 532 844 635 844 q 358 798 429 844 q 249 670 286 751 q 213 486 213 589 q 249 302 213 383 q 358 174 286 221 q 532 128 429 128 m 400 1178 l 665 1332 l 665 1186 l 400 1082 l 400 1178 z "},"Ợ":{"ha":1064,"x_min":53,"x_max":1011,"o":"m 811 908 q 958 734 906 843 q 1011 486 1011 625 q 949 220 1011 335 q 779 43 888 106 q 532 -19 671 -19 q 285 43 393 -19 q 115 220 176 106 q 53 486 53 335 q 115 752 53 638 q 285 929 176 867 q 532 992 393 992 q 676 972 606 992 q 779 1075 779 976 l 910 1075 q 883 981 910 1024 q 811 908 857 938 m 532 128 q 706 174 635 128 q 814 302 778 221 q 850 486 850 383 q 814 670 850 589 q 706 798 778 751 q 532 844 635 844 q 358 798 429 844 q 249 670 286 751 q 213 486 213 589 q 249 302 213 383 q 358 174 286 221 q 532 128 429 128 m 463 -112 l 601 -112 l 601 -242 l 463 -242 l 463 -112 z "},"Ờ":{"ha":1064,"x_min":53,"x_max":1011,"o":"m 811 908 q 958 734 906 843 q 1011 486 1011 625 q 949 220 1011 335 q 779 43 888 106 q 532 -19 671 -19 q 285 43 393 -19 q 115 220 176 106 q 53 486 53 335 q 115 752 53 638 q 285 929 176 867 q 532 992 393 992 q 676 972 606 992 q 779 1075 779 976 l 910 1075 q 883 981 910 1024 q 811 908 857 938 m 532 128 q 706 174 635 128 q 814 302 778 221 q 850 486 850 383 q 814 670 850 589 q 706 798 778 751 q 532 844 635 844 q 358 798 429 844 q 249 670 286 751 q 213 486 213 589 q 249 302 213 383 q 358 174 286 221 q 532 128 429 128 m 399 1186 l 399 1332 l 664 1178 l 664 1082 l 399 1186 z "},"Ở":{"ha":1064,"x_min":53,"x_max":1011,"o":"m 811 908 q 958 734 906 843 q 1011 486 1011 625 q 949 220 1011 335 q 779 43 888 106 q 532 -19 671 -19 q 285 43 393 -19 q 115 220 176 106 q 53 486 53 335 q 115 752 53 638 q 285 929 176 867 q 532 992 393 992 q 676 972 606 992 q 779 1075 779 976 l 910 1075 q 883 981 910 1024 q 811 908 857 938 m 532 128 q 706 174 635 128 q 814 302 778 221 q 850 486 850 383 q 814 670 850 589 q 706 798 778 751 q 532 844 635 844 q 358 798 429 844 q 249 670 286 751 q 213 486 213 589 q 249 302 213 383 q 358 174 286 221 q 532 128 429 128 m 514 1114 q 564 1165 564 1129 q 510 1207 564 1207 q 424 1181 472 1207 l 400 1257 q 511 1283 450 1283 q 610 1254 571 1283 q 649 1174 649 1225 q 619 1098 649 1126 q 528 1056 590 1069 l 514 1114 z "},"Ỡ":{"ha":1064,"x_min":53,"x_max":1011,"o":"m 811 908 q 958 734 906 843 q 1011 486 1011 625 q 949 220 1011 335 q 779 43 888 106 q 532 -19 671 -19 q 285 43 393 -19 q 115 220 176 106 q 53 486 53 335 q 115 752 53 638 q 285 929 176 867 q 532 992 393 992 q 676 972 606 992 q 779 1075 779 976 l 910 1075 q 883 981 910 1024 q 811 908 857 938 m 532 128 q 706 174 635 128 q 814 302 778 221 q 850 486 850 383 q 814 670 850 589 q 706 798 778 751 q 532 844 635 844 q 358 798 429 844 q 249 670 286 751 q 213 486 213 589 q 249 302 213 383 q 358 174 286 221 q 532 128 429 128 m 646 1090 q 599 1099 622 1090 q 543 1125 575 1108 q 519 1137 538 1128 q 484 1150 500 1146 q 456 1154 468 1154 q 421 1140 433 1154 q 408 1101 408 1125 l 299 1101 q 332 1220 301 1179 q 418 1261 363 1261 q 466 1252 442 1261 q 521 1228 490 1243 q 570 1206 550 1214 q 608 1199 590 1199 q 643 1213 631 1199 q 656 1250 656 1226 l 765 1250 q 732 1131 763 1172 q 646 1090 701 1090 z "},"Ő":{"ha":1064,"x_min":53,"x_max":1011,"o":"m 532 -19 q 285 43 393 -19 q 115 220 176 106 q 53 486 53 335 q 115 752 53 638 q 285 929 176 867 q 532 992 393 992 q 779 929 671 992 q 949 752 888 867 q 1011 486 1011 638 q 949 220 1011 335 q 779 43 888 106 q 532 -19 671 -19 m 532 128 q 706 174 635 128 q 814 302 778 221 q 850 486 850 383 q 814 670 850 589 q 706 798 778 751 q 532 844 635 844 q 358 798 429 844 q 249 670 286 751 q 213 486 213 589 q 249 302 213 383 q 358 174 286 221 q 532 128 429 128 m 472 1304 l 618 1304 l 479 1094 l 381 1094 l 472 1304 m 679 1304 l 825 1304 l 678 1094 l 579 1094 l 679 1304 z "},"Ȏ":{"ha":1064,"x_min":53,"x_max":1011,"o":"m 532 -19 q 285 43 393 -19 q 115 220 176 106 q 53 486 53 335 q 115 752 53 638 q 285 929 176 867 q 532 992 393 992 q 779 929 671 992 q 949 752 888 867 q 1011 486 1011 638 q 949 220 1011 335 q 779 43 888 106 q 532 -19 671 -19 m 532 128 q 706 174 635 128 q 814 302 778 221 q 850 486 850 383 q 814 670 850 589 q 706 798 778 751 q 532 844 635 844 q 358 798 429 844 q 249 670 286 751 q 213 486 213 589 q 249 302 213 383 q 358 174 286 221 q 532 128 429 128 m 532 1257 q 684 1207 629 1257 q 739 1083 739 1157 l 625 1083 q 599 1145 625 1124 q 532 1167 574 1167 q 465 1145 490 1167 q 439 1083 439 1124 l 325 1083 q 380 1207 325 1157 q 532 1257 435 1257 z "},"Ō":{"ha":1064,"x_min":53,"x_max":1011,"o":"m 532 -19 q 285 43 393 -19 q 115 220 176 106 q 53 486 53 335 q 115 752 53 638 q 285 929 176 867 q 532 992 393 992 q 779 929 671 992 q 949 752 888 867 q 1011 486 1011 638 q 949 220 1011 335 q 779 43 888 106 q 532 -19 671 -19 m 532 128 q 706 174 635 128 q 814 302 778 221 q 850 486 850 383 q 814 670 850 589 q 706 798 778 751 q 532 844 635 844 q 358 798 429 844 q 249 670 286 751 q 213 486 213 589 q 249 302 213 383 q 358 174 286 221 q 532 128 429 128 m 307 1201 l 757 1201 l 757 1101 l 307 1101 l 307 1201 z "},"Ṓ":{"ha":1064,"x_min":53,"x_max":1011,"o":"m 532 -19 q 285 43 393 -19 q 115 220 176 106 q 53 486 53 335 q 115 752 53 638 q 285 929 176 867 q 532 992 393 992 q 779 929 671 992 q 949 752 888 867 q 1011 486 1011 638 q 949 220 1011 335 q 779 43 888 106 q 532 -19 671 -19 m 532 128 q 706 174 635 128 q 814 302 778 221 q 850 486 850 383 q 814 670 850 589 q 706 798 778 751 q 532 844 635 844 q 358 798 429 844 q 249 670 286 751 q 213 486 213 589 q 249 302 213 383 q 358 174 286 221 q 532 128 429 128 m 307 1201 l 757 1201 l 757 1101 l 307 1101 l 307 1201 m 400 1385 l 665 1517 l 665 1378 l 400 1297 l 400 1385 z "},"Ṑ":{"ha":1064,"x_min":53,"x_max":1011,"o":"m 532 -19 q 285 43 393 -19 q 115 220 176 106 q 53 486 53 335 q 115 752 53 638 q 285 929 176 867 q 532 992 393 992 q 779 929 671 992 q 949 752 888 867 q 1011 486 1011 638 q 949 220 1011 335 q 779 43 888 106 q 532 -19 671 -19 m 532 128 q 706 174 635 128 q 814 302 778 221 q 850 486 850 383 q 814 670 850 589 q 706 798 778 751 q 532 844 635 844 q 358 798 429 844 q 249 670 286 751 q 213 486 213 589 q 249 302 213 383 q 358 174 286 221 q 532 128 429 128 m 307 1201 l 757 1201 l 757 1101 l 307 1101 l 307 1201 m 399 1378 l 399 1517 l 664 1385 l 664 1297 l 399 1378 z "},"Ǫ":{"ha":1064,"x_min":53,"x_max":1011,"o":"m 642 -8 q 569 -80 594 -47 q 544 -146 544 -112 q 563 -197 544 -179 q 611 -214 581 -214 q 697 -192 653 -214 l 719 -264 q 601 -290 667 -290 q 501 -258 540 -290 q 461 -169 461 -226 q 485 -87 461 -126 q 546 -19 510 -49 l 532 -19 q 285 43 393 -19 q 115 220 176 106 q 53 486 53 335 q 115 752 53 638 q 285 929 176 867 q 532 992 393 992 q 779 929 671 992 q 949 752 888 867 q 1011 486 1011 638 q 965 252 1011 356 q 835 82 918 149 q 642 -8 751 15 m 213 486 q 249 302 213 383 q 358 174 286 221 q 532 128 429 128 q 706 174 635 128 q 814 302 778 221 q 850 486 850 383 q 814 670 850 589 q 706 798 778 751 q 532 844 635 844 q 358 798 429 844 q 249 670 286 751 q 213 486 213 589 z "},"Ø":{"ha":1064,"x_min":53,"x_max":1011,"o":"m 860 869 q 972 703 932 801 q 1011 486 1011 606 q 949 220 1011 335 q 779 43 888 106 q 532 -19 671 -19 q 292 39 400 -19 l 224 -61 l 92 -61 l 204 103 q 92 269 132 171 q 53 486 53 367 q 115 752 53 638 q 285 929 176 867 q 532 992 393 992 q 771 933 663 992 l 839 1033 l 972 1033 l 860 869 m 213 486 q 233 344 213 410 q 292 232 253 279 l 686 810 q 532 844 619 844 q 358 798 429 844 q 249 670 286 751 q 213 486 213 589 m 532 128 q 706 174 635 128 q 814 302 778 221 q 850 486 850 383 q 771 740 850 643 l 376 163 q 532 128 446 128 z "},"Ǿ":{"ha":1064,"x_min":53,"x_max":1011,"o":"m 860 869 q 972 703 932 801 q 1011 486 1011 606 q 949 220 1011 335 q 779 43 888 106 q 532 -19 671 -19 q 292 39 400 -19 l 224 -61 l 92 -61 l 204 103 q 92 269 132 171 q 53 486 53 367 q 115 752 53 638 q 285 929 176 867 q 532 992 393 992 q 771 933 663 992 l 839 1033 l 972 1033 l 860 869 m 213 486 q 233 344 213 410 q 292 232 253 279 l 686 810 q 532 844 619 844 q 358 798 429 844 q 249 670 286 751 q 213 486 213 589 m 532 128 q 706 174 635 128 q 814 302 778 221 q 850 486 850 383 q 771 740 850 643 l 376 163 q 532 128 446 128 m 399 1178 l 664 1332 l 664 1186 l 399 1082 l 399 1178 z "},"Õ":{"ha":1064,"x_min":53,"x_max":1011,"o":"m 532 -19 q 285 43 393 -19 q 115 220 176 106 q 53 486 53 335 q 115 752 53 638 q 285 929 176 867 q 532 992 393 992 q 779 929 671 992 q 949 752 888 867 q 1011 486 1011 638 q 949 220 1011 335 q 779 43 888 106 q 532 -19 671 -19 m 532 128 q 706 174 635 128 q 814 302 778 221 q 850 486 850 383 q 814 670 850 589 q 706 798 778 751 q 532 844 635 844 q 358 798 429 844 q 249 670 286 751 q 213 486 213 589 q 249 302 213 383 q 358 174 286 221 q 532 128 429 128 m 650 1089 q 603 1097 628 1089 q 543 1119 578 1104 q 456 1146 482 1146 q 421 1133 433 1146 q 408 1096 408 1119 l 311 1096 q 338 1202 311 1165 q 414 1239 364 1239 q 459 1231 436 1239 q 521 1207 482 1224 q 558 1192 528 1204 q 608 1181 588 1181 q 643 1194 631 1181 q 656 1231 656 1207 l 753 1231 q 726 1125 753 1161 q 650 1089 700 1089 z "},"Ṍ":{"ha":1064,"x_min":53,"x_max":1011,"o":"m 532 -19 q 285 43 393 -19 q 115 220 176 106 q 53 486 53 335 q 115 752 53 638 q 285 929 176 867 q 532 992 393 992 q 779 929 671 992 q 949 752 888 867 q 1011 486 1011 638 q 949 220 1011 335 q 779 43 888 106 q 532 -19 671 -19 m 532 128 q 706 174 635 128 q 814 302 778 221 q 850 486 850 383 q 814 670 850 589 q 706 798 778 751 q 532 844 635 844 q 358 798 429 844 q 249 670 286 751 q 213 486 213 589 q 249 302 213 383 q 358 174 286 221 q 532 128 429 128 m 650 1089 q 603 1097 628 1089 q 543 1119 578 1104 q 456 1146 482 1146 q 421 1133 433 1146 q 408 1096 408 1119 l 311 1096 q 338 1202 311 1165 q 414 1239 364 1239 q 459 1231 436 1239 q 521 1207 482 1224 q 558 1192 528 1204 q 608 1181 588 1181 q 643 1194 631 1181 q 656 1231 656 1207 l 753 1231 q 726 1125 753 1161 q 650 1089 700 1089 m 400 1383 l 665 1515 l 665 1376 l 400 1296 l 400 1383 z "},"Ṏ":{"ha":1064,"x_min":53,"x_max":1011,"o":"m 532 -19 q 285 43 393 -19 q 115 220 176 106 q 53 486 53 335 q 115 752 53 638 q 285 929 176 867 q 532 992 393 992 q 779 929 671 992 q 949 752 888 867 q 1011 486 1011 638 q 949 220 1011 335 q 779 43 888 106 q 532 -19 671 -19 m 532 128 q 706 174 635 128 q 814 302 778 221 q 850 486 850 383 q 814 670 850 589 q 706 798 778 751 q 532 844 635 844 q 358 798 429 844 q 249 670 286 751 q 213 486 213 589 q 249 302 213 383 q 358 174 286 221 q 532 128 429 128 m 650 1089 q 603 1097 628 1089 q 543 1119 578 1104 q 456 1146 482 1146 q 421 1133 433 1146 q 408 1096 408 1119 l 311 1096 q 338 1202 311 1165 q 414 1239 364 1239 q 459 1231 436 1239 q 521 1207 482 1224 q 558 1192 528 1204 q 608 1181 588 1181 q 643 1194 631 1181 q 656 1231 656 1207 l 753 1231 q 726 1125 753 1161 q 650 1089 700 1089 m 333 1444 l 458 1444 l 458 1335 l 333 1335 l 333 1444 m 606 1444 l 731 1444 l 731 1335 l 606 1335 l 606 1444 z "},"Ȭ":{"ha":1064,"x_min":53,"x_max":1011,"o":"m 532 -19 q 285 43 393 -19 q 115 220 176 106 q 53 486 53 335 q 115 752 53 638 q 285 929 176 867 q 532 992 393 992 q 779 929 671 992 q 949 752 888 867 q 1011 486 1011 638 q 949 220 1011 335 q 779 43 888 106 q 532 -19 671 -19 m 532 128 q 706 174 635 128 q 814 302 778 221 q 850 486 850 383 q 814 670 850 589 q 706 798 778 751 q 532 844 635 844 q 358 798 429 844 q 249 670 286 751 q 213 486 213 589 q 249 302 213 383 q 358 174 286 221 q 532 128 429 128 m 650 1089 q 603 1097 628 1089 q 543 1119 578 1104 q 456 1146 482 1146 q 421 1133 433 1146 q 408 1096 408 1119 l 311 1096 q 338 1202 311 1165 q 414 1239 364 1239 q 459 1231 436 1239 q 521 1207 482 1224 q 558 1192 528 1204 q 608 1181 588 1181 q 643 1194 631 1181 q 656 1231 656 1207 l 753 1231 q 726 1125 753 1161 q 650 1089 700 1089 m 307 1439 l 757 1439 l 757 1339 l 307 1339 l 307 1439 z "},"Œ":{"ha":1483,"x_min":53,"x_max":1433,"o":"m 1433 142 l 1433 0 l 849 0 l 849 129 q 702 19 788 58 q 521 -19 617 -19 q 278 43 385 -19 q 113 220 172 106 q 53 486 53 335 q 113 752 53 638 q 278 929 172 867 q 521 992 385 992 q 702 953 617 992 q 849 843 788 914 l 849 971 l 1421 971 l 1421 831 l 999 831 l 999 579 l 1324 579 l 1324 438 l 999 438 l 999 142 l 1433 142 m 526 122 q 756 223 676 122 q 836 486 836 324 q 756 749 836 649 q 526 850 676 850 q 295 749 375 850 q 215 486 215 649 q 295 223 215 324 q 526 122 375 122 z "},"P":{"ha":808,"x_min":110,"x_max":776,"o":"m 110 972 l 440 972 q 776 657 776 972 q 690 417 776 496 q 443 339 603 339 l 265 339 l 265 0 l 110 0 l 110 972 m 422 469 q 572 515 522 469 q 622 656 622 561 q 574 797 622 751 q 421 842 525 842 l 265 842 l 265 469 l 422 469 z "},"Þ":{"ha":793,"x_min":110,"x_max":763,"o":"m 110 972 l 265 972 l 265 763 l 467 763 q 688 696 614 763 q 763 507 763 629 q 688 317 763 385 q 467 250 614 250 l 265 250 l 265 0 l 110 0 l 110 972 m 451 381 q 607 507 607 381 q 569 601 607 571 q 451 632 532 632 l 265 632 l 265 381 l 451 381 z "},"Q":{"ha":1064,"x_min":53,"x_max":1011,"o":"m 1011 486 q 910 158 1011 293 l 999 72 l 908 -22 l 817 67 q 532 -19 696 -19 q 285 43 393 -19 q 115 220 176 106 q 53 486 53 335 q 115 752 53 638 q 285 929 176 867 q 532 992 393 992 q 779 929 671 992 q 949 752 888 867 q 1011 486 1011 638 m 532 128 q 706 174 633 128 l 589 288 l 679 381 l 796 268 q 850 486 850 358 q 814 670 850 589 q 706 798 778 751 q 532 844 635 844 q 358 798 429 844 q 249 670 286 751 q 213 486 213 589 q 249 302 213 383 q 358 174 286 221 q 532 128 429 128 z "},"R":{"ha":851,"x_min":110,"x_max":828,"o":"m 110 972 l 442 972 q 689 899 600 972 q 778 676 778 825 q 610 406 778 486 l 828 0 l 651 0 l 458 371 l 265 371 l 265 0 l 110 0 l 110 972 m 421 503 q 570 548 521 503 q 619 672 619 593 q 571 798 619 754 q 424 842 522 842 l 265 842 l 265 503 l 421 503 z "},"Ŕ":{"ha":851,"x_min":110,"x_max":828,"o":"m 110 972 l 442 972 q 689 899 600 972 q 778 676 778 825 q 610 406 778 486 l 828 0 l 651 0 l 458 371 l 265 371 l 265 0 l 110 0 l 110 972 m 421 503 q 570 548 521 503 q 619 672 619 593 q 571 798 619 754 q 424 842 522 842 l 265 842 l 265 503 l 421 503 m 301 1146 l 567 1278 l 567 1139 l 301 1058 l 301 1146 z "},"Ř":{"ha":851,"x_min":110,"x_max":828,"o":"m 110 972 l 442 972 q 689 899 600 972 q 778 676 778 825 q 610 406 778 486 l 828 0 l 651 0 l 458 371 l 265 371 l 265 0 l 110 0 l 110 972 m 421 503 q 570 548 521 503 q 619 672 619 593 q 571 798 619 754 q 424 842 522 842 l 265 842 l 265 503 l 421 503 m 254 1206 l 254 1297 l 433 1203 l 613 1297 l 613 1206 l 433 1079 l 254 1206 z "},"Ŗ":{"ha":851,"x_min":110,"x_max":828,"o":"m 110 972 l 442 972 q 689 899 600 972 q 778 676 778 825 q 610 406 778 486 l 828 0 l 651 0 l 458 371 l 265 371 l 265 0 l 110 0 l 110 972 m 421 503 q 570 548 521 503 q 619 672 619 593 q 571 798 619 754 q 424 842 522 842 l 265 842 l 265 503 l 421 503 m 393 -428 l 444 -278 l 389 -278 l 389 -126 l 547 -126 l 547 -262 l 469 -428 l 393 -428 z "},"Ȑ":{"ha":851,"x_min":110,"x_max":828,"o":"m 110 972 l 442 972 q 689 899 600 972 q 778 676 778 825 q 610 406 778 486 l 828 0 l 651 0 l 458 371 l 265 371 l 265 0 l 110 0 l 110 972 m 421 503 q 570 548 521 503 q 619 672 619 593 q 571 798 619 754 q 424 842 522 842 l 265 842 l 265 503 l 421 503 m 285 1094 l 150 1304 l 296 1304 l 383 1094 l 285 1094 m 483 1094 l 357 1304 l 503 1304 l 582 1094 l 483 1094 z "},"Ṛ":{"ha":851,"x_min":110,"x_max":828,"o":"m 110 972 l 442 972 q 689 899 600 972 q 778 676 778 825 q 610 406 778 486 l 828 0 l 651 0 l 458 371 l 265 371 l 265 0 l 110 0 l 110 972 m 421 503 q 570 548 521 503 q 619 672 619 593 q 571 798 619 754 q 424 842 522 842 l 265 842 l 265 503 l 421 503 m 397 -112 l 536 -112 l 536 -242 l 397 -242 l 397 -112 z "},"Ȓ":{"ha":851,"x_min":110,"x_max":828,"o":"m 110 972 l 442 972 q 689 899 600 972 q 778 676 778 825 q 610 406 778 486 l 828 0 l 651 0 l 458 371 l 265 371 l 265 0 l 110 0 l 110 972 m 421 503 q 570 548 521 503 q 619 672 619 593 q 571 798 619 754 q 424 842 522 842 l 265 842 l 265 503 l 421 503 m 433 1257 q 585 1207 531 1257 q 640 1083 640 1157 l 526 1083 q 501 1145 526 1124 q 433 1167 475 1167 q 366 1145 392 1167 q 340 1083 340 1124 l 226 1083 q 281 1207 226 1157 q 433 1257 336 1257 z "},"Ṟ":{"ha":851,"x_min":110,"x_max":828,"o":"m 110 972 l 442 972 q 689 899 600 972 q 778 676 778 825 q 610 406 778 486 l 828 0 l 651 0 l 458 371 l 265 371 l 265 0 l 110 0 l 110 972 m 421 503 q 570 548 521 503 q 619 672 619 593 q 571 798 619 754 q 424 842 522 842 l 265 842 l 265 503 l 421 503 m 242 -126 l 692 -126 l 692 -231 l 242 -231 l 242 -126 z "},"S":{"ha":808,"x_min":69,"x_max":767,"o":"m 389 -19 q 213 1 304 -19 q 69 47 122 21 l 89 207 q 249 147 164 171 q 415 122 333 122 q 551 154 503 122 q 600 251 600 186 q 574 331 600 300 q 500 385 549 363 q 358 438 451 407 q 206 499 267 467 q 109 586 146 532 q 72 722 72 640 q 163 917 72 843 q 422 992 254 992 q 588 973 507 992 q 731 926 668 954 l 714 769 q 560 831 632 811 q 414 851 489 851 q 281 821 329 851 q 232 729 232 790 q 256 658 232 686 q 322 610 279 629 q 443 565 364 590 q 688 446 608 515 q 767 257 767 376 q 677 58 767 136 q 389 -19 588 -19 z "},"Ś":{"ha":808,"x_min":69,"x_max":767,"o":"m 389 -19 q 213 1 304 -19 q 69 47 122 21 l 89 207 q 249 147 164 171 q 415 122 333 122 q 551 154 503 122 q 600 251 600 186 q 574 331 600 300 q 500 385 549 363 q 358 438 451 407 q 206 499 267 467 q 109 586 146 532 q 72 722 72 640 q 163 917 72 843 q 422 992 254 992 q 588 973 507 992 q 731 926 668 954 l 714 769 q 560 831 632 811 q 414 851 489 851 q 281 821 329 851 q 232 729 232 790 q 256 658 232 686 q 322 610 279 629 q 443 565 364 590 q 688 446 608 515 q 767 257 767 376 q 677 58 767 136 q 389 -19 588 -19 m 304 1146 l 569 1278 l 569 1139 l 304 1058 l 304 1146 z "},"Ṥ":{"ha":808,"x_min":69,"x_max":767,"o":"m 389 -19 q 213 1 304 -19 q 69 47 122 21 l 89 207 q 249 147 164 171 q 415 122 333 122 q 551 154 503 122 q 600 251 600 186 q 574 331 600 300 q 500 385 549 363 q 358 438 451 407 q 206 499 267 467 q 109 586 146 532 q 72 722 72 640 q 163 917 72 843 q 422 992 254 992 q 588 973 507 992 q 731 926 668 954 l 714 769 q 560 831 632 811 q 414 851 489 851 q 281 821 329 851 q 232 729 232 790 q 256 658 232 686 q 322 610 279 629 q 443 565 364 590 q 688 446 608 515 q 767 257 767 376 q 677 58 767 136 q 389 -19 588 -19 m 304 1146 l 569 1278 l 569 1139 l 304 1058 l 304 1146 m 367 1468 l 506 1468 l 506 1339 l 367 1339 l 367 1468 z "},"Š":{"ha":808,"x_min":69,"x_max":767,"o":"m 389 -19 q 213 1 304 -19 q 69 47 122 21 l 89 207 q 249 147 164 171 q 415 122 333 122 q 551 154 503 122 q 600 251 600 186 q 574 331 600 300 q 500 385 549 363 q 358 438 451 407 q 206 499 267 467 q 109 586 146 532 q 72 722 72 640 q 163 917 72 843 q 422 992 254 992 q 588 973 507 992 q 731 926 668 954 l 714 769 q 560 831 632 811 q 414 851 489 851 q 281 821 329 851 q 232 729 232 790 q 256 658 232 686 q 322 610 279 629 q 443 565 364 590 q 688 446 608 515 q 767 257 767 376 q 677 58 767 136 q 389 -19 588 -19 m 257 1206 l 257 1297 l 436 1203 l 615 1297 l 615 1206 l 436 1079 l 257 1206 z "},"Ṧ":{"ha":808,"x_min":69,"x_max":767,"o":"m 389 -19 q 213 1 304 -19 q 69 47 122 21 l 89 207 q 249 147 164 171 q 415 122 333 122 q 551 154 503 122 q 600 251 600 186 q 574 331 600 300 q 500 385 549 363 q 358 438 451 407 q 206 499 267 467 q 109 586 146 532 q 72 722 72 640 q 163 917 72 843 q 422 992 254 992 q 588 973 507 992 q 731 926 668 954 l 714 769 q 560 831 632 811 q 414 851 489 851 q 281 821 329 851 q 232 729 232 790 q 256 658 232 686 q 322 610 279 629 q 443 565 364 590 q 688 446 608 515 q 767 257 767 376 q 677 58 767 136 q 389 -19 588 -19 m 257 1206 l 257 1297 l 436 1203 l 615 1297 l 615 1206 l 436 1079 l 257 1206 m 367 1486 l 506 1486 l 506 1357 l 367 1357 l 367 1486 z "},"Ş":{"ha":808,"x_min":69,"x_max":767,"o":"m 767 257 q 689 69 767 146 q 442 -18 611 -7 l 424 -75 l 432 -75 q 524 -106 490 -75 q 557 -192 557 -137 q 514 -287 557 -253 q 406 -322 471 -322 q 294 -296 342 -322 l 318 -221 q 407 -244 361 -244 q 455 -232 438 -244 q 472 -194 472 -219 q 403 -143 472 -143 q 338 -153 371 -143 l 371 -19 q 204 3 289 -17 q 69 47 119 22 l 89 207 q 249 147 164 171 q 415 122 333 122 q 551 154 503 122 q 600 251 600 186 q 574 331 600 300 q 500 385 549 363 q 358 438 451 407 q 206 499 267 467 q 109 586 146 532 q 72 722 72 640 q 163 917 72 843 q 422 992 254 992 q 588 973 507 992 q 731 926 668 954 l 714 769 q 560 831 632 811 q 414 851 489 851 q 281 821 329 851 q 232 729 232 790 q 256 658 232 686 q 322 610 279 629 q 443 565 364 590 q 688 446 608 515 q 767 257 767 376 z "},"Ŝ":{"ha":808,"x_min":69,"x_max":767,"o":"m 389 -19 q 213 1 304 -19 q 69 47 122 21 l 89 207 q 249 147 164 171 q 415 122 333 122 q 551 154 503 122 q 600 251 600 186 q 574 331 600 300 q 500 385 549 363 q 358 438 451 407 q 206 499 267 467 q 109 586 146 532 q 72 722 72 640 q 163 917 72 843 q 422 992 254 992 q 588 973 507 992 q 731 926 668 954 l 714 769 q 560 831 632 811 q 414 851 489 851 q 281 821 329 851 q 232 729 232 790 q 256 658 232 686 q 322 610 279 629 q 443 565 364 590 q 688 446 608 515 q 767 257 767 376 q 677 58 767 136 q 389 -19 588 -19 m 615 1133 l 615 1042 l 436 1136 l 257 1042 l 257 1133 l 436 1260 l 615 1133 z "},"Ș":{"ha":808,"x_min":69,"x_max":767,"o":"m 389 -19 q 213 1 304 -19 q 69 47 122 21 l 89 207 q 249 147 164 171 q 415 122 333 122 q 551 154 503 122 q 600 251 600 186 q 574 331 600 300 q 500 385 549 363 q 358 438 451 407 q 206 499 267 467 q 109 586 146 532 q 72 722 72 640 q 163 917 72 843 q 422 992 254 992 q 588 973 507 992 q 731 926 668 954 l 714 769 q 560 831 632 811 q 414 851 489 851 q 281 821 329 851 q 232 729 232 790 q 256 658 232 686 q 322 610 279 629 q 443 565 364 590 q 688 446 608 515 q 767 257 767 376 q 677 58 767 136 q 389 -19 588 -19 m 333 -428 l 385 -278 l 329 -278 l 329 -126 l 488 -126 l 488 -262 l 410 -428 l 333 -428 z "},"Ṡ":{"ha":808,"x_min":69,"x_max":767,"o":"m 389 -19 q 213 1 304 -19 q 69 47 122 21 l 89 207 q 249 147 164 171 q 415 122 333 122 q 551 154 503 122 q 600 251 600 186 q 574 331 600 300 q 500 385 549 363 q 358 438 451 407 q 206 499 267 467 q 109 586 146 532 q 72 722 72 640 q 163 917 72 843 q 422 992 254 992 q 588 973 507 992 q 731 926 668 954 l 714 769 q 560 831 632 811 q 414 851 489 851 q 281 821 329 851 q 232 729 232 790 q 256 658 232 686 q 322 610 279 629 q 443 565 364 590 q 688 446 608 515 q 767 257 767 376 q 677 58 767 136 q 389 -19 588 -19 m 367 1229 l 506 1229 l 506 1100 l 367 1100 l 367 1229 z "},"Ṣ":{"ha":808,"x_min":69,"x_max":767,"o":"m 389 -19 q 213 1 304 -19 q 69 47 122 21 l 89 207 q 249 147 164 171 q 415 122 333 122 q 551 154 503 122 q 600 251 600 186 q 574 331 600 300 q 500 385 549 363 q 358 438 451 407 q 206 499 267 467 q 109 586 146 532 q 72 722 72 640 q 163 917 72 843 q 422 992 254 992 q 588 973 507 992 q 731 926 668 954 l 714 769 q 560 831 632 811 q 414 851 489 851 q 281 821 329 851 q 232 729 232 790 q 256 658 232 686 q 322 610 279 629 q 443 565 364 590 q 688 446 608 515 q 767 257 767 376 q 677 58 767 136 q 389 -19 588 -19 m 338 -112 l 476 -112 l 476 -242 l 338 -242 l 338 -112 z "},"Ṩ":{"ha":808,"x_min":69,"x_max":767,"o":"m 389 -19 q 213 1 304 -19 q 69 47 122 21 l 89 207 q 249 147 164 171 q 415 122 333 122 q 551 154 503 122 q 600 251 600 186 q 574 331 600 300 q 500 385 549 363 q 358 438 451 407 q 206 499 267 467 q 109 586 146 532 q 72 722 72 640 q 163 917 72 843 q 422 992 254 992 q 588 973 507 992 q 731 926 668 954 l 714 769 q 560 831 632 811 q 414 851 489 851 q 281 821 329 851 q 232 729 232 790 q 256 658 232 686 q 322 610 279 629 q 443 565 364 590 q 688 446 608 515 q 767 257 767 376 q 677 58 767 136 q 389 -19 588 -19 m 367 1229 l 506 1229 l 506 1100 l 367 1100 l 367 1229 m 338 -112 l 476 -112 l 476 -242 l 338 -242 l 338 -112 z "},"ẞ":{"ha":886,"x_min":110,"x_max":842,"o":"m 583 567 q 772 476 703 547 q 842 279 842 406 q 799 115 842 182 q 684 14 756 47 q 525 -19 613 -19 q 375 0 449 -19 l 375 136 q 508 122 436 122 q 633 165 588 122 q 679 282 679 207 q 627 411 679 367 q 474 456 575 456 l 428 456 l 428 579 l 650 832 q 483 861 575 861 q 322 808 382 861 q 261 661 261 754 l 261 0 l 110 0 l 110 658 q 210 907 110 822 q 483 992 311 992 q 646 969 571 992 q 778 910 721 947 l 778 786 l 583 567 z "},"Ə":{"ha":979,"x_min":42,"x_max":926,"o":"m 443 992 q 701 926 592 992 q 868 744 810 861 q 926 472 926 626 q 872 223 926 335 q 713 46 817 111 q 467 -19 608 -19 q 245 31 342 -19 q 95 176 149 82 q 42 399 42 271 q 51 503 42 460 l 761 503 q 668 758 754 667 q 428 850 582 850 q 110 775 276 850 l 90 910 q 443 992 258 992 m 471 122 q 655 186 582 122 q 751 368 728 250 l 207 368 q 276 188 210 254 q 471 122 343 122 z "},"T":{"ha":753,"x_min":21,"x_max":732,"o":"m 300 831 l 21 831 l 21 972 l 732 972 l 732 831 l 451 831 l 451 0 l 300 0 l 300 831 z "},"Ŧ":{"ha":753,"x_min":21,"x_max":732,"o":"m 451 831 l 451 542 l 639 542 l 639 442 l 451 442 l 451 0 l 300 0 l 300 442 l 114 442 l 114 542 l 300 542 l 300 831 l 21 831 l 21 972 l 732 972 l 732 831 l 451 831 z "},"Ť":{"ha":753,"x_min":21,"x_max":732,"o":"m 300 831 l 21 831 l 21 972 l 732 972 l 732 831 l 451 831 l 451 0 l 300 0 l 300 831 m 197 1215 l 197 1311 l 376 1199 l 556 1311 l 556 1215 l 376 1061 l 197 1215 z "},"Ţ":{"ha":753,"x_min":21,"x_max":732,"o":"m 300 831 l 21 831 l 21 972 l 732 972 l 732 831 l 451 831 l 451 0 l 300 0 l 300 831 m 401 -75 q 493 -106 460 -75 q 526 -192 526 -137 q 483 -287 526 -253 q 375 -322 440 -322 q 264 -296 311 -322 l 288 -221 q 376 -244 331 -244 q 424 -232 407 -244 q 442 -194 442 -219 q 372 -143 442 -143 q 307 -153 340 -143 l 344 0 l 417 0 l 393 -75 l 401 -75 z "},"Ț":{"ha":753,"x_min":21,"x_max":732,"o":"m 300 831 l 21 831 l 21 972 l 732 972 l 732 831 l 451 831 l 451 0 l 300 0 l 300 831 m 303 -428 l 354 -278 l 299 -278 l 299 -126 l 457 -126 l 457 -262 l 379 -428 l 303 -428 z "},"Ṭ":{"ha":753,"x_min":21,"x_max":732,"o":"m 300 831 l 21 831 l 21 972 l 732 972 l 732 831 l 451 831 l 451 0 l 300 0 l 300 831 m 307 -112 l 446 -112 l 446 -242 l 307 -242 l 307 -112 z "},"Ṯ":{"ha":753,"x_min":21,"x_max":732,"o":"m 300 831 l 21 831 l 21 972 l 732 972 l 732 831 l 451 831 l 451 0 l 300 0 l 300 831 m 151 -126 l 601 -126 l 601 -231 l 151 -231 l 151 -126 z "},"U":{"ha":1001,"x_min":99,"x_max":904,"o":"m 501 -19 q 200 95 301 -19 q 99 414 99 210 l 99 972 l 250 972 l 250 454 q 303 210 250 297 q 501 122 356 122 q 700 210 647 122 q 753 454 753 297 l 753 972 l 904 972 l 904 414 q 803 95 904 210 q 501 -19 701 -19 z "},"Ú":{"ha":1001,"x_min":99,"x_max":904,"o":"m 501 -19 q 200 95 301 -19 q 99 414 99 210 l 99 972 l 250 972 l 250 454 q 303 210 250 297 q 501 122 356 122 q 700 210 647 122 q 753 454 753 297 l 753 972 l 904 972 l 904 414 q 803 95 904 210 q 501 -19 701 -19 m 369 1146 l 635 1278 l 635 1139 l 369 1058 l 369 1146 z "},"Ŭ":{"ha":1001,"x_min":99,"x_max":904,"o":"m 501 -19 q 200 95 301 -19 q 99 414 99 210 l 99 972 l 250 972 l 250 454 q 303 210 250 297 q 501 122 356 122 q 700 210 647 122 q 753 454 753 297 l 753 972 l 904 972 l 904 414 q 803 95 904 210 q 501 -19 701 -19 m 501 1063 q 349 1113 404 1063 q 294 1236 294 1163 l 408 1236 q 434 1174 408 1196 q 501 1151 460 1151 q 569 1174 543 1151 q 594 1236 594 1196 l 708 1236 q 653 1113 708 1163 q 501 1063 599 1063 z "},"Û":{"ha":1001,"x_min":99,"x_max":904,"o":"m 501 -19 q 200 95 301 -19 q 99 414 99 210 l 99 972 l 250 972 l 250 454 q 303 210 250 297 q 501 122 356 122 q 700 210 647 122 q 753 454 753 297 l 753 972 l 904 972 l 904 414 q 803 95 904 210 q 501 -19 701 -19 m 681 1133 l 681 1042 l 501 1136 l 322 1042 l 322 1133 l 501 1260 l 681 1133 z "},"Ȕ":{"ha":1001,"x_min":99,"x_max":904,"o":"m 501 -19 q 200 95 301 -19 q 99 414 99 210 l 99 972 l 250 972 l 250 454 q 303 210 250 297 q 501 122 356 122 q 700 210 647 122 q 753 454 753 297 l 753 972 l 904 972 l 904 414 q 803 95 904 210 q 501 -19 701 -19 m 357 1094 l 211 1332 l 357 1332 l 457 1094 l 357 1094 m 556 1094 l 418 1332 l 565 1332 l 656 1094 l 556 1094 z "},"Ü":{"ha":1001,"x_min":99,"x_max":904,"o":"m 501 -19 q 200 95 301 -19 q 99 414 99 210 l 99 972 l 250 972 l 250 454 q 303 210 250 297 q 501 122 356 122 q 700 210 647 122 q 753 454 753 297 l 753 972 l 904 972 l 904 414 q 803 95 904 210 q 501 -19 701 -19 m 303 1207 l 428 1207 l 428 1097 l 303 1097 l 303 1207 m 575 1207 l 700 1207 l 700 1097 l 575 1097 l 575 1207 z "},"Ụ":{"ha":1001,"x_min":99,"x_max":904,"o":"m 501 -19 q 200 95 301 -19 q 99 414 99 210 l 99 972 l 250 972 l 250 454 q 303 210 250 297 q 501 122 356 122 q 700 210 647 122 q 753 454 753 297 l 753 972 l 904 972 l 904 414 q 803 95 904 210 q 501 -19 701 -19 m 432 -112 l 571 -112 l 571 -242 l 432 -242 l 432 -112 z "},"Ù":{"ha":1001,"x_min":99,"x_max":904,"o":"m 501 -19 q 200 95 301 -19 q 99 414 99 210 l 99 972 l 250 972 l 250 454 q 303 210 250 297 q 501 122 356 122 q 700 210 647 122 q 753 454 753 297 l 753 972 l 904 972 l 904 414 q 803 95 904 210 q 501 -19 701 -19 m 368 1139 l 368 1278 l 633 1146 l 633 1058 l 368 1139 z "},"Ủ":{"ha":1001,"x_min":99,"x_max":904,"o":"m 501 -19 q 200 95 301 -19 q 99 414 99 210 l 99 972 l 250 972 l 250 454 q 303 210 250 297 q 501 122 356 122 q 700 210 647 122 q 753 454 753 297 l 753 972 l 904 972 l 904 414 q 803 95 904 210 q 501 -19 701 -19 m 483 1114 q 533 1165 533 1129 q 479 1207 533 1207 q 393 1181 442 1207 l 369 1257 q 481 1283 419 1283 q 579 1254 540 1283 q 618 1174 618 1225 q 589 1098 618 1126 q 497 1056 560 1069 l 483 1114 z "},"Ư":{"ha":1001,"x_min":99,"x_max":1065,"o":"m 1065 1075 q 1020 954 1065 1007 q 904 881 975 901 l 904 414 q 803 95 904 210 q 501 -19 701 -19 q 200 95 301 -19 q 99 414 99 210 l 99 972 l 250 972 l 250 454 q 303 210 250 297 q 501 122 356 122 q 700 210 647 122 q 753 454 753 297 l 753 972 l 824 972 q 935 1075 935 972 l 1065 1075 z "},"Ứ":{"ha":1001,"x_min":99,"x_max":1065,"o":"m 1065 1075 q 1020 954 1065 1007 q 904 881 975 901 l 904 414 q 803 95 904 210 q 501 -19 701 -19 q 200 95 301 -19 q 99 414 99 210 l 99 972 l 250 972 l 250 454 q 303 210 250 297 q 501 122 356 122 q 700 210 647 122 q 753 454 753 297 l 753 972 l 824 972 q 935 1075 935 972 l 1065 1075 m 369 1178 l 635 1332 l 635 1186 l 369 1082 l 369 1178 z "},"Ự":{"ha":1001,"x_min":99,"x_max":1065,"o":"m 1065 1075 q 1020 954 1065 1007 q 904 881 975 901 l 904 414 q 803 95 904 210 q 501 -19 701 -19 q 200 95 301 -19 q 99 414 99 210 l 99 972 l 250 972 l 250 454 q 303 210 250 297 q 501 122 356 122 q 700 210 647 122 q 753 454 753 297 l 753 972 l 824 972 q 935 1075 935 972 l 1065 1075 m 432 -112 l 571 -112 l 571 -242 l 432 -242 l 432 -112 z "},"Ừ":{"ha":1001,"x_min":99,"x_max":1065,"o":"m 1065 1075 q 1020 954 1065 1007 q 904 881 975 901 l 904 414 q 803 95 904 210 q 501 -19 701 -19 q 200 95 301 -19 q 99 414 99 210 l 99 972 l 250 972 l 250 454 q 303 210 250 297 q 501 122 356 122 q 700 210 647 122 q 753 454 753 297 l 753 972 l 824 972 q 935 1075 935 972 l 1065 1075 m 368 1186 l 368 1332 l 633 1178 l 633 1082 l 368 1186 z "},"Ử":{"ha":1001,"x_min":99,"x_max":1065,"o":"m 1065 1075 q 1020 954 1065 1007 q 904 881 975 901 l 904 414 q 803 95 904 210 q 501 -19 701 -19 q 200 95 301 -19 q 99 414 99 210 l 99 972 l 250 972 l 250 454 q 303 210 250 297 q 501 122 356 122 q 700 210 647 122 q 753 454 753 297 l 753 972 l 824 972 q 935 1075 935 972 l 1065 1075 m 483 1114 q 533 1165 533 1129 q 479 1207 533 1207 q 393 1181 442 1207 l 369 1257 q 481 1283 419 1283 q 579 1254 540 1283 q 618 1174 618 1225 q 589 1098 618 1126 q 497 1056 560 1069 l 483 1114 z "},"Ữ":{"ha":1001,"x_min":99,"x_max":1065,"o":"m 1065 1075 q 1020 954 1065 1007 q 904 881 975 901 l 904 414 q 803 95 904 210 q 501 -19 701 -19 q 200 95 301 -19 q 99 414 99 210 l 99 972 l 250 972 l 250 454 q 303 210 250 297 q 501 122 356 122 q 700 210 647 122 q 753 454 753 297 l 753 972 l 824 972 q 935 1075 935 972 l 1065 1075 m 615 1090 q 568 1099 592 1090 q 513 1125 544 1108 q 488 1137 507 1128 q 453 1150 469 1146 q 425 1154 438 1154 q 390 1140 403 1154 q 378 1101 378 1125 l 268 1101 q 301 1220 271 1179 q 388 1261 332 1261 q 435 1252 411 1261 q 490 1228 460 1243 q 540 1206 519 1214 q 578 1199 560 1199 q 613 1213 600 1199 q 625 1250 625 1226 l 735 1250 q 701 1131 732 1172 q 615 1090 671 1090 z "},"Ű":{"ha":1001,"x_min":99,"x_max":904,"o":"m 501 -19 q 200 95 301 -19 q 99 414 99 210 l 99 972 l 250 972 l 250 454 q 303 210 250 297 q 501 122 356 122 q 700 210 647 122 q 753 454 753 297 l 753 972 l 904 972 l 904 414 q 803 95 904 210 q 501 -19 701 -19 m 442 1304 l 588 1304 l 449 1094 l 350 1094 l 442 1304 m 649 1304 l 794 1304 l 647 1094 l 549 1094 l 649 1304 z "},"Ȗ":{"ha":1001,"x_min":99,"x_max":904,"o":"m 501 -19 q 200 95 301 -19 q 99 414 99 210 l 99 972 l 250 972 l 250 454 q 303 210 250 297 q 501 122 356 122 q 700 210 647 122 q 753 454 753 297 l 753 972 l 904 972 l 904 414 q 803 95 904 210 q 501 -19 701 -19 m 501 1257 q 653 1207 599 1257 q 708 1083 708 1157 l 594 1083 q 569 1145 594 1124 q 501 1167 543 1167 q 434 1145 460 1167 q 408 1083 408 1124 l 294 1083 q 349 1207 294 1157 q 501 1257 404 1257 z "},"Ū":{"ha":1001,"x_min":99,"x_max":904,"o":"m 501 -19 q 200 95 301 -19 q 99 414 99 210 l 99 972 l 250 972 l 250 454 q 303 210 250 297 q 501 122 356 122 q 700 210 647 122 q 753 454 753 297 l 753 972 l 904 972 l 904 414 q 803 95 904 210 q 501 -19 701 -19 m 276 1201 l 726 1201 l 726 1101 l 276 1101 l 276 1201 z "},"Ṻ":{"ha":1001,"x_min":99,"x_max":904,"o":"m 501 -19 q 200 95 301 -19 q 99 414 99 210 l 99 972 l 250 972 l 250 454 q 303 210 250 297 q 501 122 356 122 q 700 210 647 122 q 753 454 753 297 l 753 972 l 904 972 l 904 414 q 803 95 904 210 q 501 -19 701 -19 m 276 1201 l 726 1201 l 726 1101 l 276 1101 l 276 1201 m 303 1446 l 428 1446 l 428 1336 l 303 1336 l 303 1446 m 575 1446 l 700 1446 l 700 1336 l 575 1336 l 575 1446 z "},"Ų":{"ha":1001,"x_min":99,"x_max":904,"o":"m 904 972 l 904 414 q 837 140 904 247 q 636 -3 769 32 q 558 -76 585 -42 q 532 -146 532 -111 q 550 -197 532 -179 q 599 -214 568 -214 q 685 -192 640 -214 l 707 -264 q 589 -290 654 -290 q 488 -258 528 -290 q 449 -169 449 -226 q 473 -87 449 -126 q 535 -18 497 -47 q 501 -19 524 -19 q 200 95 301 -19 q 99 414 99 210 l 99 972 l 250 972 l 250 454 q 303 210 250 297 q 501 122 356 122 q 700 210 647 122 q 753 454 753 297 l 753 972 l 904 972 z "},"Ů":{"ha":1001,"x_min":99,"x_max":904,"o":"m 501 -19 q 200 95 301 -19 q 99 414 99 210 l 99 972 l 250 972 l 250 454 q 303 210 250 297 q 501 122 356 122 q 700 210 647 122 q 753 454 753 297 l 753 972 l 904 972 l 904 414 q 803 95 904 210 q 501 -19 701 -19 m 501 1049 q 395 1088 435 1049 q 356 1185 356 1128 q 395 1281 356 1240 q 501 1321 435 1321 q 608 1281 569 1321 q 647 1185 647 1242 q 608 1088 647 1128 q 501 1049 569 1049 m 501 1115 q 551 1135 531 1115 q 572 1185 572 1154 q 551 1234 572 1214 q 501 1254 531 1254 q 451 1234 472 1254 q 431 1185 431 1214 q 451 1135 431 1154 q 501 1115 472 1115 z "},"Ũ":{"ha":1001,"x_min":99,"x_max":904,"o":"m 501 -19 q 200 95 301 -19 q 99 414 99 210 l 99 972 l 250 972 l 250 454 q 303 210 250 297 q 501 122 356 122 q 700 210 647 122 q 753 454 753 297 l 753 972 l 904 972 l 904 414 q 803 95 904 210 q 501 -19 701 -19 m 619 1089 q 572 1097 597 1089 q 513 1119 547 1104 q 425 1146 451 1146 q 390 1133 403 1146 q 378 1096 378 1119 l 281 1096 q 307 1202 281 1165 q 383 1239 333 1239 q 428 1231 406 1239 q 490 1207 451 1224 q 527 1192 497 1204 q 578 1181 557 1181 q 613 1194 600 1181 q 625 1231 625 1207 l 722 1231 q 696 1125 722 1161 q 619 1089 669 1089 z "},"Ṹ":{"ha":1001,"x_min":99,"x_max":904,"o":"m 501 -19 q 200 95 301 -19 q 99 414 99 210 l 99 972 l 250 972 l 250 454 q 303 210 250 297 q 501 122 356 122 q 700 210 647 122 q 753 454 753 297 l 753 972 l 904 972 l 904 414 q 803 95 904 210 q 501 -19 701 -19 m 619 1089 q 572 1097 597 1089 q 513 1119 547 1104 q 425 1146 451 1146 q 390 1133 403 1146 q 378 1096 378 1119 l 281 1096 q 307 1202 281 1165 q 383 1239 333 1239 q 428 1231 406 1239 q 490 1207 451 1224 q 527 1192 497 1204 q 578 1181 557 1181 q 613 1194 600 1181 q 625 1231 625 1207 l 722 1231 q 696 1125 722 1161 q 619 1089 669 1089 m 369 1383 l 635 1515 l 635 1376 l 369 1296 l 369 1383 z "},"V":{"ha":853,"x_min":3,"x_max":850,"o":"m 850 972 l 501 0 l 350 0 l 3 972 l 160 972 l 426 214 l 693 972 l 850 972 z "},"W":{"ha":1324,"x_min":10,"x_max":1317,"o":"m 10 972 l 168 972 l 368 218 l 597 961 l 729 961 l 961 225 l 1158 972 l 1317 972 l 1038 0 l 890 0 l 663 725 l 436 0 l 283 0 l 10 972 z "},"Ẃ":{"ha":1324,"x_min":10,"x_max":1317,"o":"m 10 972 l 168 972 l 368 218 l 597 961 l 729 961 l 961 225 l 1158 972 l 1317 972 l 1038 0 l 890 0 l 663 725 l 436 0 l 283 0 l 10 972 m 533 1146 l 799 1278 l 799 1139 l 533 1058 l 533 1146 z "},"Ŵ":{"ha":1324,"x_min":10,"x_max":1317,"o":"m 10 972 l 168 972 l 368 218 l 597 961 l 729 961 l 961 225 l 1158 972 l 1317 972 l 1038 0 l 890 0 l 663 725 l 436 0 l 283 0 l 10 972 m 844 1133 l 844 1042 l 665 1136 l 486 1042 l 486 1133 l 665 1260 l 844 1133 z "},"Ẅ":{"ha":1324,"x_min":10,"x_max":1317,"o":"m 10 972 l 168 972 l 368 218 l 597 961 l 729 961 l 961 225 l 1158 972 l 1317 972 l 1038 0 l 890 0 l 663 725 l 436 0 l 283 0 l 10 972 m 467 1207 l 592 1207 l 592 1097 l 467 1097 l 467 1207 m 739 1207 l 864 1207 l 864 1097 l 739 1097 l 739 1207 z "},"Ẁ":{"ha":1324,"x_min":10,"x_max":1317,"o":"m 10 972 l 168 972 l 368 218 l 597 961 l 729 961 l 961 225 l 1158 972 l 1317 972 l 1038 0 l 890 0 l 663 725 l 436 0 l 283 0 l 10 972 m 532 1139 l 532 1278 l 797 1146 l 797 1058 l 532 1139 z "},"X":{"ha":843,"x_min":1,"x_max":842,"o":"m 336 494 l 13 972 l 183 972 l 422 619 l 660 972 l 831 972 l 507 494 l 842 0 l 669 0 l 422 367 l 174 0 l 1 0 l 336 494 z "},"Y":{"ha":810,"x_min":-14,"x_max":822,"o":"m 822 972 l 481 410 l 481 0 l 329 0 l 329 410 l -14 972 l 156 972 l 404 550 l 653 972 l 822 972 z "},"Ý":{"ha":810,"x_min":-14,"x_max":822,"o":"m 822 972 l 481 410 l 481 0 l 329 0 l 329 410 l -14 972 l 156 972 l 404 550 l 653 972 l 822 972 m 272 1146 l 538 1278 l 538 1139 l 272 1058 l 272 1146 z "},"Ŷ":{"ha":810,"x_min":-14,"x_max":822,"o":"m 822 972 l 481 410 l 481 0 l 329 0 l 329 410 l -14 972 l 156 972 l 404 550 l 653 972 l 822 972 m 583 1133 l 583 1042 l 404 1136 l 225 1042 l 225 1133 l 404 1260 l 583 1133 z "},"Ÿ":{"ha":810,"x_min":-14,"x_max":822,"o":"m 822 972 l 481 410 l 481 0 l 329 0 l 329 410 l -14 972 l 156 972 l 404 550 l 653 972 l 822 972 m 206 1207 l 331 1207 l 331 1097 l 206 1097 l 206 1207 m 478 1207 l 603 1207 l 603 1097 l 478 1097 l 478 1207 z "},"Ẏ":{"ha":810,"x_min":-14,"x_max":822,"o":"m 822 972 l 481 410 l 481 0 l 329 0 l 329 410 l -14 972 l 156 972 l 404 550 l 653 972 l 822 972 m 335 1229 l 474 1229 l 474 1100 l 335 1100 l 335 1229 z "},"Ỵ":{"ha":810,"x_min":-14,"x_max":822,"o":"m 822 972 l 481 410 l 481 0 l 329 0 l 329 410 l -14 972 l 156 972 l 404 550 l 653 972 l 822 972 m 336 -112 l 475 -112 l 475 -242 l 336 -242 l 336 -112 z "},"Ỳ":{"ha":810,"x_min":-14,"x_max":822,"o":"m 822 972 l 481 410 l 481 0 l 329 0 l 329 410 l -14 972 l 156 972 l 404 550 l 653 972 l 822 972 m 271 1139 l 271 1278 l 536 1146 l 536 1058 l 271 1139 z "},"Ỷ":{"ha":810,"x_min":-14,"x_max":822,"o":"m 822 972 l 481 410 l 481 0 l 329 0 l 329 410 l -14 972 l 156 972 l 404 550 l 653 972 l 822 972 m 386 1114 q 436 1165 436 1129 q 382 1207 436 1207 q 296 1181 344 1207 l 272 1257 q 383 1283 322 1283 q 482 1254 443 1283 q 521 1174 521 1225 q 492 1098 521 1126 q 400 1056 463 1069 l 386 1114 z "},"Ȳ":{"ha":810,"x_min":-14,"x_max":822,"o":"m 822 972 l 481 410 l 481 0 l 329 0 l 329 410 l -14 972 l 156 972 l 404 550 l 653 972 l 822 972 m 179 1201 l 629 1201 l 629 1101 l 179 1101 l 179 1201 z "},"Ỹ":{"ha":810,"x_min":-14,"x_max":822,"o":"m 822 972 l 481 410 l 481 0 l 329 0 l 329 410 l -14 972 l 156 972 l 404 550 l 653 972 l 822 972 m 522 1089 q 475 1097 500 1089 q 415 1119 450 1104 q 328 1146 354 1146 q 293 1133 306 1146 q 281 1096 281 1119 l 183 1096 q 210 1202 183 1165 q 286 1239 236 1239 q 331 1231 308 1239 q 393 1207 354 1224 q 430 1192 400 1204 q 481 1181 460 1181 q 515 1194 503 1181 q 528 1231 528 1207 l 625 1231 q 599 1125 625 1161 q 522 1089 572 1089 z "},"Z":{"ha":763,"x_min":13,"x_max":753,"o":"m 251 136 l 746 136 l 746 0 l 13 0 l 511 836 l 75 836 l 75 972 l 753 972 l 251 136 z "},"Ź":{"ha":763,"x_min":13,"x_max":753,"o":"m 251 136 l 746 136 l 746 0 l 13 0 l 511 836 l 75 836 l 75 972 l 753 972 l 251 136 m 282 1146 l 547 1278 l 547 1139 l 282 1058 l 282 1146 z "},"Ž":{"ha":763,"x_min":13,"x_max":753,"o":"m 251 136 l 746 136 l 746 0 l 13 0 l 511 836 l 75 836 l 75 972 l 753 972 l 251 136 m 235 1206 l 235 1297 l 414 1203 l 593 1297 l 593 1206 l 414 1079 l 235 1206 z "},"Ż":{"ha":763,"x_min":13,"x_max":753,"o":"m 251 136 l 746 136 l 746 0 l 13 0 l 511 836 l 75 836 l 75 972 l 753 972 l 251 136 m 344 1229 l 483 1229 l 483 1100 l 344 1100 l 344 1229 z "},"Ẓ":{"ha":763,"x_min":13,"x_max":753,"o":"m 251 136 l 746 136 l 746 0 l 13 0 l 511 836 l 75 836 l 75 972 l 753 972 l 251 136 m 282 -112 l 421 -112 l 421 -242 l 282 -242 l 282 -112 z "},"a":{"ha":678,"x_min":32,"x_max":664,"o":"m 238 -14 q 90 42 147 -14 q 32 188 32 97 q 95 332 32 278 q 249 409 158 386 q 432 433 339 432 q 398 542 431 513 q 293 572 365 572 q 205 559 249 572 q 108 514 161 546 l 92 632 q 205 681 143 664 q 332 699 267 699 q 518 629 460 699 q 576 393 576 560 l 576 233 q 581 153 576 179 q 601 115 586 126 q 647 104 615 104 l 664 104 l 647 -14 l 615 -14 q 506 8 543 -14 q 447 78 469 31 q 356 10 410 35 q 238 -14 301 -14 m 282 100 q 363 119 322 100 q 432 174 404 139 l 432 335 q 182 194 182 326 q 282 100 182 100 z "},"á":{"ha":678,"x_min":32,"x_max":664,"o":"m 238 -14 q 90 42 147 -14 q 32 188 32 97 q 95 332 32 278 q 249 409 158 386 q 432 433 339 432 q 398 542 431 513 q 293 572 365 572 q 205 559 249 572 q 108 514 161 546 l 92 632 q 205 681 143 664 q 332 699 267 699 q 518 629 460 699 q 576 393 576 560 l 576 233 q 581 153 576 179 q 601 115 586 126 q 647 104 615 104 l 664 104 l 647 -14 l 615 -14 q 506 8 543 -14 q 447 78 469 31 q 356 10 410 35 q 238 -14 301 -14 m 282 100 q 363 119 322 100 q 432 174 404 139 l 432 335 q 182 194 182 326 q 282 100 182 100 m 200 892 l 465 1046 l 465 900 l 200 796 l 200 892 z "},"ă":{"ha":678,"x_min":32,"x_max":664,"o":"m 238 -14 q 90 42 147 -14 q 32 188 32 97 q 95 332 32 278 q 249 409 158 386 q 432 433 339 432 q 398 542 431 513 q 293 572 365 572 q 205 559 249 572 q 108 514 161 546 l 92 632 q 205 681 143 664 q 332 699 267 699 q 518 629 460 699 q 576 393 576 560 l 576 233 q 581 153 576 179 q 601 115 586 126 q 647 104 615 104 l 664 104 l 647 -14 l 615 -14 q 506 8 543 -14 q 447 78 469 31 q 356 10 410 35 q 238 -14 301 -14 m 282 100 q 363 119 322 100 q 432 174 404 139 l 432 335 q 182 194 182 326 q 282 100 182 100 m 332 807 q 180 860 235 807 q 125 990 125 913 l 239 990 q 265 926 239 949 q 332 903 290 903 q 399 926 374 903 q 425 990 425 949 l 539 990 q 484 860 539 913 q 332 807 429 807 z "},"ắ":{"ha":678,"x_min":32,"x_max":664,"o":"m 238 -14 q 90 42 147 -14 q 32 188 32 97 q 95 332 32 278 q 249 409 158 386 q 432 433 339 432 q 398 542 431 513 q 293 572 365 572 q 205 559 249 572 q 108 514 161 546 l 92 632 q 205 681 143 664 q 332 699 267 699 q 518 629 460 699 q 576 393 576 560 l 576 233 q 581 153 576 179 q 601 115 586 126 q 647 104 615 104 l 664 104 l 647 -14 l 615 -14 q 506 8 543 -14 q 447 78 469 31 q 356 10 410 35 q 238 -14 301 -14 m 282 100 q 363 119 322 100 q 432 174 404 139 l 432 335 q 182 194 182 326 q 282 100 182 100 m 332 776 q 180 826 235 776 q 125 950 125 876 l 239 950 q 265 888 239 910 q 332 865 290 865 q 399 888 374 865 q 425 950 425 910 l 539 950 q 484 826 539 876 q 332 776 429 776 m 200 1100 l 465 1232 l 465 1093 l 200 1013 l 200 1100 z "},"ặ":{"ha":678,"x_min":32,"x_max":664,"o":"m 238 -14 q 90 42 147 -14 q 32 188 32 97 q 95 332 32 278 q 249 409 158 386 q 432 433 339 432 q 398 542 431 513 q 293 572 365 572 q 205 559 249 572 q 108 514 161 546 l 92 632 q 205 681 143 664 q 332 699 267 699 q 518 629 460 699 q 576 393 576 560 l 576 233 q 581 153 576 179 q 601 115 586 126 q 647 104 615 104 l 664 104 l 647 -14 l 615 -14 q 506 8 543 -14 q 447 78 469 31 q 356 10 410 35 q 238 -14 301 -14 m 282 100 q 363 119 322 100 q 432 174 404 139 l 432 335 q 182 194 182 326 q 282 100 182 100 m 332 807 q 180 860 235 807 q 125 990 125 913 l 239 990 q 265 926 239 949 q 332 903 290 903 q 399 926 374 903 q 425 990 425 949 l 539 990 q 484 860 539 913 q 332 807 429 807 m 269 -112 l 408 -112 l 408 -242 l 269 -242 l 269 -112 z "},"ằ":{"ha":678,"x_min":32,"x_max":664,"o":"m 238 -14 q 90 42 147 -14 q 32 188 32 97 q 95 332 32 278 q 249 409 158 386 q 432 433 339 432 q 398 542 431 513 q 293 572 365 572 q 205 559 249 572 q 108 514 161 546 l 92 632 q 205 681 143 664 q 332 699 267 699 q 518 629 460 699 q 576 393 576 560 l 576 233 q 581 153 576 179 q 601 115 586 126 q 647 104 615 104 l 664 104 l 647 -14 l 615 -14 q 506 8 543 -14 q 447 78 469 31 q 356 10 410 35 q 238 -14 301 -14 m 282 100 q 363 119 322 100 q 432 174 404 139 l 432 335 q 182 194 182 326 q 282 100 182 100 m 332 775 q 180 825 235 775 q 125 949 125 875 l 239 949 q 265 886 239 908 q 332 864 290 864 q 399 886 374 864 q 425 949 425 908 l 539 949 q 484 825 539 875 q 332 775 429 775 m 199 1092 l 199 1231 l 464 1099 l 464 1011 l 199 1092 z "},"ẳ":{"ha":678,"x_min":32,"x_max":664,"o":"m 238 -14 q 90 42 147 -14 q 32 188 32 97 q 95 332 32 278 q 249 409 158 386 q 432 433 339 432 q 398 542 431 513 q 293 572 365 572 q 205 559 249 572 q 108 514 161 546 l 92 632 q 205 681 143 664 q 332 699 267 699 q 518 629 460 699 q 576 393 576 560 l 576 233 q 581 153 576 179 q 601 115 586 126 q 647 104 615 104 l 664 104 l 647 -14 l 615 -14 q 506 8 543 -14 q 447 78 469 31 q 356 10 410 35 q 238 -14 301 -14 m 282 100 q 363 119 322 100 q 432 174 404 139 l 432 335 q 182 194 182 326 q 282 100 182 100 m 332 776 q 180 826 235 776 q 125 950 125 876 l 239 950 q 265 888 239 910 q 332 865 290 865 q 399 888 374 865 q 425 950 425 910 l 539 950 q 484 826 539 876 q 332 776 429 776 m 328 1029 q 378 1081 378 1044 q 324 1122 378 1122 q 238 1096 286 1122 l 214 1172 q 325 1199 264 1199 q 424 1169 385 1199 q 463 1089 463 1140 q 433 1013 463 1042 q 342 971 404 985 l 328 1029 z "},"ẵ":{"ha":678,"x_min":32,"x_max":664,"o":"m 238 -14 q 90 42 147 -14 q 32 188 32 97 q 95 332 32 278 q 249 409 158 386 q 432 433 339 432 q 398 542 431 513 q 293 572 365 572 q 205 559 249 572 q 108 514 161 546 l 92 632 q 205 681 143 664 q 332 699 267 699 q 518 629 460 699 q 576 393 576 560 l 576 233 q 581 153 576 179 q 601 115 586 126 q 647 104 615 104 l 664 104 l 647 -14 l 615 -14 q 506 8 543 -14 q 447 78 469 31 q 356 10 410 35 q 238 -14 301 -14 m 282 100 q 363 119 322 100 q 432 174 404 139 l 432 335 q 182 194 182 326 q 282 100 182 100 m 332 776 q 180 826 235 776 q 125 950 125 876 l 239 950 q 265 888 239 910 q 332 865 290 865 q 399 888 374 865 q 425 950 425 910 l 539 950 q 484 826 539 876 q 332 776 429 776 m 450 1017 q 403 1024 428 1017 q 343 1047 378 1032 q 256 1074 282 1074 q 221 1060 233 1074 q 208 1024 208 1047 l 111 1024 q 138 1130 111 1093 q 214 1167 164 1167 q 259 1159 236 1167 q 321 1135 282 1151 q 358 1120 328 1132 q 408 1108 388 1108 q 443 1122 431 1108 q 456 1158 456 1135 l 553 1158 q 526 1053 553 1089 q 450 1017 500 1017 z "},"â":{"ha":678,"x_min":32,"x_max":664,"o":"m 238 -14 q 90 42 147 -14 q 32 188 32 97 q 95 332 32 278 q 249 409 158 386 q 432 433 339 432 q 398 542 431 513 q 293 572 365 572 q 205 559 249 572 q 108 514 161 546 l 92 632 q 205 681 143 664 q 332 699 267 699 q 518 629 460 699 q 576 393 576 560 l 576 233 q 581 153 576 179 q 601 115 586 126 q 647 104 615 104 l 664 104 l 647 -14 l 615 -14 q 506 8 543 -14 q 447 78 469 31 q 356 10 410 35 q 238 -14 301 -14 m 282 100 q 363 119 322 100 q 432 174 404 139 l 432 335 q 182 194 182 326 q 282 100 182 100 m 153 872 l 332 1026 l 511 872 l 511 778 l 332 890 l 153 778 l 153 872 z "},"ấ":{"ha":678,"x_min":32,"x_max":675,"o":"m 238 -14 q 90 42 147 -14 q 32 188 32 97 q 95 332 32 278 q 249 409 158 386 q 432 433 339 432 q 398 542 431 513 q 293 572 365 572 q 205 559 249 572 q 108 514 161 546 l 92 632 q 205 681 143 664 q 332 699 267 699 q 518 629 460 699 q 576 393 576 560 l 576 233 q 581 153 576 179 q 601 115 586 126 q 647 104 615 104 l 664 104 l 647 -14 l 615 -14 q 506 8 543 -14 q 447 78 469 31 q 356 10 410 35 q 238 -14 301 -14 m 282 100 q 363 119 322 100 q 432 174 404 139 l 432 335 q 182 194 182 326 q 282 100 182 100 m 528 1135 l 675 1135 l 536 967 l 436 967 l 528 1135 m 511 853 l 511 761 l 332 856 l 153 761 l 153 853 l 332 979 l 511 853 z "},"ậ":{"ha":678,"x_min":32,"x_max":664,"o":"m 238 -14 q 90 42 147 -14 q 32 188 32 97 q 95 332 32 278 q 249 409 158 386 q 432 433 339 432 q 398 542 431 513 q 293 572 365 572 q 205 559 249 572 q 108 514 161 546 l 92 632 q 205 681 143 664 q 332 699 267 699 q 518 629 460 699 q 576 393 576 560 l 576 233 q 581 153 576 179 q 601 115 586 126 q 647 104 615 104 l 664 104 l 647 -14 l 615 -14 q 506 8 543 -14 q 447 78 469 31 q 356 10 410 35 q 238 -14 301 -14 m 282 100 q 363 119 322 100 q 432 174 404 139 l 432 335 q 182 194 182 326 q 282 100 182 100 m 153 872 l 332 1026 l 511 872 l 511 778 l 332 890 l 153 778 l 153 872 m 269 -112 l 408 -112 l 408 -242 l 269 -242 l 269 -112 z "},"ầ":{"ha":678,"x_min":32,"x_max":664,"o":"m 238 -14 q 90 42 147 -14 q 32 188 32 97 q 95 332 32 278 q 249 409 158 386 q 432 433 339 432 q 398 542 431 513 q 293 572 365 572 q 205 559 249 572 q 108 514 161 546 l 92 632 q 205 681 143 664 q 332 699 267 699 q 518 629 460 699 q 576 393 576 560 l 576 233 q 581 153 576 179 q 601 115 586 126 q 647 104 615 104 l 664 104 l 647 -14 l 615 -14 q 506 8 543 -14 q 447 78 469 31 q 356 10 410 35 q 238 -14 301 -14 m 282 100 q 363 119 322 100 q 432 174 404 139 l 432 335 q 182 194 182 326 q 282 100 182 100 m 461 967 l 343 1135 l 482 1135 l 557 967 l 461 967 m 511 853 l 511 761 l 332 856 l 153 761 l 153 853 l 332 979 l 511 853 z "},"ẩ":{"ha":678,"x_min":32,"x_max":664,"o":"m 238 -14 q 90 42 147 -14 q 32 188 32 97 q 95 332 32 278 q 249 409 158 386 q 432 433 339 432 q 398 542 431 513 q 293 572 365 572 q 205 559 249 572 q 108 514 161 546 l 92 632 q 205 681 143 664 q 332 699 267 699 q 518 629 460 699 q 576 393 576 560 l 576 233 q 581 153 576 179 q 601 115 586 126 q 647 104 615 104 l 664 104 l 647 -14 l 615 -14 q 506 8 543 -14 q 447 78 469 31 q 356 10 410 35 q 238 -14 301 -14 m 282 100 q 363 119 322 100 q 432 174 404 139 l 432 335 q 182 194 182 326 q 282 100 182 100 m 511 847 l 511 756 l 332 850 l 153 756 l 153 847 l 332 974 l 511 847 m 451 983 q 501 1035 501 999 q 447 1076 501 1076 q 361 1050 410 1076 l 338 1126 q 449 1153 388 1153 q 547 1124 508 1153 q 586 1043 586 1094 q 557 967 586 996 q 465 925 528 939 l 451 983 z "},"ẫ":{"ha":678,"x_min":32,"x_max":664,"o":"m 238 -14 q 90 42 147 -14 q 32 188 32 97 q 95 332 32 278 q 249 409 158 386 q 432 433 339 432 q 398 542 431 513 q 293 572 365 572 q 205 559 249 572 q 108 514 161 546 l 92 632 q 205 681 143 664 q 332 699 267 699 q 518 629 460 699 q 576 393 576 560 l 576 233 q 581 153 576 179 q 601 115 586 126 q 647 104 615 104 l 664 104 l 647 -14 l 615 -14 q 506 8 543 -14 q 447 78 469 31 q 356 10 410 35 q 238 -14 301 -14 m 282 100 q 363 119 322 100 q 432 174 404 139 l 432 335 q 182 194 182 326 q 282 100 182 100 m 511 847 l 511 756 l 332 850 l 153 756 l 153 847 l 332 974 l 511 847 m 450 1029 q 403 1037 428 1029 q 343 1060 378 1044 q 256 1086 282 1086 q 221 1073 233 1086 q 208 1036 208 1060 l 111 1036 q 138 1142 111 1106 q 214 1179 164 1179 q 259 1172 236 1179 q 321 1147 282 1164 q 358 1133 328 1144 q 408 1121 388 1121 q 443 1134 431 1121 q 456 1171 456 1147 l 553 1171 q 526 1065 553 1101 q 450 1029 500 1029 z "},"ȁ":{"ha":678,"x_min":32,"x_max":664,"o":"m 238 -14 q 90 42 147 -14 q 32 188 32 97 q 95 332 32 278 q 249 409 158 386 q 432 433 339 432 q 398 542 431 513 q 293 572 365 572 q 205 559 249 572 q 108 514 161 546 l 92 632 q 205 681 143 664 q 332 699 267 699 q 518 629 460 699 q 576 393 576 560 l 576 233 q 581 153 576 179 q 601 115 586 126 q 647 104 615 104 l 664 104 l 647 -14 l 615 -14 q 506 8 543 -14 q 447 78 469 31 q 356 10 410 35 q 238 -14 301 -14 m 282 100 q 363 119 322 100 q 432 174 404 139 l 432 335 q 182 194 182 326 q 282 100 182 100 m 188 808 l 42 1046 l 188 1046 l 288 808 l 188 808 m 386 808 l 249 1046 l 396 1046 l 486 808 l 386 808 z "},"ä":{"ha":678,"x_min":32,"x_max":664,"o":"m 238 -14 q 90 42 147 -14 q 32 188 32 97 q 95 332 32 278 q 249 409 158 386 q 432 433 339 432 q 398 542 431 513 q 293 572 365 572 q 205 559 249 572 q 108 514 161 546 l 92 632 q 205 681 143 664 q 332 699 267 699 q 518 629 460 699 q 576 393 576 560 l 576 233 q 581 153 576 179 q 601 115 586 126 q 647 104 615 104 l 664 104 l 647 -14 l 615 -14 q 506 8 543 -14 q 447 78 469 31 q 356 10 410 35 q 238 -14 301 -14 m 282 100 q 363 119 322 100 q 432 174 404 139 l 432 335 q 182 194 182 326 q 282 100 182 100 m 133 938 l 258 938 l 258 821 l 133 821 l 133 938 m 406 938 l 531 938 l 531 821 l 406 821 l 406 938 z "},"ạ":{"ha":678,"x_min":32,"x_max":664,"o":"m 238 -14 q 90 42 147 -14 q 32 188 32 97 q 95 332 32 278 q 249 409 158 386 q 432 433 339 432 q 398 542 431 513 q 293 572 365 572 q 205 559 249 572 q 108 514 161 546 l 92 632 q 205 681 143 664 q 332 699 267 699 q 518 629 460 699 q 576 393 576 560 l 576 233 q 581 153 576 179 q 601 115 586 126 q 647 104 615 104 l 664 104 l 647 -14 l 615 -14 q 506 8 543 -14 q 447 78 469 31 q 356 10 410 35 q 238 -14 301 -14 m 282 100 q 363 119 322 100 q 432 174 404 139 l 432 335 q 182 194 182 326 q 282 100 182 100 m 269 -112 l 408 -112 l 408 -242 l 269 -242 l 269 -112 z "},"à":{"ha":678,"x_min":32,"x_max":664,"o":"m 238 -14 q 90 42 147 -14 q 32 188 32 97 q 95 332 32 278 q 249 409 158 386 q 432 433 339 432 q 398 542 431 513 q 293 572 365 572 q 205 559 249 572 q 108 514 161 546 l 92 632 q 205 681 143 664 q 332 699 267 699 q 518 629 460 699 q 576 393 576 560 l 576 233 q 581 153 576 179 q 601 115 586 126 q 647 104 615 104 l 664 104 l 647 -14 l 615 -14 q 506 8 543 -14 q 447 78 469 31 q 356 10 410 35 q 238 -14 301 -14 m 282 100 q 363 119 322 100 q 432 174 404 139 l 432 335 q 182 194 182 326 q 282 100 182 100 m 199 900 l 199 1046 l 464 892 l 464 796 l 199 900 z "},"ả":{"ha":678,"x_min":32,"x_max":664,"o":"m 238 -14 q 90 42 147 -14 q 32 188 32 97 q 95 332 32 278 q 249 409 158 386 q 432 433 339 432 q 398 542 431 513 q 293 572 365 572 q 205 559 249 572 q 108 514 161 546 l 92 632 q 205 681 143 664 q 332 699 267 699 q 518 629 460 699 q 576 393 576 560 l 576 233 q 581 153 576 179 q 601 115 586 126 q 647 104 615 104 l 664 104 l 647 -14 l 615 -14 q 506 8 543 -14 q 447 78 469 31 q 356 10 410 35 q 238 -14 301 -14 m 282 100 q 363 119 322 100 q 432 174 404 139 l 432 335 q 182 194 182 326 q 282 100 182 100 m 304 783 q 351 833 339 815 q 364 874 364 850 q 349 909 364 897 q 310 921 335 921 q 224 894 272 921 l 200 971 q 311 997 250 997 q 410 966 371 997 q 449 878 449 935 q 426 803 449 835 q 353 735 404 772 l 304 783 z "},"ȃ":{"ha":678,"x_min":32,"x_max":664,"o":"m 238 -14 q 90 42 147 -14 q 32 188 32 97 q 95 332 32 278 q 249 409 158 386 q 432 433 339 432 q 398 542 431 513 q 293 572 365 572 q 205 559 249 572 q 108 514 161 546 l 92 632 q 205 681 143 664 q 332 699 267 699 q 518 629 460 699 q 576 393 576 560 l 576 233 q 581 153 576 179 q 601 115 586 126 q 647 104 615 104 l 664 104 l 647 -14 l 615 -14 q 506 8 543 -14 q 447 78 469 31 q 356 10 410 35 q 238 -14 301 -14 m 282 100 q 363 119 322 100 q 432 174 404 139 l 432 335 q 182 194 182 326 q 282 100 182 100 m 332 990 q 484 938 429 990 q 539 807 539 885 l 425 807 q 399 871 425 849 q 332 893 374 893 q 265 871 290 893 q 239 807 239 849 l 125 807 q 180 938 125 885 q 332 990 235 990 z "},"ā":{"ha":678,"x_min":32,"x_max":664,"o":"m 238 -14 q 90 42 147 -14 q 32 188 32 97 q 95 332 32 278 q 249 409 158 386 q 432 433 339 432 q 398 542 431 513 q 293 572 365 572 q 205 559 249 572 q 108 514 161 546 l 92 632 q 205 681 143 664 q 332 699 267 699 q 518 629 460 699 q 576 393 576 560 l 576 233 q 581 153 576 179 q 601 115 586 126 q 647 104 615 104 l 664 104 l 647 -14 l 615 -14 q 506 8 543 -14 q 447 78 469 31 q 356 10 410 35 q 238 -14 301 -14 m 282 100 q 363 119 322 100 q 432 174 404 139 l 432 335 q 182 194 182 326 q 282 100 182 100 m 107 931 l 557 931 l 557 826 l 107 826 l 107 931 z "},"ą":{"ha":678,"x_min":32,"x_max":704,"o":"m 704 -264 q 586 -290 651 -290 q 485 -258 525 -290 q 446 -169 446 -226 q 475 -79 446 -122 q 547 -7 504 -36 q 488 22 510 1 q 447 78 465 43 q 356 10 410 35 q 238 -14 301 -14 q 90 42 147 -14 q 32 188 32 97 q 95 332 32 278 q 249 409 158 386 q 432 433 339 432 q 398 542 431 513 q 293 572 365 572 q 205 559 249 572 q 108 514 161 546 l 92 632 q 205 681 143 664 q 332 699 267 699 q 518 629 460 699 q 576 393 576 560 l 576 233 q 581 153 576 179 q 601 115 586 126 q 647 104 615 104 l 664 104 l 647 -14 l 619 -14 q 552 -81 575 -50 q 529 -146 529 -112 q 547 -197 529 -179 q 596 -214 565 -214 q 682 -192 638 -214 l 704 -264 m 432 335 q 182 194 182 326 q 282 100 182 100 q 363 119 322 100 q 432 174 404 139 l 432 335 z "},"å":{"ha":678,"x_min":32,"x_max":664,"o":"m 238 -14 q 90 42 147 -14 q 32 188 32 97 q 95 332 32 278 q 249 409 158 386 q 432 433 339 432 q 398 542 431 513 q 293 572 365 572 q 205 559 249 572 q 108 514 161 546 l 92 632 q 205 681 143 664 q 332 699 267 699 q 518 629 460 699 q 576 393 576 560 l 576 233 q 581 153 576 179 q 601 115 586 126 q 647 104 615 104 l 664 104 l 647 -14 l 615 -14 q 506 8 543 -14 q 447 78 469 31 q 356 10 410 35 q 238 -14 301 -14 m 282 100 q 363 119 322 100 q 432 174 404 139 l 432 335 q 182 194 182 326 q 282 100 182 100 m 332 790 q 226 830 265 790 q 188 928 188 869 q 227 1024 188 983 q 332 1065 267 1065 q 438 1025 399 1065 q 476 928 476 985 q 438 830 476 869 q 332 790 400 790 m 332 856 q 382 876 361 856 q 403 928 403 896 q 382 978 403 958 q 332 999 361 999 q 282 978 303 999 q 261 928 261 958 q 282 876 261 896 q 332 856 303 856 z "},"ǻ":{"ha":678,"x_min":32,"x_max":664,"o":"m 238 -14 q 90 42 147 -14 q 32 188 32 97 q 95 332 32 278 q 249 409 158 386 q 432 433 339 432 q 398 542 431 513 q 293 572 365 572 q 205 559 249 572 q 108 514 161 546 l 92 632 q 205 681 143 664 q 332 699 267 699 q 518 629 460 699 q 576 393 576 560 l 576 233 q 581 153 576 179 q 601 115 586 126 q 647 104 615 104 l 664 104 l 647 -14 l 615 -14 q 506 8 543 -14 q 447 78 469 31 q 356 10 410 35 q 238 -14 301 -14 m 282 100 q 363 119 322 100 q 432 174 404 139 l 432 335 q 182 194 182 326 q 282 100 182 100 m 332 790 q 226 830 265 790 q 188 928 188 869 q 227 1024 188 983 q 332 1065 267 1065 q 438 1025 399 1065 q 476 928 476 985 q 438 830 476 869 q 332 790 400 790 m 332 856 q 382 876 361 856 q 403 928 403 896 q 382 978 403 958 q 332 999 361 999 q 282 978 303 999 q 261 928 261 958 q 282 876 261 896 q 332 856 303 856 m 200 1207 l 465 1339 l 465 1200 l 200 1119 l 200 1207 z "},"ã":{"ha":678,"x_min":32,"x_max":664,"o":"m 238 -14 q 90 42 147 -14 q 32 188 32 97 q 95 332 32 278 q 249 409 158 386 q 432 433 339 432 q 398 542 431 513 q 293 572 365 572 q 205 559 249 572 q 108 514 161 546 l 92 632 q 205 681 143 664 q 332 699 267 699 q 518 629 460 699 q 576 393 576 560 l 576 233 q 581 153 576 179 q 601 115 586 126 q 647 104 615 104 l 664 104 l 647 -14 l 615 -14 q 506 8 543 -14 q 447 78 469 31 q 356 10 410 35 q 238 -14 301 -14 m 282 100 q 363 119 322 100 q 432 174 404 139 l 432 335 q 182 194 182 326 q 282 100 182 100 m 446 804 q 399 813 422 804 q 343 839 375 822 q 319 851 338 842 q 284 864 300 860 q 256 868 268 868 q 221 853 233 868 q 208 815 208 839 l 99 815 q 132 934 101 893 q 218 975 163 975 q 266 966 242 975 q 321 942 290 957 q 370 920 350 928 q 408 913 390 913 q 443 926 431 913 q 456 964 456 940 l 565 964 q 532 845 563 886 q 446 804 501 804 z "},"æ":{"ha":1085,"x_min":32,"x_max":1046,"o":"m 1046 406 q 1038 328 1046 369 l 588 328 q 657 163 596 215 q 808 110 718 110 q 1001 157 894 110 l 1015 39 q 796 -14 917 -14 q 629 19 701 -14 q 510 113 557 53 q 397 21 464 56 q 257 -14 329 -14 q 94 40 156 -14 q 32 182 32 93 q 150 367 32 311 q 433 426 268 424 q 399 536 431 500 q 293 572 367 572 q 205 559 249 572 q 108 514 161 546 l 92 632 q 205 681 143 664 q 332 699 267 699 q 456 676 407 699 q 535 603 506 653 q 637 674 578 649 q 765 699 696 699 q 917 660 854 699 q 1013 556 981 622 q 1046 406 1046 489 m 897 426 q 862 533 897 492 q 760 575 826 575 q 649 537 693 575 q 592 426 606 499 l 897 426 m 294 100 q 468 185 394 100 q 435 328 439 249 q 243 293 304 326 q 182 194 182 260 q 213 124 182 147 q 294 100 243 100 z "},"ǽ":{"ha":1085,"x_min":32,"x_max":1046,"o":"m 1046 406 q 1038 328 1046 369 l 588 328 q 657 163 596 215 q 808 110 718 110 q 1001 157 894 110 l 1015 39 q 796 -14 917 -14 q 629 19 701 -14 q 510 113 557 53 q 397 21 464 56 q 257 -14 329 -14 q 94 40 156 -14 q 32 182 32 93 q 150 367 32 311 q 433 426 268 424 q 399 536 431 500 q 293 572 367 572 q 205 559 249 572 q 108 514 161 546 l 92 632 q 205 681 143 664 q 332 699 267 699 q 456 676 407 699 q 535 603 506 653 q 637 674 578 649 q 765 699 696 699 q 917 660 854 699 q 1013 556 981 622 q 1046 406 1046 489 m 897 426 q 862 533 897 492 q 760 575 826 575 q 649 537 693 575 q 592 426 606 499 l 897 426 m 294 100 q 468 185 394 100 q 435 328 439 249 q 243 293 304 326 q 182 194 182 260 q 213 124 182 147 q 294 100 243 100 m 428 892 l 693 1046 l 693 900 l 428 796 l 428 892 z "},"b":{"ha":781,"x_min":82,"x_max":738,"o":"m 429 699 q 594 650 524 699 q 701 520 664 601 q 738 343 738 439 q 699 163 738 244 q 590 34 660 82 q 429 -14 519 -14 q 314 7 367 -14 q 222 67 261 28 l 214 0 l 82 0 l 82 1042 l 226 1042 l 226 619 q 317 678 265 657 q 429 699 369 699 m 410 110 q 541 176 492 110 q 590 343 590 242 q 542 510 590 446 q 410 575 493 575 q 272 514 324 575 q 219 343 219 453 q 271 170 219 231 q 410 110 322 110 z "},"c":{"ha":631,"x_min":43,"x_max":594,"o":"m 400 -14 q 206 33 286 -14 q 84 160 125 79 q 43 340 43 240 q 83 524 43 443 q 206 653 124 606 q 407 700 288 700 q 593 658 514 700 l 576 536 q 413 575 499 575 q 249 513 307 575 q 192 343 192 451 q 249 174 192 238 q 411 110 307 110 q 578 153 499 110 l 594 33 q 508 -1 561 13 q 400 -14 456 -14 z "},"ć":{"ha":631,"x_min":43,"x_max":594,"o":"m 400 -14 q 206 33 286 -14 q 84 160 125 79 q 43 340 43 240 q 83 524 43 443 q 206 653 124 606 q 407 700 288 700 q 593 658 514 700 l 576 536 q 413 575 499 575 q 249 513 307 575 q 192 343 192 451 q 249 174 192 238 q 411 110 307 110 q 578 153 499 110 l 594 33 q 508 -1 561 13 q 400 -14 456 -14 m 246 892 l 511 1046 l 511 900 l 246 796 l 246 892 z "},"č":{"ha":631,"x_min":43,"x_max":594,"o":"m 400 -14 q 206 33 286 -14 q 84 160 125 79 q 43 340 43 240 q 83 524 43 443 q 206 653 124 606 q 407 700 288 700 q 593 658 514 700 l 576 536 q 413 575 499 575 q 249 513 307 575 q 192 343 192 451 q 249 174 192 238 q 411 110 307 110 q 578 153 499 110 l 594 33 q 508 -1 561 13 q 400 -14 456 -14 m 199 929 l 199 1025 l 378 913 l 557 1025 l 557 929 l 378 775 l 199 929 z "},"ç":{"ha":631,"x_min":43,"x_max":594,"o":"m 397 -75 q 489 -106 456 -75 q 522 -192 522 -137 q 479 -287 522 -253 q 371 -322 436 -322 q 260 -296 307 -322 l 283 -221 q 372 -244 326 -244 q 420 -232 403 -244 q 438 -194 438 -219 q 368 -143 438 -143 q 303 -153 336 -143 l 338 -10 q 119 105 196 8 q 43 340 43 201 q 83 524 43 443 q 206 653 124 606 q 407 700 288 700 q 593 658 514 700 l 576 536 q 413 575 499 575 q 249 513 307 575 q 192 343 192 451 q 249 174 192 238 q 411 110 307 110 q 578 153 499 110 l 594 33 q 511 1 561 14 q 408 -14 461 -12 l 389 -75 l 397 -75 z "},"ḉ":{"ha":631,"x_min":43,"x_max":594,"o":"m 511 900 l 246 796 l 246 892 l 511 1046 l 511 900 m 397 -75 q 489 -106 456 -75 q 522 -192 522 -137 q 479 -287 522 -253 q 371 -322 436 -322 q 260 -296 307 -322 l 283 -221 q 372 -244 326 -244 q 420 -232 403 -244 q 438 -194 438 -219 q 368 -143 438 -143 q 303 -153 336 -143 l 338 -10 q 119 105 196 8 q 43 340 43 201 q 83 524 43 443 q 206 653 124 606 q 407 700 288 700 q 593 658 514 700 l 576 536 q 413 575 499 575 q 249 513 307 575 q 192 343 192 451 q 249 174 192 238 q 411 110 307 110 q 578 153 499 110 l 594 33 q 511 1 561 14 q 408 -14 461 -12 l 389 -75 l 397 -75 z "},"ĉ":{"ha":631,"x_min":43,"x_max":594,"o":"m 400 -14 q 206 33 286 -14 q 84 160 125 79 q 43 340 43 240 q 83 524 43 443 q 206 653 124 606 q 407 700 288 700 q 593 658 514 700 l 576 536 q 413 575 499 575 q 249 513 307 575 q 192 343 192 451 q 249 174 192 238 q 411 110 307 110 q 578 153 499 110 l 594 33 q 508 -1 561 13 q 400 -14 456 -14 m 199 872 l 378 1026 l 557 872 l 557 778 l 378 890 l 199 778 l 199 872 z "},"ċ":{"ha":631,"x_min":43,"x_max":594,"o":"m 400 -14 q 206 33 286 -14 q 84 160 125 79 q 43 340 43 240 q 83 524 43 443 q 206 653 124 606 q 407 700 288 700 q 593 658 514 700 l 576 536 q 413 575 499 575 q 249 513 307 575 q 192 343 192 451 q 249 174 192 238 q 411 110 307 110 q 578 153 499 110 l 594 33 q 508 -1 561 13 q 400 -14 456 -14 m 308 957 l 447 957 l 447 828 l 308 828 l 308 957 z "},"d":{"ha":781,"x_min":42,"x_max":699,"o":"m 699 1042 l 699 0 l 565 0 l 557 65 q 357 -14 481 -14 q 193 33 265 -14 q 81 163 121 81 q 42 342 42 244 q 80 519 42 438 q 190 650 118 601 q 357 699 261 699 q 554 625 479 699 l 554 1042 l 699 1042 m 381 110 q 513 170 461 110 q 565 342 565 231 q 513 512 565 449 q 381 575 460 575 q 242 510 293 575 q 190 342 190 446 q 242 176 190 242 q 381 110 293 110 z "},"ð":{"ha":708,"x_min":32,"x_max":665,"o":"m 485 831 q 619 619 572 743 q 665 357 665 496 q 621 149 665 233 q 503 24 576 65 q 342 -17 429 -17 q 181 24 251 -17 q 71 133 110 64 q 32 285 32 201 q 68 435 32 365 q 172 549 104 506 q 329 592 240 592 q 503 525 433 592 q 392 778 483 679 l 233 688 l 185 768 l 314 842 q 185 897 257 879 l 210 974 q 408 894 317 956 l 544 972 l 592 892 l 485 831 m 346 108 q 460 157 415 108 q 506 289 506 206 q 463 419 506 371 q 344 468 419 468 q 226 417 269 468 q 182 297 182 365 q 226 163 182 218 q 346 108 269 108 z "},"ď":{"ha":872,"x_min":42,"x_max":899,"o":"m 699 1042 l 699 0 l 565 0 l 557 65 q 357 -14 481 -14 q 193 33 265 -14 q 81 163 121 81 q 42 342 42 244 q 80 519 42 438 q 190 650 118 601 q 357 699 261 699 q 554 625 479 699 l 554 1042 l 699 1042 m 381 110 q 513 170 461 110 q 565 342 565 231 q 513 512 565 449 q 381 575 460 575 q 242 510 293 575 q 190 342 190 446 q 242 176 190 242 q 381 110 293 110 m 765 1042 l 899 1042 l 860 804 l 765 804 l 765 1042 z "},"đ":{"ha":782,"x_min":42,"x_max":801,"o":"m 801 815 l 699 815 l 699 0 l 565 0 l 557 65 q 357 -14 481 -14 q 193 33 265 -14 q 81 163 121 81 q 42 342 42 244 q 80 519 42 438 q 190 650 118 601 q 357 699 261 699 q 554 625 479 699 l 554 815 l 346 815 l 346 921 l 554 921 l 554 1042 l 699 1042 l 699 921 l 801 921 l 801 815 m 381 110 q 513 170 461 110 q 565 342 565 231 q 513 512 565 449 q 381 575 460 575 q 242 510 293 575 q 190 342 190 446 q 242 176 190 242 q 381 110 293 110 z "},"ḍ":{"ha":781,"x_min":42,"x_max":699,"o":"m 699 1042 l 699 0 l 565 0 l 557 65 q 357 -14 481 -14 q 193 33 265 -14 q 81 163 121 81 q 42 342 42 244 q 80 519 42 438 q 190 650 118 601 q 357 699 261 699 q 554 625 479 699 l 554 1042 l 699 1042 m 381 110 q 513 170 461 110 q 565 342 565 231 q 513 512 565 449 q 381 575 460 575 q 242 510 293 575 q 190 342 190 446 q 242 176 190 242 q 381 110 293 110 m 321 -112 l 460 -112 l 460 -242 l 321 -242 l 321 -112 z "},"ḏ":{"ha":781,"x_min":42,"x_max":699,"o":"m 699 1042 l 699 0 l 565 0 l 557 65 q 357 -14 481 -14 q 193 33 265 -14 q 81 163 121 81 q 42 342 42 244 q 80 519 42 438 q 190 650 118 601 q 357 699 261 699 q 554 625 479 699 l 554 1042 l 699 1042 m 381 110 q 513 170 461 110 q 565 342 565 231 q 513 512 565 449 q 381 575 460 575 q 242 510 293 575 q 190 342 190 446 q 242 176 190 242 q 381 110 293 110 m 165 -126 l 615 -126 l 615 -231 l 165 -231 l 165 -126 z "},"ǆ":{"ha":1435,"x_min":42,"x_max":1406,"o":"m 699 1042 l 699 0 l 565 0 l 557 65 q 357 -14 481 -14 q 193 33 265 -14 q 81 163 121 81 q 42 342 42 244 q 80 519 42 438 q 190 650 118 601 q 357 699 261 699 q 554 625 479 699 l 554 1042 l 699 1042 m 381 110 q 513 170 461 110 q 565 342 565 231 q 513 512 565 449 q 381 575 460 575 q 242 510 293 575 q 190 342 190 446 q 242 176 190 242 q 381 110 293 110 m 1043 125 l 1403 125 l 1403 0 l 808 0 l 1171 561 l 835 561 l 835 686 l 1406 686 l 1043 125 m 938 938 l 938 1033 l 1117 921 l 1296 1033 l 1296 938 l 1117 783 l 938 938 z "},"e":{"ha":713,"x_min":42,"x_max":674,"o":"m 413 -14 q 210 35 294 -14 q 84 165 126 83 q 42 349 42 247 q 81 524 42 444 q 197 651 121 604 q 376 699 272 699 q 593 619 513 699 q 674 406 674 539 q 665 328 674 369 l 190 328 q 267 161 204 213 q 428 110 331 110 q 629 157 538 110 l 643 39 q 413 -14 532 -14 m 525 426 q 488 533 525 492 q 375 575 450 575 q 199 426 235 575 l 525 426 z "},"é":{"ha":713,"x_min":42,"x_max":674,"o":"m 413 -14 q 210 35 294 -14 q 84 165 126 83 q 42 349 42 247 q 81 524 42 444 q 197 651 121 604 q 376 699 272 699 q 593 619 513 699 q 674 406 674 539 q 665 328 674 369 l 190 328 q 267 161 204 213 q 428 110 331 110 q 629 157 538 110 l 643 39 q 413 -14 532 -14 m 525 426 q 488 533 525 492 q 375 575 450 575 q 199 426 235 575 l 525 426 m 256 892 l 521 1046 l 521 900 l 256 796 l 256 892 z "},"ĕ":{"ha":713,"x_min":42,"x_max":674,"o":"m 413 -14 q 210 35 294 -14 q 84 165 126 83 q 42 349 42 247 q 81 524 42 444 q 197 651 121 604 q 376 699 272 699 q 593 619 513 699 q 674 406 674 539 q 665 328 674 369 l 190 328 q 267 161 204 213 q 428 110 331 110 q 629 157 538 110 l 643 39 q 413 -14 532 -14 m 525 426 q 488 533 525 492 q 375 575 450 575 q 199 426 235 575 l 525 426 m 388 807 q 235 860 290 807 q 181 990 181 913 l 294 990 q 320 926 294 949 q 388 903 346 903 q 455 926 429 903 q 481 990 481 949 l 594 990 q 540 860 594 913 q 388 807 485 807 z "},"ě":{"ha":713,"x_min":42,"x_max":674,"o":"m 413 -14 q 210 35 294 -14 q 84 165 126 83 q 42 349 42 247 q 81 524 42 444 q 197 651 121 604 q 376 699 272 699 q 593 619 513 699 q 674 406 674 539 q 665 328 674 369 l 190 328 q 267 161 204 213 q 428 110 331 110 q 629 157 538 110 l 643 39 q 413 -14 532 -14 m 525 426 q 488 533 525 492 q 375 575 450 575 q 199 426 235 575 l 525 426 m 208 929 l 208 1025 l 388 913 l 567 1025 l 567 929 l 388 775 l 208 929 z "},"ḝ":{"ha":713,"x_min":42,"x_max":674,"o":"m 388 807 q 235 860 290 807 q 181 990 181 913 l 294 990 q 320 926 294 949 q 388 903 346 903 q 455 926 429 903 q 481 990 481 949 l 594 990 q 540 860 594 913 q 388 807 485 807 m 674 406 q 665 328 674 369 l 190 328 q 267 161 204 213 q 428 110 331 110 q 629 157 538 110 l 643 39 q 413 -14 532 -14 l 393 -14 l 374 -75 l 382 -75 q 474 -106 440 -75 q 507 -192 507 -137 q 464 -287 507 -253 q 356 -322 421 -322 q 244 -296 292 -322 l 268 -221 q 357 -244 311 -244 q 405 -232 388 -244 q 422 -194 422 -219 q 353 -143 422 -143 q 288 -153 321 -143 l 324 -6 q 115 117 189 19 q 42 349 42 214 q 81 524 42 444 q 197 651 121 604 q 376 699 272 699 q 593 619 513 699 q 674 406 674 539 m 525 426 q 488 533 525 492 q 375 575 450 575 q 199 426 235 575 l 525 426 z "},"ê":{"ha":713,"x_min":42,"x_max":674,"o":"m 413 -14 q 210 35 294 -14 q 84 165 126 83 q 42 349 42 247 q 81 524 42 444 q 197 651 121 604 q 376 699 272 699 q 593 619 513 699 q 674 406 674 539 q 665 328 674 369 l 190 328 q 267 161 204 213 q 428 110 331 110 q 629 157 538 110 l 643 39 q 413 -14 532 -14 m 525 426 q 488 533 525 492 q 375 575 450 575 q 199 426 235 575 l 525 426 m 208 872 l 388 1026 l 567 872 l 567 778 l 388 890 l 208 778 l 208 872 z "},"ế":{"ha":713,"x_min":42,"x_max":731,"o":"m 413 -14 q 210 35 294 -14 q 84 165 126 83 q 42 349 42 247 q 81 524 42 444 q 197 651 121 604 q 376 699 272 699 q 593 619 513 699 q 674 406 674 539 q 665 328 674 369 l 190 328 q 267 161 204 213 q 428 110 331 110 q 629 157 538 110 l 643 39 q 413 -14 532 -14 m 525 426 q 488 533 525 492 q 375 575 450 575 q 199 426 235 575 l 525 426 m 583 1135 l 731 1135 l 592 967 l 492 967 l 583 1135 m 567 853 l 567 761 l 388 856 l 208 761 l 208 853 l 388 979 l 567 853 z "},"ệ":{"ha":713,"x_min":42,"x_max":674,"o":"m 413 -14 q 210 35 294 -14 q 84 165 126 83 q 42 349 42 247 q 81 524 42 444 q 197 651 121 604 q 376 699 272 699 q 593 619 513 699 q 674 406 674 539 q 665 328 674 369 l 190 328 q 267 161 204 213 q 428 110 331 110 q 629 157 538 110 l 643 39 q 413 -14 532 -14 m 525 426 q 488 533 525 492 q 375 575 450 575 q 199 426 235 575 l 525 426 m 208 872 l 388 1026 l 567 872 l 567 778 l 388 890 l 208 778 l 208 872 m 288 -112 l 426 -112 l 426 -242 l 288 -242 l 288 -112 z "},"ề":{"ha":713,"x_min":42,"x_max":674,"o":"m 413 -14 q 210 35 294 -14 q 84 165 126 83 q 42 349 42 247 q 81 524 42 444 q 197 651 121 604 q 376 699 272 699 q 593 619 513 699 q 674 406 674 539 q 665 328 674 369 l 190 328 q 267 161 204 213 q 428 110 331 110 q 629 157 538 110 l 643 39 q 413 -14 532 -14 m 525 426 q 488 533 525 492 q 375 575 450 575 q 199 426 235 575 l 525 426 m 517 967 l 399 1135 l 538 1135 l 613 967 l 517 967 m 567 853 l 567 761 l 388 856 l 208 761 l 208 853 l 388 979 l 567 853 z "},"ể":{"ha":713,"x_min":42,"x_max":674,"o":"m 413 -14 q 210 35 294 -14 q 84 165 126 83 q 42 349 42 247 q 81 524 42 444 q 197 651 121 604 q 376 699 272 699 q 593 619 513 699 q 674 406 674 539 q 665 328 674 369 l 190 328 q 267 161 204 213 q 428 110 331 110 q 629 157 538 110 l 643 39 q 413 -14 532 -14 m 525 426 q 488 533 525 492 q 375 575 450 575 q 199 426 235 575 l 525 426 m 567 847 l 567 756 l 388 850 l 208 756 l 208 847 l 388 974 l 567 847 m 507 983 q 557 1035 557 999 q 503 1076 557 1076 q 417 1050 465 1076 l 393 1126 q 504 1153 443 1153 q 603 1124 564 1153 q 642 1043 642 1094 q 613 967 642 996 q 521 925 583 939 l 507 983 z "},"ễ":{"ha":713,"x_min":42,"x_max":674,"o":"m 413 -14 q 210 35 294 -14 q 84 165 126 83 q 42 349 42 247 q 81 524 42 444 q 197 651 121 604 q 376 699 272 699 q 593 619 513 699 q 674 406 674 539 q 665 328 674 369 l 190 328 q 267 161 204 213 q 428 110 331 110 q 629 157 538 110 l 643 39 q 413 -14 532 -14 m 525 426 q 488 533 525 492 q 375 575 450 575 q 199 426 235 575 l 525 426 m 567 847 l 567 756 l 388 850 l 208 756 l 208 847 l 388 974 l 567 847 m 506 1029 q 458 1037 483 1029 q 399 1060 433 1044 q 311 1086 338 1086 q 276 1073 289 1086 q 264 1036 264 1060 l 167 1036 q 193 1142 167 1106 q 269 1179 219 1179 q 315 1172 292 1179 q 376 1147 338 1164 q 413 1133 383 1144 q 464 1121 443 1121 q 499 1134 486 1121 q 511 1171 511 1147 l 608 1171 q 582 1065 608 1101 q 506 1029 556 1029 z "},"ȅ":{"ha":713,"x_min":42,"x_max":674,"o":"m 413 -14 q 210 35 294 -14 q 84 165 126 83 q 42 349 42 247 q 81 524 42 444 q 197 651 121 604 q 376 699 272 699 q 593 619 513 699 q 674 406 674 539 q 665 328 674 369 l 190 328 q 267 161 204 213 q 428 110 331 110 q 629 157 538 110 l 643 39 q 413 -14 532 -14 m 525 426 q 488 533 525 492 q 375 575 450 575 q 199 426 235 575 l 525 426 m 243 808 l 97 1046 l 243 1046 l 343 808 l 243 808 m 442 808 l 304 1046 l 451 1046 l 542 808 l 442 808 z "},"ë":{"ha":713,"x_min":42,"x_max":674,"o":"m 413 -14 q 210 35 294 -14 q 84 165 126 83 q 42 349 42 247 q 81 524 42 444 q 197 651 121 604 q 376 699 272 699 q 593 619 513 699 q 674 406 674 539 q 665 328 674 369 l 190 328 q 267 161 204 213 q 428 110 331 110 q 629 157 538 110 l 643 39 q 413 -14 532 -14 m 525 426 q 488 533 525 492 q 375 575 450 575 q 199 426 235 575 l 525 426 m 189 938 l 314 938 l 314 821 l 189 821 l 189 938 m 461 938 l 586 938 l 586 821 l 461 821 l 461 938 z "},"ė":{"ha":713,"x_min":42,"x_max":674,"o":"m 413 -14 q 210 35 294 -14 q 84 165 126 83 q 42 349 42 247 q 81 524 42 444 q 197 651 121 604 q 376 699 272 699 q 593 619 513 699 q 674 406 674 539 q 665 328 674 369 l 190 328 q 267 161 204 213 q 428 110 331 110 q 629 157 538 110 l 643 39 q 413 -14 532 -14 m 525 426 q 488 533 525 492 q 375 575 450 575 q 199 426 235 575 l 525 426 m 318 957 l 457 957 l 457 828 l 318 828 l 318 957 z "},"ẹ":{"ha":713,"x_min":42,"x_max":674,"o":"m 413 -14 q 210 35 294 -14 q 84 165 126 83 q 42 349 42 247 q 81 524 42 444 q 197 651 121 604 q 376 699 272 699 q 593 619 513 699 q 674 406 674 539 q 665 328 674 369 l 190 328 q 267 161 204 213 q 428 110 331 110 q 629 157 538 110 l 643 39 q 413 -14 532 -14 m 525 426 q 488 533 525 492 q 375 575 450 575 q 199 426 235 575 l 525 426 m 288 -112 l 426 -112 l 426 -242 l 288 -242 l 288 -112 z "},"è":{"ha":713,"x_min":42,"x_max":674,"o":"m 413 -14 q 210 35 294 -14 q 84 165 126 83 q 42 349 42 247 q 81 524 42 444 q 197 651 121 604 q 376 699 272 699 q 593 619 513 699 q 674 406 674 539 q 665 328 674 369 l 190 328 q 267 161 204 213 q 428 110 331 110 q 629 157 538 110 l 643 39 q 413 -14 532 -14 m 525 426 q 488 533 525 492 q 375 575 450 575 q 199 426 235 575 l 525 426 m 254 900 l 254 1046 l 519 892 l 519 796 l 254 900 z "},"ẻ":{"ha":713,"x_min":42,"x_max":674,"o":"m 413 -14 q 210 35 294 -14 q 84 165 126 83 q 42 349 42 247 q 81 524 42 444 q 197 651 121 604 q 376 699 272 699 q 593 619 513 699 q 674 406 674 539 q 665 328 674 369 l 190 328 q 267 161 204 213 q 428 110 331 110 q 629 157 538 110 l 643 39 q 413 -14 532 -14 m 525 426 q 488 533 525 492 q 375 575 450 575 q 199 426 235 575 l 525 426 m 360 783 q 407 833 394 815 q 419 874 419 850 q 405 909 419 897 q 365 921 390 921 q 279 894 328 921 l 256 971 q 367 997 306 997 q 465 966 426 997 q 504 878 504 935 q 482 803 504 835 q 408 735 460 772 l 360 783 z "},"ȇ":{"ha":713,"x_min":42,"x_max":674,"o":"m 413 -14 q 210 35 294 -14 q 84 165 126 83 q 42 349 42 247 q 81 524 42 444 q 197 651 121 604 q 376 699 272 699 q 593 619 513 699 q 674 406 674 539 q 665 328 674 369 l 190 328 q 267 161 204 213 q 428 110 331 110 q 629 157 538 110 l 643 39 q 413 -14 532 -14 m 525 426 q 488 533 525 492 q 375 575 450 575 q 199 426 235 575 l 525 426 m 388 990 q 540 938 485 990 q 594 807 594 885 l 481 807 q 455 871 481 849 q 388 893 429 893 q 320 871 346 893 q 294 807 294 849 l 181 807 q 235 938 181 885 q 388 990 290 990 z "},"ē":{"ha":713,"x_min":42,"x_max":674,"o":"m 413 -14 q 210 35 294 -14 q 84 165 126 83 q 42 349 42 247 q 81 524 42 444 q 197 651 121 604 q 376 699 272 699 q 593 619 513 699 q 674 406 674 539 q 665 328 674 369 l 190 328 q 267 161 204 213 q 428 110 331 110 q 629 157 538 110 l 643 39 q 413 -14 532 -14 m 525 426 q 488 533 525 492 q 375 575 450 575 q 199 426 235 575 l 525 426 m 163 931 l 613 931 l 613 826 l 163 826 l 163 931 z "},"ḗ":{"ha":713,"x_min":42,"x_max":674,"o":"m 413 -14 q 210 35 294 -14 q 84 165 126 83 q 42 349 42 247 q 81 524 42 444 q 197 651 121 604 q 376 699 272 699 q 593 619 513 699 q 674 406 674 539 q 665 328 674 369 l 190 328 q 267 161 204 213 q 428 110 331 110 q 629 157 538 110 l 643 39 q 413 -14 532 -14 m 525 426 q 488 533 525 492 q 375 575 450 575 q 199 426 235 575 l 525 426 m 163 915 l 613 915 l 613 815 l 163 815 l 163 915 m 256 1099 l 521 1231 l 521 1092 l 256 1011 l 256 1099 z "},"ḕ":{"ha":713,"x_min":42,"x_max":674,"o":"m 413 -14 q 210 35 294 -14 q 84 165 126 83 q 42 349 42 247 q 81 524 42 444 q 197 651 121 604 q 376 699 272 699 q 593 619 513 699 q 674 406 674 539 q 665 328 674 369 l 190 328 q 267 161 204 213 q 428 110 331 110 q 629 157 538 110 l 643 39 q 413 -14 532 -14 m 525 426 q 488 533 525 492 q 375 575 450 575 q 199 426 235 575 l 525 426 m 163 915 l 613 915 l 613 815 l 163 815 l 163 915 m 254 1092 l 254 1231 l 519 1099 l 519 1011 l 254 1092 z "},"ę":{"ha":713,"x_min":42,"x_max":710,"o":"m 710 -225 q 592 -251 657 -251 q 491 -219 531 -251 q 451 -131 451 -187 q 510 -4 451 -65 q 413 -14 467 -14 q 210 35 294 -14 q 84 165 126 83 q 42 349 42 247 q 81 524 42 444 q 197 651 121 604 q 376 699 272 699 q 593 619 513 699 q 674 406 674 539 q 665 328 674 369 l 190 328 q 267 161 204 213 q 428 110 331 110 q 629 157 538 110 l 643 39 q 563 -37 590 -1 q 535 -107 535 -72 q 553 -158 535 -140 q 601 -175 571 -175 q 688 -153 643 -175 l 710 -225 m 375 575 q 199 426 235 575 l 525 426 q 488 533 525 492 q 375 575 450 575 z "},"ẽ":{"ha":713,"x_min":42,"x_max":674,"o":"m 413 -14 q 210 35 294 -14 q 84 165 126 83 q 42 349 42 247 q 81 524 42 444 q 197 651 121 604 q 376 699 272 699 q 593 619 513 699 q 674 406 674 539 q 665 328 674 369 l 190 328 q 267 161 204 213 q 428 110 331 110 q 629 157 538 110 l 643 39 q 413 -14 532 -14 m 525 426 q 488 533 525 492 q 375 575 450 575 q 199 426 235 575 l 525 426 m 501 804 q 454 813 478 804 q 399 839 431 822 q 374 851 393 842 q 340 864 356 860 q 311 868 324 868 q 276 853 289 868 q 264 815 264 839 l 154 815 q 188 934 157 893 q 274 975 218 975 q 322 966 297 975 q 376 942 346 957 q 426 920 406 928 q 464 913 446 913 q 499 926 486 913 q 511 964 511 940 l 621 964 q 588 845 618 886 q 501 804 557 804 z "},"ə":{"ha":713,"x_min":39,"x_max":671,"o":"m 300 700 q 502 651 418 700 q 628 521 586 603 q 671 338 671 439 q 631 162 671 242 q 516 35 592 82 q 336 -12 440 -12 q 119 67 200 -12 q 39 281 39 147 q 47 358 39 317 l 522 358 q 445 525 508 474 q 285 576 382 576 q 83 529 175 576 l 69 647 q 300 700 181 700 m 188 260 q 225 153 188 194 q 338 111 263 111 q 514 260 478 111 l 188 260 z "},"f":{"ha":465,"x_min":18,"x_max":443,"o":"m 128 571 l 18 571 l 35 686 l 128 686 l 128 842 q 180 988 128 935 q 328 1042 232 1042 q 438 1026 385 1042 l 421 907 q 357 917 386 917 q 272 824 272 917 l 272 686 l 443 686 l 443 571 l 272 571 l 272 0 l 128 0 l 128 571 z "},"g":{"ha":693,"x_min":35,"x_max":694,"o":"m 358 -349 q 124 -295 213 -349 q 35 -147 35 -242 q 150 14 35 -44 q 86 106 86 49 q 163 204 86 171 q 78 298 107 239 q 49 431 49 357 q 82 567 49 506 q 179 664 115 628 q 331 700 243 700 q 493 651 422 700 q 654 688 560 688 l 679 688 l 665 594 l 621 594 q 560 588 588 594 q 611 431 611 521 q 578 292 611 354 q 481 193 544 229 q 331 157 417 157 q 246 168 288 157 q 221 138 221 160 q 241 110 221 121 q 306 93 261 99 l 461 69 q 635 4 575 53 q 694 -129 694 -44 q 605 -291 694 -233 q 358 -349 515 -349 m 331 268 q 438 312 400 268 q 476 429 476 356 q 438 545 476 501 q 331 589 400 589 q 222 545 260 589 q 183 429 183 501 q 222 312 183 356 q 331 268 260 268 m 367 -229 q 557 -136 557 -229 q 526 -78 557 -99 q 429 -46 496 -58 l 253 -18 q 164 -122 164 -56 q 217 -203 164 -176 q 367 -229 271 -229 z "},"ğ":{"ha":693,"x_min":35,"x_max":694,"o":"m 358 -349 q 124 -295 213 -349 q 35 -147 35 -242 q 150 14 35 -44 q 86 106 86 49 q 163 204 86 171 q 78 298 107 239 q 49 431 49 357 q 82 567 49 506 q 179 664 115 628 q 331 700 243 700 q 493 651 422 700 q 654 688 560 688 l 679 688 l 665 594 l 621 594 q 560 588 588 594 q 611 431 611 521 q 578 292 611 354 q 481 193 544 229 q 331 157 417 157 q 246 168 288 157 q 221 138 221 160 q 241 110 221 121 q 306 93 261 99 l 461 69 q 635 4 575 53 q 694 -129 694 -44 q 605 -291 694 -233 q 358 -349 515 -349 m 331 268 q 438 312 400 268 q 476 429 476 356 q 438 545 476 501 q 331 589 400 589 q 222 545 260 589 q 183 429 183 501 q 222 312 183 356 q 331 268 260 268 m 367 -229 q 557 -136 557 -229 q 526 -78 557 -99 q 429 -46 496 -58 l 253 -18 q 164 -122 164 -56 q 217 -203 164 -176 q 367 -229 271 -229 m 350 807 q 198 860 253 807 q 143 990 143 913 l 257 990 q 283 926 257 949 q 350 903 308 903 q 417 926 392 903 q 443 990 443 949 l 557 990 q 502 860 557 913 q 350 807 447 807 z "},"ǧ":{"ha":693,"x_min":35,"x_max":694,"o":"m 358 -349 q 124 -295 213 -349 q 35 -147 35 -242 q 150 14 35 -44 q 86 106 86 49 q 163 204 86 171 q 78 298 107 239 q 49 431 49 357 q 82 567 49 506 q 179 664 115 628 q 331 700 243 700 q 493 651 422 700 q 654 688 560 688 l 679 688 l 665 594 l 621 594 q 560 588 588 594 q 611 431 611 521 q 578 292 611 354 q 481 193 544 229 q 331 157 417 157 q 246 168 288 157 q 221 138 221 160 q 241 110 221 121 q 306 93 261 99 l 461 69 q 635 4 575 53 q 694 -129 694 -44 q 605 -291 694 -233 q 358 -349 515 -349 m 331 268 q 438 312 400 268 q 476 429 476 356 q 438 545 476 501 q 331 589 400 589 q 222 545 260 589 q 183 429 183 501 q 222 312 183 356 q 331 268 260 268 m 367 -229 q 557 -136 557 -229 q 526 -78 557 -99 q 429 -46 496 -58 l 253 -18 q 164 -122 164 -56 q 217 -203 164 -176 q 367 -229 271 -229 m 171 929 l 171 1025 l 350 913 l 529 1025 l 529 929 l 350 775 l 171 929 z "},"ĝ":{"ha":693,"x_min":35,"x_max":694,"o":"m 358 -349 q 124 -295 213 -349 q 35 -147 35 -242 q 150 14 35 -44 q 86 106 86 49 q 163 204 86 171 q 78 298 107 239 q 49 431 49 357 q 82 567 49 506 q 179 664 115 628 q 331 700 243 700 q 493 651 422 700 q 654 688 560 688 l 679 688 l 665 594 l 621 594 q 560 588 588 594 q 611 431 611 521 q 578 292 611 354 q 481 193 544 229 q 331 157 417 157 q 246 168 288 157 q 221 138 221 160 q 241 110 221 121 q 306 93 261 99 l 461 69 q 635 4 575 53 q 694 -129 694 -44 q 605 -291 694 -233 q 358 -349 515 -349 m 331 268 q 438 312 400 268 q 476 429 476 356 q 438 545 476 501 q 331 589 400 589 q 222 545 260 589 q 183 429 183 501 q 222 312 183 356 q 331 268 260 268 m 367 -229 q 557 -136 557 -229 q 526 -78 557 -99 q 429 -46 496 -58 l 253 -18 q 164 -122 164 -56 q 217 -203 164 -176 q 367 -229 271 -229 m 171 872 l 350 1026 l 529 872 l 529 778 l 350 890 l 171 778 l 171 872 z "},"ģ":{"ha":693,"x_min":35,"x_max":694,"o":"m 358 -349 q 124 -295 213 -349 q 35 -147 35 -242 q 150 14 35 -44 q 86 106 86 49 q 163 204 86 171 q 78 298 107 239 q 49 431 49 357 q 82 567 49 506 q 179 664 115 628 q 331 700 243 700 q 493 651 422 700 q 654 688 560 688 l 679 688 l 665 594 l 621 594 q 560 588 588 594 q 611 431 611 521 q 578 292 611 354 q 481 193 544 229 q 331 157 417 157 q 246 168 288 157 q 221 138 221 160 q 241 110 221 121 q 306 93 261 99 l 461 69 q 635 4 575 53 q 694 -129 694 -44 q 605 -291 694 -233 q 358 -349 515 -349 m 331 268 q 438 312 400 268 q 476 429 476 356 q 438 545 476 501 q 331 589 400 589 q 222 545 260 589 q 183 429 183 501 q 222 312 183 356 q 331 268 260 268 m 367 -229 q 557 -136 557 -229 q 526 -78 557 -99 q 429 -46 496 -58 l 253 -18 q 164 -122 164 -56 q 217 -203 164 -176 q 367 -229 271 -229 m 425 1108 l 374 958 l 429 958 l 429 807 l 271 807 l 271 943 l 349 1108 l 425 1108 z "},"ġ":{"ha":693,"x_min":35,"x_max":694,"o":"m 358 -349 q 124 -295 213 -349 q 35 -147 35 -242 q 150 14 35 -44 q 86 106 86 49 q 163 204 86 171 q 78 298 107 239 q 49 431 49 357 q 82 567 49 506 q 179 664 115 628 q 331 700 243 700 q 493 651 422 700 q 654 688 560 688 l 679 688 l 665 594 l 621 594 q 560 588 588 594 q 611 431 611 521 q 578 292 611 354 q 481 193 544 229 q 331 157 417 157 q 246 168 288 157 q 221 138 221 160 q 241 110 221 121 q 306 93 261 99 l 461 69 q 635 4 575 53 q 694 -129 694 -44 q 605 -291 694 -233 q 358 -349 515 -349 m 331 268 q 438 312 400 268 q 476 429 476 356 q 438 545 476 501 q 331 589 400 589 q 222 545 260 589 q 183 429 183 501 q 222 312 183 356 q 331 268 260 268 m 367 -229 q 557 -136 557 -229 q 526 -78 557 -99 q 429 -46 496 -58 l 253 -18 q 164 -122 164 -56 q 217 -203 164 -176 q 367 -229 271 -229 m 281 957 l 419 957 l 419 828 l 281 828 l 281 957 z "},"ḡ":{"ha":693,"x_min":35,"x_max":694,"o":"m 358 -349 q 124 -295 213 -349 q 35 -147 35 -242 q 150 14 35 -44 q 86 106 86 49 q 163 204 86 171 q 78 298 107 239 q 49 431 49 357 q 82 567 49 506 q 179 664 115 628 q 331 700 243 700 q 493 651 422 700 q 654 688 560 688 l 679 688 l 665 594 l 621 594 q 560 588 588 594 q 611 431 611 521 q 578 292 611 354 q 481 193 544 229 q 331 157 417 157 q 246 168 288 157 q 221 138 221 160 q 241 110 221 121 q 306 93 261 99 l 461 69 q 635 4 575 53 q 694 -129 694 -44 q 605 -291 694 -233 q 358 -349 515 -349 m 331 268 q 438 312 400 268 q 476 429 476 356 q 438 545 476 501 q 331 589 400 589 q 222 545 260 589 q 183 429 183 501 q 222 312 183 356 q 331 268 260 268 m 367 -229 q 557 -136 557 -229 q 526 -78 557 -99 q 429 -46 496 -58 l 253 -18 q 164 -122 164 -56 q 217 -203 164 -176 q 367 -229 271 -229 m 125 931 l 575 931 l 575 826 l 125 826 l 125 931 z "},"h":{"ha":758,"x_min":82,"x_max":682,"o":"m 418 699 q 615 614 549 699 q 682 382 682 529 l 682 0 l 538 0 l 538 368 q 500 525 538 475 q 383 575 463 575 q 228 497 288 575 l 228 0 l 82 0 l 82 1042 l 228 1042 l 228 631 q 313 681 268 664 q 418 699 358 699 z "},"ħ":{"ha":761,"x_min":-18,"x_max":685,"o":"m 426 699 q 622 613 560 699 q 685 374 685 526 l 685 0 l 539 0 l 539 368 q 505 527 539 479 q 389 575 471 575 q 297 556 335 575 q 229 499 258 538 l 229 0 l 83 0 l 83 815 l -18 815 l -18 921 l 83 921 l 83 1042 l 229 1042 l 229 921 l 438 921 l 438 815 l 229 815 l 229 625 q 426 699 307 699 z "},"ḫ":{"ha":758,"x_min":82,"x_max":682,"o":"m 418 699 q 615 614 549 699 q 682 382 682 529 l 682 0 l 538 0 l 538 368 q 500 525 538 475 q 383 575 463 575 q 228 497 288 575 l 228 0 l 82 0 l 82 1042 l 228 1042 l 228 631 q 313 681 268 664 q 418 699 358 699 m 382 -310 q 230 -257 285 -310 q 175 -126 175 -204 l 289 -126 q 315 -191 289 -168 q 382 -214 340 -214 q 449 -191 424 -214 q 475 -126 475 -168 l 589 -126 q 534 -257 589 -204 q 382 -310 479 -310 z "},"ĥ":{"ha":758,"x_min":-24,"x_max":682,"o":"m 418 699 q 615 614 549 699 q 682 382 682 529 l 682 0 l 538 0 l 538 368 q 500 525 538 475 q 383 575 463 575 q 228 497 288 575 l 228 0 l 82 0 l 82 1042 l 228 1042 l 228 631 q 313 681 268 664 q 418 699 358 699 m 335 1181 l 335 1089 l 156 1183 l -24 1089 l -24 1181 l 156 1307 l 335 1181 z "},"ḥ":{"ha":758,"x_min":82,"x_max":682,"o":"m 418 699 q 615 614 549 699 q 682 382 682 529 l 682 0 l 538 0 l 538 368 q 500 525 538 475 q 383 575 463 575 q 228 497 288 575 l 228 0 l 82 0 l 82 1042 l 228 1042 l 228 631 q 313 681 268 664 q 418 699 358 699 m 313 -112 l 451 -112 l 451 -242 l 313 -242 l 313 -112 z "},"i":{"ha":311,"x_min":83,"x_max":228,"o":"m 83 972 l 228 972 l 228 819 l 83 819 l 83 972 m 83 686 l 228 686 l 228 0 l 83 0 l 83 686 z "},"ı":{"ha":311,"x_min":83,"x_max":228,"o":"m 83 686 l 228 686 l 228 0 l 83 0 l 83 686 z "},"í":{"ha":311,"x_min":24,"x_max":289,"o":"m 83 686 l 228 686 l 228 0 l 83 0 l 83 686 m 24 892 l 289 1046 l 289 900 l 24 796 l 24 892 z "},"ĭ":{"ha":311,"x_min":-51,"x_max":363,"o":"m 83 686 l 228 686 l 228 0 l 83 0 l 83 686 m 156 807 q 3 860 58 807 q -51 990 -51 913 l 63 990 q 88 926 63 949 q 156 903 114 903 q 223 926 197 903 q 249 990 249 949 l 363 990 q 308 860 363 913 q 156 807 253 807 z "},"î":{"ha":311,"x_min":-24,"x_max":335,"o":"m 83 686 l 228 686 l 228 0 l 83 0 l 83 686 m -24 872 l 156 1026 l 335 872 l 335 778 l 156 890 l -24 778 l -24 872 z "},"ȉ":{"ha":311,"x_min":-135,"x_max":310,"o":"m 83 686 l 228 686 l 228 0 l 83 0 l 83 686 m 11 808 l -135 1046 l 11 1046 l 111 808 l 11 808 m 210 808 l 72 1046 l 219 1046 l 310 808 l 210 808 z "},"ï":{"ha":311,"x_min":-43,"x_max":354,"o":"m 83 686 l 228 686 l 228 0 l 83 0 l 83 686 m -43 938 l 82 938 l 82 821 l -43 821 l -43 938 m 229 938 l 354 938 l 354 821 l 229 821 l 229 938 z "},"ḯ":{"ha":311,"x_min":-43,"x_max":354,"o":"m 83 686 l 228 686 l 228 0 l 83 0 l 83 686 m -43 921 l 82 921 l 82 811 l -43 811 l -43 921 m 229 921 l 354 921 l 354 811 l 229 811 l 229 921 m 24 1076 l 289 1208 l 289 1069 l 24 989 l 24 1076 z "},"ị":{"ha":311,"x_min":83,"x_max":228,"o":"m 83 972 l 228 972 l 228 819 l 83 819 l 83 972 m 83 686 l 228 686 l 228 0 l 83 0 l 83 686 m 86 -112 l 225 -112 l 225 -242 l 86 -242 l 86 -112 z "},"ì":{"ha":311,"x_min":22,"x_max":288,"o":"m 83 686 l 228 686 l 228 0 l 83 0 l 83 686 m 22 900 l 22 1046 l 288 892 l 288 796 l 22 900 z "},"ỉ":{"ha":311,"x_min":24,"x_max":272,"o":"m 83 686 l 228 686 l 228 0 l 83 0 l 83 686 m 128 783 q 175 833 163 815 q 188 874 188 850 q 173 909 188 897 q 133 921 158 921 q 47 894 96 921 l 24 971 q 135 997 74 997 q 233 966 194 997 q 272 878 272 935 q 250 803 272 835 q 176 735 228 772 l 128 783 z "},"ȋ":{"ha":311,"x_min":-51,"x_max":363,"o":"m 83 686 l 228 686 l 228 0 l 83 0 l 83 686 m 156 990 q 308 938 253 990 q 363 807 363 885 l 249 807 q 223 871 249 849 q 156 893 197 893 q 88 871 114 893 q 63 807 63 849 l -51 807 q 3 938 -51 885 q 156 990 58 990 z "},"ĳ":{"ha":622,"x_min":83,"x_max":539,"o":"m 83 972 l 228 972 l 228 819 l 83 819 l 83 972 m 83 686 l 228 686 l 228 0 l 83 0 l 83 686 m 394 972 l 539 972 l 539 819 l 394 819 l 394 972 m 300 -221 q 358 -208 339 -218 q 386 -171 378 -197 q 394 -93 394 -144 l 394 686 l 539 686 l 539 -151 q 361 -332 539 -321 l 315 -336 l 300 -221 z "},"ī":{"ha":311,"x_min":-69,"x_max":381,"o":"m 83 686 l 228 686 l 228 0 l 83 0 l 83 686 m -69 931 l 381 931 l 381 826 l -69 826 l -69 931 z "},"į":{"ha":311,"x_min":36,"x_max":294,"o":"m 83 972 l 228 972 l 228 819 l 83 819 l 83 972 m 83 686 l 228 686 l 228 0 l 83 0 l 83 686 m 228 0 q 147 -76 175 -40 q 119 -146 119 -111 q 138 -197 119 -179 q 186 -214 156 -214 q 272 -192 228 -214 l 294 -264 q 176 -290 242 -290 q 76 -258 115 -290 q 36 -169 36 -226 q 69 -73 36 -118 q 149 0 103 -28 l 228 0 z "},"ĩ":{"ha":311,"x_min":-78,"x_max":389,"o":"m 83 686 l 228 686 l 228 0 l 83 0 l 83 686 m 269 804 q 222 813 246 804 q 167 839 199 822 q 142 851 161 842 q 108 864 124 860 q 79 868 92 868 q 44 853 57 868 q 32 815 32 839 l -78 815 q -44 934 -75 893 q 42 975 -14 975 q 90 966 65 975 q 144 942 114 957 q 194 920 174 928 q 232 913 214 913 q 267 926 254 913 q 279 964 279 940 l 389 964 q 356 845 386 886 q 269 804 325 804 z "},"j":{"ha":311,"x_min":-11,"x_max":228,"o":"m 83 972 l 228 972 l 228 819 l 83 819 l 83 972 m -11 -221 q 47 -208 28 -218 q 75 -171 67 -197 q 83 -93 83 -144 l 83 686 l 228 686 l 228 -151 q 50 -332 228 -321 l 4 -336 l -11 -221 z "},"ȷ":{"ha":311,"x_min":-11,"x_max":228,"o":"m -11 -221 q 50 -209 31 -218 q 76 -175 69 -200 q 83 -93 83 -150 l 83 686 l 228 686 l 228 -151 q 178 -281 228 -235 q 54 -332 129 -328 l 4 -336 l -11 -221 z "},"ĵ":{"ha":311,"x_min":-24,"x_max":335,"o":"m -11 -221 q 50 -209 31 -218 q 76 -175 69 -200 q 83 -93 83 -150 l 83 686 l 228 686 l 228 -151 q 178 -281 228 -235 q 54 -332 129 -328 l 4 -336 l -11 -221 m -24 872 l 156 1026 l 335 872 l 335 778 l 156 890 l -24 778 l -24 872 z "},"k":{"ha":644,"x_min":82,"x_max":639,"o":"m 82 1042 l 226 1042 l 226 389 l 463 686 l 632 686 l 369 363 l 639 0 l 468 0 l 226 331 l 226 0 l 82 0 l 82 1042 z "},"ķ":{"ha":644,"x_min":82,"x_max":639,"o":"m 82 1042 l 226 1042 l 226 389 l 463 686 l 632 686 l 369 363 l 639 0 l 468 0 l 226 331 l 226 0 l 82 0 l 82 1042 m 275 -428 l 326 -278 l 271 -278 l 271 -126 l 429 -126 l 429 -262 l 351 -428 l 275 -428 z "},"ĸ":{"ha":706,"x_min":83,"x_max":697,"o":"m 83 686 l 228 686 l 228 382 l 524 686 l 693 686 l 357 357 l 697 0 l 528 0 l 228 322 l 228 0 l 83 0 l 83 686 z "},"l":{"ha":343,"x_min":82,"x_max":326,"o":"m 260 -14 q 126 35 169 -14 q 82 158 82 83 l 82 1042 l 228 1042 l 228 229 q 235 145 228 171 q 261 112 242 119 q 326 104 281 104 l 308 -14 l 260 -14 z "},"ĺ":{"ha":343,"x_min":22,"x_max":326,"o":"m 260 -14 q 126 35 169 -14 q 82 158 82 83 l 82 1042 l 228 1042 l 228 229 q 235 145 228 171 q 261 112 242 119 q 326 104 281 104 l 308 -14 l 260 -14 m 22 1215 l 288 1347 l 288 1208 l 22 1128 l 22 1215 z "},"ľ":{"ha":406,"x_min":82,"x_max":426,"o":"m 260 -14 q 126 35 169 -14 q 82 158 82 83 l 82 1042 l 228 1042 l 228 229 q 235 145 228 171 q 261 112 242 119 q 326 104 281 104 l 308 -14 l 260 -14 m 293 1042 l 426 1042 l 388 804 l 293 804 l 293 1042 z "},"ļ":{"ha":343,"x_min":82,"x_max":326,"o":"m 260 -14 q 126 35 169 -14 q 82 158 82 83 l 82 1042 l 228 1042 l 228 229 q 235 145 228 171 q 261 112 242 119 q 326 104 281 104 l 308 -14 l 260 -14 m 142 -428 l 193 -278 l 138 -278 l 138 -126 l 296 -126 l 296 -262 l 218 -428 l 142 -428 z "},"ŀ":{"ha":415,"x_min":82,"x_max":429,"o":"m 260 -14 q 126 35 169 -14 q 82 158 82 83 l 82 1042 l 228 1042 l 228 229 q 235 145 228 171 q 261 112 242 119 q 326 104 281 104 l 308 -14 l 260 -14 m 296 647 l 429 647 l 429 506 l 296 506 l 296 647 z "},"ḷ":{"ha":343,"x_min":82,"x_max":326,"o":"m 260 -14 q 126 35 169 -14 q 82 158 82 83 l 82 1042 l 228 1042 l 228 229 q 235 145 228 171 q 261 112 242 119 q 326 104 281 104 l 308 -14 l 260 -14 m 146 -112 l 285 -112 l 285 -242 l 146 -242 l 146 -112 z "},"ǉ":{"ha":654,"x_min":82,"x_max":571,"o":"m 260 -14 q 126 35 169 -14 q 82 158 82 83 l 82 1042 l 228 1042 l 228 229 q 235 145 228 171 q 261 112 242 119 q 326 104 281 104 l 308 -14 l 260 -14 m 426 972 l 571 972 l 571 819 l 426 819 l 426 972 m 332 -221 q 390 -208 371 -218 q 418 -171 410 -197 q 426 -93 426 -144 l 426 686 l 571 686 l 571 -151 q 393 -332 571 -321 l 347 -336 l 332 -221 z "},"ḻ":{"ha":343,"x_min":-10,"x_max":440,"o":"m 260 -14 q 126 35 169 -14 q 82 158 82 83 l 82 1042 l 228 1042 l 228 229 q 235 145 228 171 q 261 112 242 119 q 326 104 281 104 l 308 -14 l 260 -14 m -10 -126 l 440 -126 l 440 -231 l -10 -231 l -10 -126 z "},"ł":{"ha":340,"x_min":-19,"x_max":329,"o":"m 219 603 l 219 229 q 226 145 219 171 q 253 112 233 119 q 318 104 272 104 l 300 -14 l 251 -14 q 117 35 161 -14 q 74 158 74 83 l 74 565 l -19 540 l -19 646 l 74 671 l 74 1042 l 219 1042 l 219 708 l 329 738 l 329 632 l 219 603 z "},"m":{"ha":1214,"x_min":83,"x_max":1138,"o":"m 871 699 q 1071 621 1004 699 q 1138 394 1138 543 l 1138 0 l 992 0 l 992 389 q 957 531 992 486 q 844 575 922 575 q 683 390 683 575 l 683 0 l 538 0 l 538 375 q 500 529 538 483 q 389 575 463 575 q 228 500 282 575 l 228 0 l 83 0 l 83 686 l 201 686 l 213 621 q 422 699 307 699 q 633 581 569 699 q 871 699 708 699 z "},"ṃ":{"ha":1214,"x_min":83,"x_max":1138,"o":"m 871 699 q 1071 621 1004 699 q 1138 394 1138 543 l 1138 0 l 992 0 l 992 389 q 957 531 992 486 q 844 575 922 575 q 683 390 683 575 l 683 0 l 538 0 l 538 375 q 500 529 538 483 q 389 575 463 575 q 228 500 282 575 l 228 0 l 83 0 l 83 686 l 201 686 l 213 621 q 422 699 307 699 q 633 581 569 699 q 871 699 708 699 m 540 -112 l 679 -112 l 679 -242 l 540 -242 l 540 -112 z "},"n":{"ha":772,"x_min":83,"x_max":696,"o":"m 83 686 l 207 686 l 217 624 q 425 699 307 699 q 629 615 563 699 q 696 381 696 531 l 696 0 l 551 0 l 551 375 q 514 527 551 479 q 390 575 476 575 q 295 556 338 575 q 228 499 253 536 l 228 0 l 83 0 l 83 686 z "},"ń":{"ha":772,"x_min":83,"x_max":696,"o":"m 83 686 l 207 686 l 217 624 q 425 699 307 699 q 629 615 563 699 q 696 381 696 531 l 696 0 l 551 0 l 551 375 q 514 527 551 479 q 390 575 476 575 q 295 556 338 575 q 228 499 253 536 l 228 0 l 83 0 l 83 686 m 276 886 l 542 1040 l 542 894 l 276 790 l 276 886 z "},"ŉ":{"ha":967,"x_min":68,"x_max":890,"o":"m 72 671 l 124 821 l 68 821 l 68 972 l 226 972 l 226 836 l 149 671 l 72 671 m 278 686 l 401 686 l 411 624 q 619 699 501 699 q 824 615 757 699 q 890 381 890 531 l 890 0 l 746 0 l 746 375 q 708 527 746 479 q 585 575 671 575 q 490 556 532 575 q 422 499 447 536 l 422 0 l 278 0 l 278 686 z "},"ň":{"ha":772,"x_min":83,"x_max":696,"o":"m 83 686 l 207 686 l 217 624 q 425 699 307 699 q 629 615 563 699 q 696 381 696 531 l 696 0 l 551 0 l 551 375 q 514 527 551 479 q 390 575 476 575 q 295 556 338 575 q 228 499 253 536 l 228 0 l 83 0 l 83 686 m 229 924 l 229 1019 l 408 907 l 588 1019 l 588 924 l 408 769 l 229 924 z "},"ņ":{"ha":772,"x_min":83,"x_max":696,"o":"m 83 686 l 207 686 l 217 624 q 425 699 307 699 q 629 615 563 699 q 696 381 696 531 l 696 0 l 551 0 l 551 375 q 514 527 551 479 q 390 575 476 575 q 295 556 338 575 q 228 499 253 536 l 228 0 l 83 0 l 83 686 m 317 -428 l 368 -278 l 313 -278 l 313 -126 l 471 -126 l 471 -262 l 393 -428 l 317 -428 z "},"ṅ":{"ha":772,"x_min":83,"x_max":696,"o":"m 83 686 l 207 686 l 217 624 q 425 699 307 699 q 629 615 563 699 q 696 381 696 531 l 696 0 l 551 0 l 551 375 q 514 527 551 479 q 390 575 476 575 q 295 556 338 575 q 228 499 253 536 l 228 0 l 83 0 l 83 686 m 339 951 l 478 951 l 478 822 l 339 822 l 339 951 z "},"ṇ":{"ha":772,"x_min":83,"x_max":696,"o":"m 83 686 l 207 686 l 217 624 q 425 699 307 699 q 629 615 563 699 q 696 381 696 531 l 696 0 l 551 0 l 551 375 q 514 527 551 479 q 390 575 476 575 q 295 556 338 575 q 228 499 253 536 l 228 0 l 83 0 l 83 686 m 321 -112 l 460 -112 l 460 -242 l 321 -242 l 321 -112 z "},"ŋ":{"ha":772,"x_min":83,"x_max":696,"o":"m 696 29 q 618 -178 696 -107 q 411 -249 540 -249 q 299 -233 353 -249 l 317 -112 q 415 -125 365 -125 q 515 -89 478 -125 q 551 15 551 -53 l 551 375 q 514 527 551 479 q 390 575 476 575 q 295 556 338 575 q 228 499 253 536 l 228 0 l 83 0 l 83 686 l 207 686 l 217 624 q 425 699 307 699 q 629 615 563 699 q 696 381 696 531 l 696 29 z "},"ǌ":{"ha":1083,"x_min":83,"x_max":1000,"o":"m 83 686 l 207 686 l 217 624 q 425 699 307 699 q 629 615 563 699 q 696 381 696 531 l 696 0 l 551 0 l 551 375 q 514 527 551 479 q 390 575 476 575 q 295 556 338 575 q 228 499 253 536 l 228 0 l 83 0 l 83 686 m 856 972 l 1000 972 l 1000 819 l 856 819 l 856 972 m 761 -221 q 819 -208 800 -218 q 847 -171 839 -197 q 856 -93 856 -144 l 856 686 l 1000 686 l 1000 -151 q 822 -332 1000 -321 l 776 -336 l 761 -221 z "},"ṉ":{"ha":772,"x_min":83,"x_max":696,"o":"m 83 686 l 207 686 l 217 624 q 425 699 307 699 q 629 615 563 699 q 696 381 696 531 l 696 0 l 551 0 l 551 375 q 514 527 551 479 q 390 575 476 575 q 295 556 338 575 q 228 499 253 536 l 228 0 l 83 0 l 83 686 m 165 -126 l 615 -126 l 615 -231 l 165 -231 l 165 -126 z "},"ñ":{"ha":772,"x_min":83,"x_max":696,"o":"m 83 686 l 207 686 l 217 624 q 425 699 307 699 q 629 615 563 699 q 696 381 696 531 l 696 0 l 551 0 l 551 375 q 514 527 551 479 q 390 575 476 575 q 295 556 338 575 q 228 499 253 536 l 228 0 l 83 0 l 83 686 m 522 799 q 475 808 499 799 q 419 833 451 817 q 395 845 414 836 q 360 858 376 854 q 332 863 344 863 q 297 848 310 863 q 285 810 285 833 l 175 810 q 208 928 178 888 q 294 969 239 969 q 342 960 318 969 q 397 936 367 951 q 447 915 426 922 q 485 907 467 907 q 519 921 507 907 q 532 958 532 935 l 642 958 q 608 840 639 881 q 522 799 578 799 z "},"o":{"ha":775,"x_min":42,"x_max":733,"o":"m 388 -14 q 202 34 281 -14 q 83 163 124 82 q 42 343 42 244 q 83 523 42 442 q 202 652 124 604 q 388 700 281 700 q 572 652 493 700 q 692 523 650 604 q 733 343 733 442 q 692 163 733 244 q 572 34 650 82 q 388 -14 493 -14 m 388 110 q 533 172 482 110 q 585 343 585 235 q 533 514 585 451 q 388 576 482 576 q 242 514 293 576 q 190 343 190 451 q 242 172 190 235 q 388 110 293 110 z "},"ó":{"ha":775,"x_min":42,"x_max":733,"o":"m 388 -14 q 202 34 281 -14 q 83 163 124 82 q 42 343 42 244 q 83 523 42 442 q 202 652 124 604 q 388 700 281 700 q 572 652 493 700 q 692 523 650 604 q 733 343 733 442 q 692 163 733 244 q 572 34 650 82 q 388 -14 493 -14 m 388 110 q 533 172 482 110 q 585 343 585 235 q 533 514 585 451 q 388 576 482 576 q 242 514 293 576 q 190 343 190 451 q 242 172 190 235 q 388 110 293 110 m 256 892 l 521 1046 l 521 900 l 256 796 l 256 892 z "},"ŏ":{"ha":775,"x_min":42,"x_max":733,"o":"m 388 -14 q 202 34 281 -14 q 83 163 124 82 q 42 343 42 244 q 83 523 42 442 q 202 652 124 604 q 388 700 281 700 q 572 652 493 700 q 692 523 650 604 q 733 343 733 442 q 692 163 733 244 q 572 34 650 82 q 388 -14 493 -14 m 388 110 q 533 172 482 110 q 585 343 585 235 q 533 514 585 451 q 388 576 482 576 q 242 514 293 576 q 190 343 190 451 q 242 172 190 235 q 388 110 293 110 m 388 807 q 235 860 290 807 q 181 990 181 913 l 294 990 q 320 926 294 949 q 388 903 346 903 q 455 926 429 903 q 481 990 481 949 l 594 990 q 540 860 594 913 q 388 807 485 807 z "},"ô":{"ha":775,"x_min":42,"x_max":733,"o":"m 388 -14 q 202 34 281 -14 q 83 163 124 82 q 42 343 42 244 q 83 523 42 442 q 202 652 124 604 q 388 700 281 700 q 572 652 493 700 q 692 523 650 604 q 733 343 733 442 q 692 163 733 244 q 572 34 650 82 q 388 -14 493 -14 m 388 110 q 533 172 482 110 q 585 343 585 235 q 533 514 585 451 q 388 576 482 576 q 242 514 293 576 q 190 343 190 451 q 242 172 190 235 q 388 110 293 110 m 208 872 l 388 1026 l 567 872 l 567 778 l 388 890 l 208 778 l 208 872 z "},"ố":{"ha":775,"x_min":42,"x_max":733,"o":"m 388 -14 q 202 34 281 -14 q 83 163 124 82 q 42 343 42 244 q 83 523 42 442 q 202 652 124 604 q 388 700 281 700 q 572 652 493 700 q 692 523 650 604 q 733 343 733 442 q 692 163 733 244 q 572 34 650 82 q 388 -14 493 -14 m 388 110 q 533 172 482 110 q 585 343 585 235 q 533 514 585 451 q 388 576 482 576 q 242 514 293 576 q 190 343 190 451 q 242 172 190 235 q 388 110 293 110 m 583 1135 l 731 1135 l 592 967 l 492 967 l 583 1135 m 567 853 l 567 761 l 388 856 l 208 761 l 208 853 l 388 979 l 567 853 z "},"ộ":{"ha":775,"x_min":42,"x_max":733,"o":"m 388 -14 q 202 34 281 -14 q 83 163 124 82 q 42 343 42 244 q 83 523 42 442 q 202 652 124 604 q 388 700 281 700 q 572 652 493 700 q 692 523 650 604 q 733 343 733 442 q 692 163 733 244 q 572 34 650 82 q 388 -14 493 -14 m 388 110 q 533 172 482 110 q 585 343 585 235 q 533 514 585 451 q 388 576 482 576 q 242 514 293 576 q 190 343 190 451 q 242 172 190 235 q 388 110 293 110 m 208 872 l 388 1026 l 567 872 l 567 778 l 388 890 l 208 778 l 208 872 m 318 -112 l 457 -112 l 457 -242 l 318 -242 l 318 -112 z "},"ồ":{"ha":775,"x_min":42,"x_max":733,"o":"m 388 -14 q 202 34 281 -14 q 83 163 124 82 q 42 343 42 244 q 83 523 42 442 q 202 652 124 604 q 388 700 281 700 q 572 652 493 700 q 692 523 650 604 q 733 343 733 442 q 692 163 733 244 q 572 34 650 82 q 388 -14 493 -14 m 388 110 q 533 172 482 110 q 585 343 585 235 q 533 514 585 451 q 388 576 482 576 q 242 514 293 576 q 190 343 190 451 q 242 172 190 235 q 388 110 293 110 m 517 967 l 399 1135 l 538 1135 l 613 967 l 517 967 m 567 853 l 567 761 l 388 856 l 208 761 l 208 853 l 388 979 l 567 853 z "},"ổ":{"ha":775,"x_min":42,"x_max":733,"o":"m 388 -14 q 202 34 281 -14 q 83 163 124 82 q 42 343 42 244 q 83 523 42 442 q 202 652 124 604 q 388 700 281 700 q 572 652 493 700 q 692 523 650 604 q 733 343 733 442 q 692 163 733 244 q 572 34 650 82 q 388 -14 493 -14 m 388 110 q 533 172 482 110 q 585 343 585 235 q 533 514 585 451 q 388 576 482 576 q 242 514 293 576 q 190 343 190 451 q 242 172 190 235 q 388 110 293 110 m 567 847 l 567 756 l 388 850 l 208 756 l 208 847 l 388 974 l 567 847 m 507 983 q 557 1035 557 999 q 503 1076 557 1076 q 417 1050 465 1076 l 393 1126 q 504 1153 443 1153 q 603 1124 564 1153 q 642 1043 642 1094 q 613 967 642 996 q 521 925 583 939 l 507 983 z "},"ỗ":{"ha":775,"x_min":42,"x_max":733,"o":"m 388 -14 q 202 34 281 -14 q 83 163 124 82 q 42 343 42 244 q 83 523 42 442 q 202 652 124 604 q 388 700 281 700 q 572 652 493 700 q 692 523 650 604 q 733 343 733 442 q 692 163 733 244 q 572 34 650 82 q 388 -14 493 -14 m 388 110 q 533 172 482 110 q 585 343 585 235 q 533 514 585 451 q 388 576 482 576 q 242 514 293 576 q 190 343 190 451 q 242 172 190 235 q 388 110 293 110 m 567 847 l 567 756 l 388 850 l 208 756 l 208 847 l 388 974 l 567 847 m 506 1029 q 458 1037 483 1029 q 399 1060 433 1044 q 311 1086 338 1086 q 276 1073 289 1086 q 264 1036 264 1060 l 167 1036 q 193 1142 167 1106 q 269 1179 219 1179 q 315 1172 292 1179 q 376 1147 338 1164 q 413 1133 383 1144 q 464 1121 443 1121 q 499 1134 486 1121 q 511 1171 511 1147 l 608 1171 q 582 1065 608 1101 q 506 1029 556 1029 z "},"ȍ":{"ha":775,"x_min":42,"x_max":733,"o":"m 388 -14 q 202 34 281 -14 q 83 163 124 82 q 42 343 42 244 q 83 523 42 442 q 202 652 124 604 q 388 700 281 700 q 572 652 493 700 q 692 523 650 604 q 733 343 733 442 q 692 163 733 244 q 572 34 650 82 q 388 -14 493 -14 m 388 110 q 533 172 482 110 q 585 343 585 235 q 533 514 585 451 q 388 576 482 576 q 242 514 293 576 q 190 343 190 451 q 242 172 190 235 q 388 110 293 110 m 243 808 l 97 1046 l 243 1046 l 343 808 l 243 808 m 442 808 l 304 1046 l 451 1046 l 542 808 l 442 808 z "},"ö":{"ha":775,"x_min":42,"x_max":733,"o":"m 388 -14 q 202 34 281 -14 q 83 163 124 82 q 42 343 42 244 q 83 523 42 442 q 202 652 124 604 q 388 700 281 700 q 572 652 493 700 q 692 523 650 604 q 733 343 733 442 q 692 163 733 244 q 572 34 650 82 q 388 -14 493 -14 m 388 110 q 533 172 482 110 q 585 343 585 235 q 533 514 585 451 q 388 576 482 576 q 242 514 293 576 q 190 343 190 451 q 242 172 190 235 q 388 110 293 110 m 189 938 l 314 938 l 314 821 l 189 821 l 189 938 m 461 938 l 586 938 l 586 821 l 461 821 l 461 938 z "},"ȫ":{"ha":775,"x_min":42,"x_max":733,"o":"m 388 -14 q 202 34 281 -14 q 83 163 124 82 q 42 343 42 244 q 83 523 42 442 q 202 652 124 604 q 388 700 281 700 q 572 652 493 700 q 692 523 650 604 q 733 343 733 442 q 692 163 733 244 q 572 34 650 82 q 388 -14 493 -14 m 388 110 q 533 172 482 110 q 585 343 585 235 q 533 514 585 451 q 388 576 482 576 q 242 514 293 576 q 190 343 190 451 q 242 172 190 235 q 388 110 293 110 m 189 921 l 314 921 l 314 811 l 189 811 l 189 921 m 461 921 l 586 921 l 586 811 l 461 811 l 461 921 m 163 1132 l 613 1132 l 613 1032 l 163 1032 l 163 1132 z "},"ȱ":{"ha":775,"x_min":42,"x_max":733,"o":"m 388 -14 q 202 34 281 -14 q 83 163 124 82 q 42 343 42 244 q 83 523 42 442 q 202 652 124 604 q 388 700 281 700 q 572 652 493 700 q 692 523 650 604 q 733 343 733 442 q 692 163 733 244 q 572 34 650 82 q 388 -14 493 -14 m 388 110 q 533 172 482 110 q 585 343 585 235 q 533 514 585 451 q 388 576 482 576 q 242 514 293 576 q 190 343 190 451 q 242 172 190 235 q 388 110 293 110 m 318 943 l 457 943 l 457 814 l 318 814 l 318 943 m 163 1154 l 613 1154 l 613 1054 l 163 1054 l 163 1154 z "},"ọ":{"ha":775,"x_min":42,"x_max":733,"o":"m 388 -14 q 202 34 281 -14 q 83 163 124 82 q 42 343 42 244 q 83 523 42 442 q 202 652 124 604 q 388 700 281 700 q 572 652 493 700 q 692 523 650 604 q 733 343 733 442 q 692 163 733 244 q 572 34 650 82 q 388 -14 493 -14 m 388 110 q 533 172 482 110 q 585 343 585 235 q 533 514 585 451 q 388 576 482 576 q 242 514 293 576 q 190 343 190 451 q 242 172 190 235 q 388 110 293 110 m 318 -112 l 457 -112 l 457 -242 l 318 -242 l 318 -112 z "},"ò":{"ha":775,"x_min":42,"x_max":733,"o":"m 388 -14 q 202 34 281 -14 q 83 163 124 82 q 42 343 42 244 q 83 523 42 442 q 202 652 124 604 q 388 700 281 700 q 572 652 493 700 q 692 523 650 604 q 733 343 733 442 q 692 163 733 244 q 572 34 650 82 q 388 -14 493 -14 m 388 110 q 533 172 482 110 q 585 343 585 235 q 533 514 585 451 q 388 576 482 576 q 242 514 293 576 q 190 343 190 451 q 242 172 190 235 q 388 110 293 110 m 254 900 l 254 1046 l 519 892 l 519 796 l 254 900 z "},"ỏ":{"ha":775,"x_min":42,"x_max":733,"o":"m 388 -14 q 202 34 281 -14 q 83 163 124 82 q 42 343 42 244 q 83 523 42 442 q 202 652 124 604 q 388 700 281 700 q 572 652 493 700 q 692 523 650 604 q 733 343 733 442 q 692 163 733 244 q 572 34 650 82 q 388 -14 493 -14 m 388 110 q 533 172 482 110 q 585 343 585 235 q 533 514 585 451 q 388 576 482 576 q 242 514 293 576 q 190 343 190 451 q 242 172 190 235 q 388 110 293 110 m 360 783 q 407 833 394 815 q 419 874 419 850 q 405 909 419 897 q 365 921 390 921 q 279 894 328 921 l 256 971 q 367 997 306 997 q 465 966 426 997 q 504 878 504 935 q 482 803 504 835 q 408 735 460 772 l 360 783 z "},"ơ":{"ha":775,"x_min":42,"x_max":733,"o":"m 618 619 q 703 499 674 571 q 733 343 733 426 q 692 163 733 244 q 572 34 650 82 q 388 -14 493 -14 q 202 34 281 -14 q 83 163 124 82 q 42 343 42 244 q 83 523 42 442 q 202 652 124 604 q 388 700 281 700 q 492 686 446 700 q 565 714 540 689 q 590 789 590 739 l 721 789 q 693 692 721 738 q 618 619 665 647 m 388 110 q 533 172 482 110 q 585 343 585 235 q 533 514 585 451 q 388 576 482 576 q 242 514 293 576 q 190 343 190 451 q 242 172 190 235 q 388 110 293 110 z "},"ớ":{"ha":775,"x_min":42,"x_max":733,"o":"m 618 619 q 703 499 674 571 q 733 343 733 426 q 692 163 733 244 q 572 34 650 82 q 388 -14 493 -14 q 202 34 281 -14 q 83 163 124 82 q 42 343 42 244 q 83 523 42 442 q 202 652 124 604 q 388 700 281 700 q 492 686 446 700 q 565 714 540 689 q 590 789 590 739 l 721 789 q 693 692 721 738 q 618 619 665 647 m 388 110 q 533 172 482 110 q 585 343 585 235 q 533 514 585 451 q 388 576 482 576 q 242 514 293 576 q 190 343 190 451 q 242 172 190 235 q 388 110 293 110 m 256 892 l 521 1046 l 521 900 l 256 796 l 256 892 z "},"ợ":{"ha":775,"x_min":42,"x_max":733,"o":"m 618 619 q 703 499 674 571 q 733 343 733 426 q 692 163 733 244 q 572 34 650 82 q 388 -14 493 -14 q 202 34 281 -14 q 83 163 124 82 q 42 343 42 244 q 83 523 42 442 q 202 652 124 604 q 388 700 281 700 q 492 686 446 700 q 565 714 540 689 q 590 789 590 739 l 721 789 q 693 692 721 738 q 618 619 665 647 m 388 110 q 533 172 482 110 q 585 343 585 235 q 533 514 585 451 q 388 576 482 576 q 242 514 293 576 q 190 343 190 451 q 242 172 190 235 q 388 110 293 110 m 318 -112 l 457 -112 l 457 -242 l 318 -242 l 318 -112 z "},"ờ":{"ha":775,"x_min":42,"x_max":733,"o":"m 618 619 q 703 499 674 571 q 733 343 733 426 q 692 163 733 244 q 572 34 650 82 q 388 -14 493 -14 q 202 34 281 -14 q 83 163 124 82 q 42 343 42 244 q 83 523 42 442 q 202 652 124 604 q 388 700 281 700 q 492 686 446 700 q 565 714 540 689 q 590 789 590 739 l 721 789 q 693 692 721 738 q 618 619 665 647 m 388 110 q 533 172 482 110 q 585 343 585 235 q 533 514 585 451 q 388 576 482 576 q 242 514 293 576 q 190 343 190 451 q 242 172 190 235 q 388 110 293 110 m 254 900 l 254 1046 l 519 892 l 519 796 l 254 900 z "},"ở":{"ha":775,"x_min":42,"x_max":733,"o":"m 618 619 q 703 499 674 571 q 733 343 733 426 q 692 163 733 244 q 572 34 650 82 q 388 -14 493 -14 q 202 34 281 -14 q 83 163 124 82 q 42 343 42 244 q 83 523 42 442 q 202 652 124 604 q 388 700 281 700 q 492 686 446 700 q 565 714 540 689 q 590 789 590 739 l 721 789 q 693 692 721 738 q 618 619 665 647 m 388 110 q 533 172 482 110 q 585 343 585 235 q 533 514 585 451 q 388 576 482 576 q 242 514 293 576 q 190 343 190 451 q 242 172 190 235 q 388 110 293 110 m 360 783 q 407 833 394 815 q 419 874 419 850 q 405 909 419 897 q 365 921 390 921 q 279 894 328 921 l 256 971 q 367 997 306 997 q 465 966 426 997 q 504 878 504 935 q 482 803 504 835 q 408 735 460 772 l 360 783 z "},"ỡ":{"ha":775,"x_min":42,"x_max":733,"o":"m 618 619 q 703 499 674 571 q 733 343 733 426 q 692 163 733 244 q 572 34 650 82 q 388 -14 493 -14 q 202 34 281 -14 q 83 163 124 82 q 42 343 42 244 q 83 523 42 442 q 202 652 124 604 q 388 700 281 700 q 492 686 446 700 q 565 714 540 689 q 590 789 590 739 l 721 789 q 693 692 721 738 q 618 619 665 647 m 388 110 q 533 172 482 110 q 585 343 585 235 q 533 514 585 451 q 388 576 482 576 q 242 514 293 576 q 190 343 190 451 q 242 172 190 235 q 388 110 293 110 m 501 804 q 454 813 478 804 q 399 839 431 822 q 374 851 393 842 q 340 864 356 860 q 311 868 324 868 q 276 853 289 868 q 264 815 264 839 l 154 815 q 188 934 157 893 q 274 975 218 975 q 322 966 297 975 q 376 942 346 957 q 426 920 406 928 q 464 913 446 913 q 499 926 486 913 q 511 964 511 940 l 621 964 q 588 845 618 886 q 501 804 557 804 z "},"ő":{"ha":775,"x_min":42,"x_max":733,"o":"m 388 -14 q 202 34 281 -14 q 83 163 124 82 q 42 343 42 244 q 83 523 42 442 q 202 652 124 604 q 388 700 281 700 q 572 652 493 700 q 692 523 650 604 q 733 343 733 442 q 692 163 733 244 q 572 34 650 82 q 388 -14 493 -14 m 388 110 q 533 172 482 110 q 585 343 585 235 q 533 514 585 451 q 388 576 482 576 q 242 514 293 576 q 190 343 190 451 q 242 172 190 235 q 388 110 293 110 m 343 1046 l 489 1046 l 335 808 l 236 808 l 343 1046 m 550 1046 l 697 1046 l 533 808 l 435 808 l 550 1046 z "},"ȏ":{"ha":775,"x_min":42,"x_max":733,"o":"m 388 -14 q 202 34 281 -14 q 83 163 124 82 q 42 343 42 244 q 83 523 42 442 q 202 652 124 604 q 388 700 281 700 q 572 652 493 700 q 692 523 650 604 q 733 343 733 442 q 692 163 733 244 q 572 34 650 82 q 388 -14 493 -14 m 388 110 q 533 172 482 110 q 585 343 585 235 q 533 514 585 451 q 388 576 482 576 q 242 514 293 576 q 190 343 190 451 q 242 172 190 235 q 388 110 293 110 m 388 990 q 540 938 485 990 q 594 807 594 885 l 481 807 q 455 871 481 849 q 388 893 429 893 q 320 871 346 893 q 294 807 294 849 l 181 807 q 235 938 181 885 q 388 990 290 990 z "},"ō":{"ha":775,"x_min":42,"x_max":733,"o":"m 388 -14 q 202 34 281 -14 q 83 163 124 82 q 42 343 42 244 q 83 523 42 442 q 202 652 124 604 q 388 700 281 700 q 572 652 493 700 q 692 523 650 604 q 733 343 733 442 q 692 163 733 244 q 572 34 650 82 q 388 -14 493 -14 m 388 110 q 533 172 482 110 q 585 343 585 235 q 533 514 585 451 q 388 576 482 576 q 242 514 293 576 q 190 343 190 451 q 242 172 190 235 q 388 110 293 110 m 163 931 l 613 931 l 613 826 l 163 826 l 163 931 z "},"ṓ":{"ha":775,"x_min":42,"x_max":733,"o":"m 388 -14 q 202 34 281 -14 q 83 163 124 82 q 42 343 42 244 q 83 523 42 442 q 202 652 124 604 q 388 700 281 700 q 572 652 493 700 q 692 523 650 604 q 733 343 733 442 q 692 163 733 244 q 572 34 650 82 q 388 -14 493 -14 m 388 110 q 533 172 482 110 q 585 343 585 235 q 533 514 585 451 q 388 576 482 576 q 242 514 293 576 q 190 343 190 451 q 242 172 190 235 q 388 110 293 110 m 163 915 l 613 915 l 613 815 l 163 815 l 163 915 m 256 1099 l 521 1231 l 521 1092 l 256 1011 l 256 1099 z "},"ṑ":{"ha":775,"x_min":42,"x_max":733,"o":"m 388 -14 q 202 34 281 -14 q 83 163 124 82 q 42 343 42 244 q 83 523 42 442 q 202 652 124 604 q 388 700 281 700 q 572 652 493 700 q 692 523 650 604 q 733 343 733 442 q 692 163 733 244 q 572 34 650 82 q 388 -14 493 -14 m 388 110 q 533 172 482 110 q 585 343 585 235 q 533 514 585 451 q 388 576 482 576 q 242 514 293 576 q 190 343 190 451 q 242 172 190 235 q 388 110 293 110 m 163 915 l 613 915 l 613 815 l 163 815 l 163 915 m 254 1092 l 254 1231 l 519 1099 l 519 1011 l 254 1092 z "},"ǫ":{"ha":775,"x_min":42,"x_max":733,"o":"m 488 -1 q 408 -76 435 -42 q 381 -146 381 -111 q 399 -197 381 -179 q 447 -214 417 -214 q 533 -192 489 -214 l 556 -264 q 438 -290 503 -290 q 337 -258 376 -290 q 297 -169 297 -226 q 324 -84 297 -125 q 389 -14 350 -43 l 388 -14 q 202 34 281 -14 q 83 163 124 82 q 42 343 42 244 q 83 523 42 442 q 202 652 124 604 q 388 700 281 700 q 572 652 493 700 q 692 523 650 604 q 733 343 733 442 q 668 124 733 218 q 488 -1 603 29 m 190 343 q 242 172 190 235 q 388 110 293 110 q 533 172 482 110 q 585 343 585 235 q 533 514 585 451 q 388 576 482 576 q 242 514 293 576 q 190 343 190 451 z "},"ø":{"ha":775,"x_min":42,"x_max":733,"o":"m 622 615 q 705 496 676 567 q 733 343 733 425 q 692 163 733 244 q 572 34 650 82 q 388 -14 493 -14 q 239 15 308 -14 l 193 -56 l 76 -56 l 156 68 q 71 188 100 117 q 42 343 42 260 q 83 523 42 442 q 202 652 124 604 q 388 700 281 700 q 540 669 471 700 l 583 736 l 699 736 l 622 615 m 190 343 q 232 186 190 246 l 471 560 q 388 576 435 576 q 242 514 293 576 q 190 343 190 451 m 388 110 q 533 172 482 110 q 585 343 585 235 q 546 497 585 435 l 308 124 q 388 110 346 110 z "},"ǿ":{"ha":775,"x_min":42,"x_max":733,"o":"m 622 615 q 705 496 676 567 q 733 343 733 425 q 692 163 733 244 q 572 34 650 82 q 388 -14 493 -14 q 239 15 308 -14 l 193 -56 l 76 -56 l 156 68 q 71 188 100 117 q 42 343 42 260 q 83 523 42 442 q 202 652 124 604 q 388 700 281 700 q 540 669 471 700 l 583 736 l 699 736 l 622 615 m 190 343 q 232 186 190 246 l 471 560 q 388 576 435 576 q 242 514 293 576 q 190 343 190 451 m 388 110 q 533 172 482 110 q 585 343 585 235 q 546 497 585 435 l 308 124 q 388 110 346 110 m 256 892 l 521 1046 l 521 900 l 256 796 l 256 892 z "},"õ":{"ha":775,"x_min":42,"x_max":733,"o":"m 388 -14 q 202 34 281 -14 q 83 163 124 82 q 42 343 42 244 q 83 523 42 442 q 202 652 124 604 q 388 700 281 700 q 572 652 493 700 q 692 523 650 604 q 733 343 733 442 q 692 163 733 244 q 572 34 650 82 q 388 -14 493 -14 m 388 110 q 533 172 482 110 q 585 343 585 235 q 533 514 585 451 q 388 576 482 576 q 242 514 293 576 q 190 343 190 451 q 242 172 190 235 q 388 110 293 110 m 501 804 q 454 813 478 804 q 399 839 431 822 q 374 851 393 842 q 340 864 356 860 q 311 868 324 868 q 276 853 289 868 q 264 815 264 839 l 154 815 q 188 934 157 893 q 274 975 218 975 q 322 966 297 975 q 376 942 346 957 q 426 920 406 928 q 464 913 446 913 q 499 926 486 913 q 511 964 511 940 l 621 964 q 588 845 618 886 q 501 804 557 804 z "},"ṍ":{"ha":775,"x_min":42,"x_max":733,"o":"m 388 -14 q 202 34 281 -14 q 83 163 124 82 q 42 343 42 244 q 83 523 42 442 q 202 652 124 604 q 388 700 281 700 q 572 652 493 700 q 692 523 650 604 q 733 343 733 442 q 692 163 733 244 q 572 34 650 82 q 388 -14 493 -14 m 388 110 q 533 172 482 110 q 585 343 585 235 q 533 514 585 451 q 388 576 482 576 q 242 514 293 576 q 190 343 190 451 q 242 172 190 235 q 388 110 293 110 m 506 803 q 458 810 483 803 q 399 833 433 818 q 311 860 338 860 q 276 847 289 860 q 264 810 264 833 l 167 810 q 193 916 167 879 q 269 953 219 953 q 315 945 292 953 q 376 921 338 938 q 413 906 383 918 q 464 894 443 894 q 499 908 486 894 q 511 944 511 921 l 608 944 q 582 839 608 875 q 506 803 556 803 m 256 1097 l 521 1229 l 521 1090 l 256 1010 l 256 1097 z "},"ṏ":{"ha":775,"x_min":42,"x_max":733,"o":"m 388 -14 q 202 34 281 -14 q 83 163 124 82 q 42 343 42 244 q 83 523 42 442 q 202 652 124 604 q 388 700 281 700 q 572 652 493 700 q 692 523 650 604 q 733 343 733 442 q 692 163 733 244 q 572 34 650 82 q 388 -14 493 -14 m 388 110 q 533 172 482 110 q 585 343 585 235 q 533 514 585 451 q 388 576 482 576 q 242 514 293 576 q 190 343 190 451 q 242 172 190 235 q 388 110 293 110 m 506 803 q 458 810 483 803 q 399 833 433 818 q 311 860 338 860 q 276 847 289 860 q 264 810 264 833 l 167 810 q 193 916 167 879 q 269 953 219 953 q 315 945 292 953 q 376 921 338 938 q 413 906 383 918 q 464 894 443 894 q 499 908 486 894 q 511 944 511 921 l 608 944 q 582 839 608 875 q 506 803 556 803 m 189 1158 l 314 1158 l 314 1049 l 189 1049 l 189 1158 m 461 1158 l 586 1158 l 586 1049 l 461 1049 l 461 1158 z "},"ȭ":{"ha":775,"x_min":42,"x_max":733,"o":"m 388 -14 q 202 34 281 -14 q 83 163 124 82 q 42 343 42 244 q 83 523 42 442 q 202 652 124 604 q 388 700 281 700 q 572 652 493 700 q 692 523 650 604 q 733 343 733 442 q 692 163 733 244 q 572 34 650 82 q 388 -14 493 -14 m 388 110 q 533 172 482 110 q 585 343 585 235 q 533 514 585 451 q 388 576 482 576 q 242 514 293 576 q 190 343 190 451 q 242 172 190 235 q 388 110 293 110 m 506 803 q 458 810 483 803 q 399 833 433 818 q 311 860 338 860 q 276 847 289 860 q 264 810 264 833 l 167 810 q 193 916 167 879 q 269 953 219 953 q 315 945 292 953 q 376 921 338 938 q 413 906 383 918 q 464 894 443 894 q 499 908 486 894 q 511 944 511 921 l 608 944 q 582 839 608 875 q 506 803 556 803 m 163 1153 l 613 1153 l 613 1053 l 163 1053 l 163 1153 z "},"œ":{"ha":1249,"x_min":42,"x_max":1208,"o":"m 1208 406 q 1201 328 1208 374 l 726 328 q 804 161 740 213 q 961 110 868 110 q 1064 123 1008 110 q 1165 157 1119 136 l 1178 39 q 949 -14 1067 -14 q 778 23 851 -14 q 657 126 704 60 q 544 23 613 60 q 388 -14 476 -14 q 202 34 281 -14 q 83 163 124 82 q 42 343 42 244 q 83 523 42 442 q 202 652 124 604 q 388 700 281 700 q 542 665 475 700 q 653 565 610 629 q 763 663 696 628 q 913 699 829 699 q 1128 619 1049 699 q 1208 406 1208 539 m 388 110 q 533 172 482 110 q 585 343 585 235 q 533 514 585 451 q 388 576 482 576 q 242 514 293 576 q 190 343 190 451 q 242 172 190 235 q 388 110 293 110 m 1060 426 q 1023 534 1060 493 q 911 575 986 575 q 735 426 771 575 l 1060 426 z "},"p":{"ha":782,"x_min":83,"x_max":739,"o":"m 436 699 q 598 651 529 699 q 703 523 667 604 q 739 343 739 442 q 704 162 739 243 q 601 33 669 81 q 436 -14 533 -14 q 228 64 301 -14 l 228 -336 l 83 -336 l 83 686 l 197 686 l 214 606 q 436 699 300 699 m 411 110 q 544 172 496 110 q 592 343 592 235 q 543 513 592 450 q 411 575 494 575 q 272 514 324 575 q 221 343 221 453 q 272 169 221 229 q 411 110 322 110 z "},"þ":{"ha":807,"x_min":82,"x_max":765,"o":"m 443 699 q 616 651 543 699 q 727 522 689 603 q 765 343 765 440 q 728 163 765 244 q 617 34 690 82 q 443 -14 544 -14 q 320 6 372 -14 q 228 67 268 26 l 228 -335 l 82 -335 l 82 1042 l 228 1042 l 228 619 q 326 679 274 660 q 443 699 378 699 m 421 104 q 565 170 514 104 q 617 343 617 236 q 566 512 617 449 q 421 575 515 575 q 271 513 324 575 q 218 343 218 451 q 272 169 218 233 q 421 104 325 104 z "},"q":{"ha":782,"x_min":43,"x_max":700,"o":"m 700 686 l 700 -336 l 554 -336 l 554 63 q 354 -14 482 -14 q 184 33 254 -14 q 78 162 114 81 q 43 343 43 243 q 80 520 43 439 q 187 650 117 601 q 353 699 257 699 q 477 676 425 699 q 571 607 529 653 l 588 686 l 700 686 m 375 110 q 512 170 461 110 q 563 343 563 231 q 512 514 563 453 q 375 575 461 575 q 240 513 289 575 q 192 343 192 450 q 240 172 192 235 q 375 110 289 110 z "},"r":{"ha":447,"x_min":83,"x_max":444,"o":"m 83 686 l 211 686 l 221 590 q 413 700 313 700 q 444 697 428 700 l 432 546 q 382 551 410 551 q 293 529 335 551 q 233 478 251 507 l 233 0 l 83 0 l 83 686 z "},"ŕ":{"ha":447,"x_min":83,"x_max":444,"o":"m 83 686 l 211 686 l 221 590 q 413 700 313 700 q 444 697 428 700 l 432 546 q 382 551 410 551 q 293 529 335 551 q 233 478 251 507 l 233 0 l 83 0 l 83 686 m 165 892 l 431 1046 l 431 900 l 165 796 l 165 892 z "},"ř":{"ha":447,"x_min":83,"x_max":476,"o":"m 83 686 l 211 686 l 221 590 q 413 700 313 700 q 444 697 428 700 l 432 546 q 382 551 410 551 q 293 529 335 551 q 233 478 251 507 l 233 0 l 83 0 l 83 686 m 118 929 l 118 1025 l 297 913 l 476 1025 l 476 929 l 297 775 l 118 929 z "},"ŗ":{"ha":447,"x_min":81,"x_max":444,"o":"m 83 686 l 211 686 l 221 590 q 413 700 313 700 q 444 697 428 700 l 432 546 q 382 551 410 551 q 293 529 335 551 q 233 478 251 507 l 233 0 l 83 0 l 83 686 m 85 -428 l 136 -278 l 81 -278 l 81 -126 l 239 -126 l 239 -262 l 161 -428 l 85 -428 z "},"ȑ":{"ha":447,"x_min":7,"x_max":451,"o":"m 83 686 l 211 686 l 221 590 q 413 700 313 700 q 444 697 428 700 l 432 546 q 382 551 410 551 q 293 529 335 551 q 233 478 251 507 l 233 0 l 83 0 l 83 686 m 153 808 l 7 1046 l 153 1046 l 253 808 l 153 808 m 351 808 l 214 1046 l 361 1046 l 451 808 l 351 808 z "},"ṛ":{"ha":447,"x_min":83,"x_max":444,"o":"m 83 686 l 211 686 l 221 590 q 413 700 313 700 q 444 697 428 700 l 432 546 q 382 551 410 551 q 293 529 335 551 q 233 478 251 507 l 233 0 l 83 0 l 83 686 m 89 -112 l 228 -112 l 228 -242 l 89 -242 l 89 -112 z "},"ȓ":{"ha":447,"x_min":83,"x_max":504,"o":"m 83 686 l 211 686 l 221 590 q 413 700 313 700 q 444 697 428 700 l 432 546 q 382 551 410 551 q 293 529 335 551 q 233 478 251 507 l 233 0 l 83 0 l 83 686 m 297 990 q 449 938 394 990 q 504 807 504 885 l 390 807 q 365 871 390 849 q 297 893 339 893 q 230 871 256 893 q 204 807 204 849 l 90 807 q 145 938 90 885 q 297 990 200 990 z "},"ṟ":{"ha":447,"x_min":-67,"x_max":444,"o":"m 83 686 l 211 686 l 221 590 q 413 700 313 700 q 444 697 428 700 l 432 546 q 382 551 410 551 q 293 529 335 551 q 233 478 251 507 l 233 0 l 83 0 l 83 686 m -67 -126 l 383 -126 l 383 -231 l -67 -231 l -67 -126 z "},"s":{"ha":581,"x_min":44,"x_max":543,"o":"m 278 -14 q 44 42 147 -14 l 60 175 q 154 126 100 146 q 272 106 208 106 q 364 125 332 106 q 396 183 396 144 q 362 249 396 226 q 263 293 328 272 q 153 337 196 315 q 82 397 110 358 q 54 497 54 436 q 120 642 54 585 q 311 700 186 700 q 508 651 419 700 l 493 524 q 408 573 450 556 q 314 590 365 590 q 229 569 260 590 q 199 508 199 549 q 214 461 199 479 q 258 431 229 443 q 350 396 288 418 q 491 321 439 365 q 543 190 543 276 q 478 44 543 101 q 278 -14 414 -14 z "},"ś":{"ha":581,"x_min":44,"x_max":543,"o":"m 278 -14 q 44 42 147 -14 l 60 175 q 154 126 100 146 q 272 106 208 106 q 364 125 332 106 q 396 183 396 144 q 362 249 396 226 q 263 293 328 272 q 153 337 196 315 q 82 397 110 358 q 54 497 54 436 q 120 642 54 585 q 311 700 186 700 q 508 651 419 700 l 493 524 q 408 573 450 556 q 314 590 365 590 q 229 569 260 590 q 199 508 199 549 q 214 461 199 479 q 258 431 229 443 q 350 396 288 418 q 491 321 439 365 q 543 190 543 276 q 478 44 543 101 q 278 -14 414 -14 m 175 892 l 440 1046 l 440 900 l 175 796 l 175 892 z "},"ṥ":{"ha":581,"x_min":44,"x_max":543,"o":"m 278 -14 q 44 42 147 -14 l 60 175 q 154 126 100 146 q 272 106 208 106 q 364 125 332 106 q 396 183 396 144 q 362 249 396 226 q 263 293 328 272 q 153 337 196 315 q 82 397 110 358 q 54 497 54 436 q 120 642 54 585 q 311 700 186 700 q 508 651 419 700 l 493 524 q 408 573 450 556 q 314 590 365 590 q 229 569 260 590 q 199 508 199 549 q 214 461 199 479 q 258 431 229 443 q 350 396 288 418 q 491 321 439 365 q 543 190 543 276 q 478 44 543 101 q 278 -14 414 -14 m 175 860 l 440 992 l 440 853 l 175 772 l 175 860 m 238 1182 l 376 1182 l 376 1053 l 238 1053 l 238 1182 z "},"š":{"ha":581,"x_min":44,"x_max":543,"o":"m 278 -14 q 44 42 147 -14 l 60 175 q 154 126 100 146 q 272 106 208 106 q 364 125 332 106 q 396 183 396 144 q 362 249 396 226 q 263 293 328 272 q 153 337 196 315 q 82 397 110 358 q 54 497 54 436 q 120 642 54 585 q 311 700 186 700 q 508 651 419 700 l 493 524 q 408 573 450 556 q 314 590 365 590 q 229 569 260 590 q 199 508 199 549 q 214 461 199 479 q 258 431 229 443 q 350 396 288 418 q 491 321 439 365 q 543 190 543 276 q 478 44 543 101 q 278 -14 414 -14 m 128 929 l 128 1025 l 307 913 l 486 1025 l 486 929 l 307 775 l 128 929 z "},"ṧ":{"ha":581,"x_min":44,"x_max":543,"o":"m 278 -14 q 44 42 147 -14 l 60 175 q 154 126 100 146 q 272 106 208 106 q 364 125 332 106 q 396 183 396 144 q 362 249 396 226 q 263 293 328 272 q 153 337 196 315 q 82 397 110 358 q 54 497 54 436 q 120 642 54 585 q 311 700 186 700 q 508 651 419 700 l 493 524 q 408 573 450 556 q 314 590 365 590 q 229 569 260 590 q 199 508 199 549 q 214 461 199 479 q 258 431 229 443 q 350 396 288 418 q 491 321 439 365 q 543 190 543 276 q 478 44 543 101 q 278 -14 414 -14 m 128 919 l 128 1011 l 307 917 l 486 1011 l 486 919 l 307 793 l 128 919 m 238 1200 l 376 1200 l 376 1071 l 238 1071 l 238 1200 z "},"ş":{"ha":581,"x_min":44,"x_max":543,"o":"m 543 190 q 490 55 543 111 q 325 -11 436 -1 l 306 -75 l 314 -75 q 406 -106 372 -75 q 439 -192 439 -137 q 396 -287 439 -253 q 288 -322 353 -322 q 176 -296 224 -322 l 200 -221 q 289 -244 243 -244 q 337 -232 319 -244 q 354 -194 354 -219 q 285 -143 354 -143 q 219 -153 253 -143 l 254 -14 q 44 42 133 -8 l 60 175 q 154 126 100 146 q 272 106 208 106 q 364 125 332 106 q 396 183 396 144 q 362 249 396 226 q 263 293 328 272 q 153 337 196 315 q 82 397 110 358 q 54 497 54 436 q 120 642 54 585 q 311 700 186 700 q 508 651 419 700 l 493 524 q 408 573 450 556 q 314 590 365 590 q 229 569 260 590 q 199 508 199 549 q 214 461 199 479 q 258 431 229 443 q 350 396 288 418 q 491 321 439 365 q 543 190 543 276 z "},"ŝ":{"ha":581,"x_min":44,"x_max":543,"o":"m 278 -14 q 44 42 147 -14 l 60 175 q 154 126 100 146 q 272 106 208 106 q 364 125 332 106 q 396 183 396 144 q 362 249 396 226 q 263 293 328 272 q 153 337 196 315 q 82 397 110 358 q 54 497 54 436 q 120 642 54 585 q 311 700 186 700 q 508 651 419 700 l 493 524 q 408 573 450 556 q 314 590 365 590 q 229 569 260 590 q 199 508 199 549 q 214 461 199 479 q 258 431 229 443 q 350 396 288 418 q 491 321 439 365 q 543 190 543 276 q 478 44 543 101 q 278 -14 414 -14 m 128 872 l 307 1026 l 486 872 l 486 778 l 307 890 l 128 778 l 128 872 z "},"ș":{"ha":581,"x_min":44,"x_max":543,"o":"m 278 -14 q 44 42 147 -14 l 60 175 q 154 126 100 146 q 272 106 208 106 q 364 125 332 106 q 396 183 396 144 q 362 249 396 226 q 263 293 328 272 q 153 337 196 315 q 82 397 110 358 q 54 497 54 436 q 120 642 54 585 q 311 700 186 700 q 508 651 419 700 l 493 524 q 408 573 450 556 q 314 590 365 590 q 229 569 260 590 q 199 508 199 549 q 214 461 199 479 q 258 431 229 443 q 350 396 288 418 q 491 321 439 365 q 543 190 543 276 q 478 44 543 101 q 278 -14 414 -14 m 215 -428 l 267 -278 l 211 -278 l 211 -126 l 369 -126 l 369 -262 l 292 -428 l 215 -428 z "},"ṡ":{"ha":581,"x_min":44,"x_max":543,"o":"m 278 -14 q 44 42 147 -14 l 60 175 q 154 126 100 146 q 272 106 208 106 q 364 125 332 106 q 396 183 396 144 q 362 249 396 226 q 263 293 328 272 q 153 337 196 315 q 82 397 110 358 q 54 497 54 436 q 120 642 54 585 q 311 700 186 700 q 508 651 419 700 l 493 524 q 408 573 450 556 q 314 590 365 590 q 229 569 260 590 q 199 508 199 549 q 214 461 199 479 q 258 431 229 443 q 350 396 288 418 q 491 321 439 365 q 543 190 543 276 q 478 44 543 101 q 278 -14 414 -14 m 238 957 l 376 957 l 376 828 l 238 828 l 238 957 z "},"ṣ":{"ha":581,"x_min":44,"x_max":543,"o":"m 278 -14 q 44 42 147 -14 l 60 175 q 154 126 100 146 q 272 106 208 106 q 364 125 332 106 q 396 183 396 144 q 362 249 396 226 q 263 293 328 272 q 153 337 196 315 q 82 397 110 358 q 54 497 54 436 q 120 642 54 585 q 311 700 186 700 q 508 651 419 700 l 493 524 q 408 573 450 556 q 314 590 365 590 q 229 569 260 590 q 199 508 199 549 q 214 461 199 479 q 258 431 229 443 q 350 396 288 418 q 491 321 439 365 q 543 190 543 276 q 478 44 543 101 q 278 -14 414 -14 m 219 -112 l 358 -112 l 358 -242 l 219 -242 l 219 -112 z "},"ṩ":{"ha":581,"x_min":44,"x_max":543,"o":"m 278 -14 q 44 42 147 -14 l 60 175 q 154 126 100 146 q 272 106 208 106 q 364 125 332 106 q 396 183 396 144 q 362 249 396 226 q 263 293 328 272 q 153 337 196 315 q 82 397 110 358 q 54 497 54 436 q 120 642 54 585 q 311 700 186 700 q 508 651 419 700 l 493 524 q 408 573 450 556 q 314 590 365 590 q 229 569 260 590 q 199 508 199 549 q 214 461 199 479 q 258 431 229 443 q 350 396 288 418 q 491 321 439 365 q 543 190 543 276 q 478 44 543 101 q 278 -14 414 -14 m 238 957 l 376 957 l 376 828 l 238 828 l 238 957 m 219 -112 l 358 -112 l 358 -242 l 219 -242 l 219 -112 z "},"ß":{"ha":832,"x_min":24,"x_max":800,"o":"m 497 -19 q 356 -3 428 -19 l 356 113 q 499 97 429 97 q 611 128 569 97 q 653 214 653 160 q 621 301 653 267 q 526 372 589 335 q 433 444 465 411 q 401 529 401 478 q 424 608 401 574 q 504 700 446 642 q 558 765 543 739 q 574 826 574 790 q 538 908 574 878 q 435 938 501 938 q 310 890 353 938 q 268 756 268 842 l 268 0 l 125 0 l 125 571 l 24 571 l 36 686 l 125 686 l 125 753 q 210 983 125 904 q 438 1061 294 1061 q 641 1003 565 1061 q 717 846 717 944 q 694 745 717 783 q 625 660 672 707 q 564 589 579 610 q 549 543 549 568 q 571 492 549 514 q 643 438 593 471 q 758 344 717 392 q 800 218 800 297 q 758 87 800 140 q 648 7 717 33 q 497 -19 579 -19 z "},"t":{"ha":472,"x_min":24,"x_max":446,"o":"m 314 -14 q 178 35 224 -14 q 133 157 133 85 l 133 571 l 24 571 l 36 686 l 133 686 l 133 849 l 278 863 l 278 686 l 446 686 l 446 571 l 278 571 l 278 231 q 285 142 278 167 q 317 111 293 118 q 406 104 340 104 l 443 104 l 432 -14 l 314 -14 z "},"ŧ":{"ha":472,"x_min":24,"x_max":446,"o":"m 278 571 l 278 425 l 439 425 l 439 325 l 278 325 l 278 231 q 285 142 278 167 q 317 111 293 118 q 406 104 340 104 l 443 104 l 432 -14 l 314 -14 q 178 35 224 -14 q 133 157 133 85 l 133 325 l 24 325 l 24 425 l 133 425 l 133 571 l 24 571 l 36 686 l 133 686 l 133 849 l 278 863 l 278 686 l 446 686 l 446 571 l 278 571 z "},"ť":{"ha":472,"x_min":24,"x_max":478,"o":"m 314 -14 q 178 35 224 -14 q 133 157 133 85 l 133 571 l 24 571 l 36 686 l 133 686 l 133 849 l 278 863 l 278 686 l 446 686 l 446 571 l 278 571 l 278 231 q 285 142 278 167 q 317 111 293 118 q 406 104 340 104 l 443 104 l 432 -14 l 314 -14 m 344 992 l 478 992 l 439 754 l 344 754 l 344 992 z "},"ţ":{"ha":472,"x_min":24,"x_max":467,"o":"m 342 -75 q 433 -106 400 -75 q 467 -192 467 -137 q 424 -287 467 -253 q 315 -322 381 -322 q 204 -296 251 -322 l 228 -221 q 317 -244 271 -244 q 365 -232 347 -244 q 382 -194 382 -219 q 313 -143 382 -143 q 247 -153 281 -143 l 282 -12 q 170 44 207 -3 q 133 157 133 92 l 133 571 l 24 571 l 36 686 l 133 686 l 133 849 l 278 863 l 278 686 l 446 686 l 446 571 l 278 571 l 278 231 q 285 142 278 167 q 317 111 293 118 q 406 104 340 104 l 443 104 l 432 -14 l 353 -14 l 333 -75 l 342 -75 z "},"ț":{"ha":472,"x_min":24,"x_max":446,"o":"m 314 -14 q 178 35 224 -14 q 133 157 133 85 l 133 571 l 24 571 l 36 686 l 133 686 l 133 849 l 278 863 l 278 686 l 446 686 l 446 571 l 278 571 l 278 231 q 285 142 278 167 q 317 111 293 118 q 406 104 340 104 l 443 104 l 432 -14 l 314 -14 m 243 -428 l 294 -278 l 239 -278 l 239 -126 l 397 -126 l 397 -262 l 319 -428 l 243 -428 z "},"ẗ":{"ha":472,"x_min":7,"x_max":446,"o":"m 314 -14 q 178 35 224 -14 q 133 157 133 85 l 133 571 l 24 571 l 36 686 l 133 686 l 133 849 l 278 863 l 278 686 l 446 686 l 446 571 l 278 571 l 278 231 q 285 142 278 167 q 317 111 293 118 q 406 104 340 104 l 443 104 l 432 -14 l 314 -14 m 7 1101 l 132 1101 l 132 985 l 7 985 l 7 1101 m 279 1101 l 404 1101 l 404 985 l 279 985 l 279 1101 z "},"ṭ":{"ha":472,"x_min":24,"x_max":446,"o":"m 314 -14 q 178 35 224 -14 q 133 157 133 85 l 133 571 l 24 571 l 36 686 l 133 686 l 133 849 l 278 863 l 278 686 l 446 686 l 446 571 l 278 571 l 278 231 q 285 142 278 167 q 317 111 293 118 q 406 104 340 104 l 443 104 l 432 -14 l 314 -14 m 247 -112 l 386 -112 l 386 -242 l 247 -242 l 247 -112 z "},"ṯ":{"ha":472,"x_min":24,"x_max":542,"o":"m 314 -14 q 178 35 224 -14 q 133 157 133 85 l 133 571 l 24 571 l 36 686 l 133 686 l 133 849 l 278 863 l 278 686 l 446 686 l 446 571 l 278 571 l 278 231 q 285 142 278 167 q 317 111 293 118 q 406 104 340 104 l 443 104 l 432 -14 l 314 -14 m 92 -126 l 542 -126 l 542 -231 l 92 -231 l 92 -126 z "},"u":{"ha":744,"x_min":76,"x_max":661,"o":"m 346 -14 q 143 67 210 -14 q 76 300 76 147 l 76 686 l 221 686 l 221 319 q 256 163 221 214 q 371 111 292 111 q 454 128 417 111 q 517 181 492 146 l 517 686 l 661 686 l 661 0 l 529 0 l 519 61 q 346 -14 453 -14 z "},"ú":{"ha":744,"x_min":76,"x_max":661,"o":"m 346 -14 q 143 67 210 -14 q 76 300 76 147 l 76 686 l 221 686 l 221 319 q 256 163 221 214 q 371 111 292 111 q 454 128 417 111 q 517 181 492 146 l 517 686 l 661 686 l 661 0 l 529 0 l 519 61 q 346 -14 453 -14 m 240 892 l 506 1046 l 506 900 l 240 796 l 240 892 z "},"ŭ":{"ha":744,"x_min":76,"x_max":661,"o":"m 346 -14 q 143 67 210 -14 q 76 300 76 147 l 76 686 l 221 686 l 221 319 q 256 163 221 214 q 371 111 292 111 q 454 128 417 111 q 517 181 492 146 l 517 686 l 661 686 l 661 0 l 529 0 l 519 61 q 346 -14 453 -14 m 372 807 q 220 860 275 807 q 165 990 165 913 l 279 990 q 305 926 279 949 q 372 903 331 903 q 440 926 414 903 q 465 990 465 949 l 579 990 q 524 860 579 913 q 372 807 469 807 z "},"û":{"ha":744,"x_min":76,"x_max":661,"o":"m 346 -14 q 143 67 210 -14 q 76 300 76 147 l 76 686 l 221 686 l 221 319 q 256 163 221 214 q 371 111 292 111 q 454 128 417 111 q 517 181 492 146 l 517 686 l 661 686 l 661 0 l 529 0 l 519 61 q 346 -14 453 -14 m 193 872 l 372 1026 l 551 872 l 551 778 l 372 890 l 193 778 l 193 872 z "},"ȕ":{"ha":744,"x_min":76,"x_max":661,"o":"m 346 -14 q 143 67 210 -14 q 76 300 76 147 l 76 686 l 221 686 l 221 319 q 256 163 221 214 q 371 111 292 111 q 454 128 417 111 q 517 181 492 146 l 517 686 l 661 686 l 661 0 l 529 0 l 519 61 q 346 -14 453 -14 m 228 808 l 82 1046 l 228 1046 l 328 808 l 228 808 m 426 808 l 289 1046 l 436 1046 l 526 808 l 426 808 z "},"ü":{"ha":744,"x_min":76,"x_max":661,"o":"m 346 -14 q 143 67 210 -14 q 76 300 76 147 l 76 686 l 221 686 l 221 319 q 256 163 221 214 q 371 111 292 111 q 454 128 417 111 q 517 181 492 146 l 517 686 l 661 686 l 661 0 l 529 0 l 519 61 q 346 -14 453 -14 m 174 938 l 299 938 l 299 821 l 174 821 l 174 938 m 446 938 l 571 938 l 571 821 l 446 821 l 446 938 z "},"ụ":{"ha":744,"x_min":76,"x_max":661,"o":"m 346 -14 q 143 67 210 -14 q 76 300 76 147 l 76 686 l 221 686 l 221 319 q 256 163 221 214 q 371 111 292 111 q 454 128 417 111 q 517 181 492 146 l 517 686 l 661 686 l 661 0 l 529 0 l 519 61 q 346 -14 453 -14 m 303 -112 l 442 -112 l 442 -242 l 303 -242 l 303 -112 z "},"ù":{"ha":744,"x_min":76,"x_max":661,"o":"m 346 -14 q 143 67 210 -14 q 76 300 76 147 l 76 686 l 221 686 l 221 319 q 256 163 221 214 q 371 111 292 111 q 454 128 417 111 q 517 181 492 146 l 517 686 l 661 686 l 661 0 l 529 0 l 519 61 q 346 -14 453 -14 m 239 900 l 239 1046 l 504 892 l 504 796 l 239 900 z "},"ủ":{"ha":744,"x_min":76,"x_max":661,"o":"m 346 -14 q 143 67 210 -14 q 76 300 76 147 l 76 686 l 221 686 l 221 319 q 256 163 221 214 q 371 111 292 111 q 454 128 417 111 q 517 181 492 146 l 517 686 l 661 686 l 661 0 l 529 0 l 519 61 q 346 -14 453 -14 m 344 783 q 392 833 379 815 q 404 874 404 850 q 390 909 404 897 q 350 921 375 921 q 264 894 313 921 l 240 971 q 351 997 290 997 q 450 966 411 997 q 489 878 489 935 q 467 803 489 835 q 393 735 444 772 l 344 783 z "},"ư":{"ha":744,"x_min":76,"x_max":824,"o":"m 824 789 q 778 667 824 721 q 661 593 732 614 l 661 0 l 529 0 l 519 61 q 346 -14 453 -14 q 143 67 210 -14 q 76 300 76 147 l 76 686 l 221 686 l 221 319 q 256 163 221 214 q 371 111 292 111 q 454 128 417 111 q 517 181 492 146 l 517 686 l 582 686 q 693 789 693 686 l 824 789 z "},"ứ":{"ha":744,"x_min":76,"x_max":824,"o":"m 824 789 q 778 667 824 721 q 661 593 732 614 l 661 0 l 529 0 l 519 61 q 346 -14 453 -14 q 143 67 210 -14 q 76 300 76 147 l 76 686 l 221 686 l 221 319 q 256 163 221 214 q 371 111 292 111 q 454 128 417 111 q 517 181 492 146 l 517 686 l 582 686 q 693 789 693 686 l 824 789 m 240 892 l 506 1046 l 506 900 l 240 796 l 240 892 z "},"ự":{"ha":744,"x_min":76,"x_max":824,"o":"m 824 789 q 778 667 824 721 q 661 593 732 614 l 661 0 l 529 0 l 519 61 q 346 -14 453 -14 q 143 67 210 -14 q 76 300 76 147 l 76 686 l 221 686 l 221 319 q 256 163 221 214 q 371 111 292 111 q 454 128 417 111 q 517 181 492 146 l 517 686 l 582 686 q 693 789 693 686 l 824 789 m 303 -112 l 442 -112 l 442 -242 l 303 -242 l 303 -112 z "},"ừ":{"ha":744,"x_min":76,"x_max":824,"o":"m 824 789 q 778 667 824 721 q 661 593 732 614 l 661 0 l 529 0 l 519 61 q 346 -14 453 -14 q 143 67 210 -14 q 76 300 76 147 l 76 686 l 221 686 l 221 319 q 256 163 221 214 q 371 111 292 111 q 454 128 417 111 q 517 181 492 146 l 517 686 l 582 686 q 693 789 693 686 l 824 789 m 239 900 l 239 1046 l 504 892 l 504 796 l 239 900 z "},"ử":{"ha":744,"x_min":76,"x_max":824,"o":"m 824 789 q 778 667 824 721 q 661 593 732 614 l 661 0 l 529 0 l 519 61 q 346 -14 453 -14 q 143 67 210 -14 q 76 300 76 147 l 76 686 l 221 686 l 221 319 q 256 163 221 214 q 371 111 292 111 q 454 128 417 111 q 517 181 492 146 l 517 686 l 582 686 q 693 789 693 686 l 824 789 m 344 783 q 392 833 379 815 q 404 874 404 850 q 390 909 404 897 q 350 921 375 921 q 264 894 313 921 l 240 971 q 351 997 290 997 q 450 966 411 997 q 489 878 489 935 q 467 803 489 835 q 393 735 444 772 l 344 783 z "},"ữ":{"ha":744,"x_min":76,"x_max":824,"o":"m 824 789 q 778 667 824 721 q 661 593 732 614 l 661 0 l 529 0 l 519 61 q 346 -14 453 -14 q 143 67 210 -14 q 76 300 76 147 l 76 686 l 221 686 l 221 319 q 256 163 221 214 q 371 111 292 111 q 454 128 417 111 q 517 181 492 146 l 517 686 l 582 686 q 693 789 693 686 l 824 789 m 486 804 q 439 813 463 804 q 383 839 415 822 q 359 851 378 842 q 324 864 340 860 q 296 868 308 868 q 261 853 274 868 q 249 815 249 839 l 139 815 q 172 934 142 893 q 258 975 203 975 q 306 966 282 975 q 361 942 331 957 q 410 920 390 928 q 449 913 431 913 q 483 926 471 913 q 496 964 496 940 l 606 964 q 572 845 603 886 q 486 804 542 804 z "},"ű":{"ha":744,"x_min":76,"x_max":682,"o":"m 346 -14 q 143 67 210 -14 q 76 300 76 147 l 76 686 l 221 686 l 221 319 q 256 163 221 214 q 371 111 292 111 q 454 128 417 111 q 517 181 492 146 l 517 686 l 661 686 l 661 0 l 529 0 l 519 61 q 346 -14 453 -14 m 328 1046 l 474 1046 l 319 808 l 221 808 l 328 1046 m 535 1046 l 682 1046 l 518 808 l 419 808 l 535 1046 z "},"ȗ":{"ha":744,"x_min":76,"x_max":661,"o":"m 346 -14 q 143 67 210 -14 q 76 300 76 147 l 76 686 l 221 686 l 221 319 q 256 163 221 214 q 371 111 292 111 q 454 128 417 111 q 517 181 492 146 l 517 686 l 661 686 l 661 0 l 529 0 l 519 61 q 346 -14 453 -14 m 372 990 q 524 938 469 990 q 579 807 579 885 l 465 807 q 440 871 465 849 q 372 893 414 893 q 305 871 331 893 q 279 807 279 849 l 165 807 q 220 938 165 885 q 372 990 275 990 z "},"ū":{"ha":744,"x_min":76,"x_max":661,"o":"m 346 -14 q 143 67 210 -14 q 76 300 76 147 l 76 686 l 221 686 l 221 319 q 256 163 221 214 q 371 111 292 111 q 454 128 417 111 q 517 181 492 146 l 517 686 l 661 686 l 661 0 l 529 0 l 519 61 q 346 -14 453 -14 m 147 931 l 597 931 l 597 826 l 147 826 l 147 931 z "},"ṻ":{"ha":744,"x_min":76,"x_max":661,"o":"m 346 -14 q 143 67 210 -14 q 76 300 76 147 l 76 686 l 221 686 l 221 319 q 256 163 221 214 q 371 111 292 111 q 454 128 417 111 q 517 181 492 146 l 517 686 l 661 686 l 661 0 l 529 0 l 519 61 q 346 -14 453 -14 m 147 915 l 597 915 l 597 815 l 147 815 l 147 915 m 174 1160 l 299 1160 l 299 1050 l 174 1050 l 174 1160 m 446 1160 l 571 1160 l 571 1050 l 446 1050 l 446 1160 z "},"ų":{"ha":744,"x_min":76,"x_max":728,"o":"m 728 -264 q 610 -290 675 -290 q 509 -258 549 -290 q 469 -169 469 -226 q 503 -73 469 -118 q 582 0 536 -28 l 529 0 l 519 61 q 346 -14 453 -14 q 143 67 210 -14 q 76 300 76 147 l 76 686 l 221 686 l 221 319 q 256 163 221 214 q 371 111 292 111 q 454 128 417 111 q 517 181 492 146 l 517 686 l 661 686 l 661 0 q 581 -76 608 -40 q 553 -146 553 -111 q 571 -197 553 -179 q 619 -214 589 -214 q 706 -192 661 -214 l 728 -264 z "},"ů":{"ha":744,"x_min":76,"x_max":661,"o":"m 346 -14 q 143 67 210 -14 q 76 300 76 147 l 76 686 l 221 686 l 221 319 q 256 163 221 214 q 371 111 292 111 q 454 128 417 111 q 517 181 492 146 l 517 686 l 661 686 l 661 0 l 529 0 l 519 61 q 346 -14 453 -14 m 372 790 q 267 830 306 790 q 228 928 228 869 q 267 1024 228 983 q 372 1065 307 1065 q 478 1025 439 1065 q 517 928 517 985 q 478 830 517 869 q 372 790 440 790 m 372 856 q 422 876 401 856 q 443 928 443 896 q 422 978 443 958 q 372 999 401 999 q 322 978 343 999 q 301 928 301 958 q 322 876 301 896 q 372 856 343 856 z "},"ũ":{"ha":744,"x_min":76,"x_max":661,"o":"m 346 -14 q 143 67 210 -14 q 76 300 76 147 l 76 686 l 221 686 l 221 319 q 256 163 221 214 q 371 111 292 111 q 454 128 417 111 q 517 181 492 146 l 517 686 l 661 686 l 661 0 l 529 0 l 519 61 q 346 -14 453 -14 m 486 804 q 439 813 463 804 q 383 839 415 822 q 359 851 378 842 q 324 864 340 860 q 296 868 308 868 q 261 853 274 868 q 249 815 249 839 l 139 815 q 172 934 142 893 q 258 975 203 975 q 306 966 282 975 q 361 942 331 957 q 410 920 390 928 q 449 913 431 913 q 483 926 471 913 q 496 964 496 940 l 606 964 q 572 845 603 886 q 486 804 542 804 z "},"ṹ":{"ha":744,"x_min":76,"x_max":661,"o":"m 346 -14 q 143 67 210 -14 q 76 300 76 147 l 76 686 l 221 686 l 221 319 q 256 163 221 214 q 371 111 292 111 q 454 128 417 111 q 517 181 492 146 l 517 686 l 661 686 l 661 0 l 529 0 l 519 61 q 346 -14 453 -14 m 490 803 q 443 810 468 803 q 383 833 418 818 q 296 860 322 860 q 261 847 274 860 q 249 810 249 833 l 151 810 q 178 916 151 879 q 254 953 204 953 q 299 945 276 953 q 361 921 322 938 q 398 906 368 918 q 449 894 428 894 q 483 908 471 894 q 496 944 496 921 l 593 944 q 567 839 593 875 q 490 803 540 803 m 240 1097 l 506 1229 l 506 1090 l 240 1010 l 240 1097 z "},"v":{"ha":686,"x_min":8,"x_max":676,"o":"m 8 686 l 161 686 l 343 169 l 524 686 l 676 686 l 415 0 l 272 0 l 8 686 z "},"w":{"ha":1007,"x_min":15,"x_max":993,"o":"m 15 686 l 172 686 l 297 168 l 436 668 l 572 668 l 710 168 l 836 686 l 993 686 l 789 0 l 646 0 l 504 482 l 361 0 l 219 0 l 15 686 z "},"ẃ":{"ha":1007,"x_min":15,"x_max":993,"o":"m 15 686 l 172 686 l 297 168 l 436 668 l 572 668 l 710 168 l 836 686 l 993 686 l 789 0 l 646 0 l 504 482 l 361 0 l 219 0 l 15 686 m 372 892 l 638 1046 l 638 900 l 372 796 l 372 892 z "},"ŵ":{"ha":1007,"x_min":15,"x_max":993,"o":"m 15 686 l 172 686 l 297 168 l 436 668 l 572 668 l 710 168 l 836 686 l 993 686 l 789 0 l 646 0 l 504 482 l 361 0 l 219 0 l 15 686 m 325 872 l 504 1026 l 683 872 l 683 778 l 504 890 l 325 778 l 325 872 z "},"ẅ":{"ha":1007,"x_min":15,"x_max":993,"o":"m 15 686 l 172 686 l 297 168 l 436 668 l 572 668 l 710 168 l 836 686 l 993 686 l 789 0 l 646 0 l 504 482 l 361 0 l 219 0 l 15 686 m 306 938 l 431 938 l 431 821 l 306 821 l 306 938 m 578 938 l 703 938 l 703 821 l 578 821 l 578 938 z "},"ẁ":{"ha":1007,"x_min":15,"x_max":993,"o":"m 15 686 l 172 686 l 297 168 l 436 668 l 572 668 l 710 168 l 836 686 l 993 686 l 789 0 l 646 0 l 504 482 l 361 0 l 219 0 l 15 686 m 371 900 l 371 1046 l 636 892 l 636 796 l 371 900 z "},"x":{"ha":668,"x_min":15,"x_max":654,"o":"m 249 343 l 18 686 l 186 686 l 338 446 l 478 686 l 649 686 l 422 349 l 654 0 l 486 0 l 333 240 l 183 0 l 15 0 l 249 343 z "},"y":{"ha":721,"x_min":6,"x_max":714,"o":"m 292 38 l 6 686 l 168 686 l 365 206 l 553 686 l 714 686 l 289 -336 l 136 -336 l 292 38 z "},"ý":{"ha":721,"x_min":6,"x_max":714,"o":"m 292 38 l 6 686 l 168 686 l 365 206 l 553 686 l 714 686 l 289 -336 l 136 -336 l 292 38 m 228 892 l 493 1046 l 493 900 l 228 796 l 228 892 z "},"ŷ":{"ha":721,"x_min":6,"x_max":714,"o":"m 292 38 l 6 686 l 168 686 l 365 206 l 553 686 l 714 686 l 289 -336 l 136 -336 l 292 38 m 181 872 l 360 1026 l 539 872 l 539 778 l 360 890 l 181 778 l 181 872 z "},"ÿ":{"ha":721,"x_min":6,"x_max":714,"o":"m 292 38 l 6 686 l 168 686 l 365 206 l 553 686 l 714 686 l 289 -336 l 136 -336 l 292 38 m 161 938 l 286 938 l 286 821 l 161 821 l 161 938 m 433 938 l 558 938 l 558 821 l 433 821 l 433 938 z "},"ẏ":{"ha":721,"x_min":6,"x_max":714,"o":"m 292 38 l 6 686 l 168 686 l 365 206 l 553 686 l 714 686 l 289 -336 l 136 -336 l 292 38 m 290 957 l 429 957 l 429 828 l 290 828 l 290 957 z "},"ỵ":{"ha":721,"x_min":6,"x_max":714,"o":"m 292 38 l 6 686 l 168 686 l 365 206 l 553 686 l 714 686 l 289 -336 l 136 -336 l 292 38 m 443 -112 l 582 -112 l 582 -242 l 443 -242 l 443 -112 z "}}}
